<?xml version="1.0" encoding="UTF-8"?>
<svg xmlns="http://www.w3.org/2000/svg" xmlns:xlink="http://www.w3.org/1999/xlink" width="171pt" height="110pt" viewBox="0 0 171 110" version="1.1">
<rect width="100%" height="100%" fill="white" />
<defs>
<g>
<symbol overflow="visible" id="glyph0-0">
<path style="stroke:none;" d=""/>
</symbol>
<symbol overflow="visible" id="glyph0-1">
<path style="stroke:none;" d="M 7.140625 -6.796875 L 7.296875 -6.96875 C 7.65625 -7.328125 8.0625 -7.734375 8.875 -7.796875 C 9 -7.8125 9.109375 -7.8125 9.109375 -8.015625 C 9.109375 -8.109375 9.046875 -8.15625 8.953125 -8.15625 C 8.640625 -8.15625 8.296875 -8.125 7.96875 -8.125 C 7.578125 -8.125 7.15625 -8.15625 6.78125 -8.15625 C 6.703125 -8.15625 6.546875 -8.15625 6.546875 -7.9375 C 6.546875 -7.8125 6.671875 -7.796875 6.734375 -7.796875 C 6.8125 -7.796875 7.15625 -7.765625 7.15625 -7.515625 C 7.15625 -7.3125 6.890625 -7 6.84375 -6.9375 L 4.0625 -3.75 L 2.75 -7.296875 C 2.671875 -7.46875 2.671875 -7.5 2.671875 -7.5 C 2.671875 -7.796875 3.265625 -7.796875 3.375 -7.796875 C 3.546875 -7.796875 3.671875 -7.796875 3.671875 -8.03125 C 3.671875 -8.15625 3.53125 -8.15625 3.484375 -8.15625 C 3.15625 -8.15625 2.3125 -8.125 1.984375 -8.125 C 1.6875 -8.125 0.9375 -8.15625 0.640625 -8.15625 C 0.578125 -8.15625 0.421875 -8.15625 0.421875 -7.921875 C 0.421875 -7.796875 0.53125 -7.796875 0.6875 -7.796875 C 1.40625 -7.796875 1.453125 -7.6875 1.5625 -7.390625 L 3.03125 -3.453125 C 3.046875 -3.421875 3.078125 -3.28125 3.078125 -3.25 C 3.078125 -3.21875 2.609375 -1.296875 2.546875 -1.078125 C 2.390625 -0.421875 2.375 -0.375 1.421875 -0.375 C 1.1875 -0.375 1.09375 -0.375 1.09375 -0.125 C 1.09375 0 1.25 0 1.265625 0 C 1.609375 0 2.4375 -0.03125 2.765625 -0.03125 C 3.109375 -0.03125 3.96875 0 4.296875 0 C 4.390625 0 4.53125 0 4.53125 -0.234375 C 4.53125 -0.375 4.421875 -0.375 4.203125 -0.375 C 4.171875 -0.375 3.9375 -0.375 3.734375 -0.390625 C 3.484375 -0.421875 3.421875 -0.4375 3.421875 -0.578125 C 3.421875 -0.671875 3.53125 -1.09375 3.578125 -1.34375 L 4 -3.03125 C 4.0625 -3.25 4.078125 -3.28125 4.171875 -3.390625 Z M 7.140625 -6.796875 "/>
</symbol>
<symbol overflow="visible" id="glyph0-2">
<path style="stroke:none;" d="M 1.90625 -0.9375 C 1.78125 -0.46875 1.75 -0.375 0.8125 -0.375 C 0.609375 -0.375 0.484375 -0.375 0.484375 -0.140625 C 0.484375 0 0.578125 0 0.8125 0 L 4.765625 0 C 7.25 0 9.609375 -2.515625 9.609375 -5.140625 C 9.609375 -6.828125 8.59375 -8.15625 6.796875 -8.15625 L 2.78125 -8.15625 C 2.5625 -8.15625 2.421875 -8.15625 2.421875 -7.9375 C 2.421875 -7.796875 2.53125 -7.796875 2.765625 -7.796875 C 2.921875 -7.796875 3.140625 -7.78125 3.28125 -7.765625 C 3.484375 -7.75 3.546875 -7.703125 3.546875 -7.578125 C 3.546875 -7.53125 3.53125 -7.5 3.5 -7.34375 Z M 4.484375 -7.34375 C 4.59375 -7.75 4.609375 -7.796875 5.125 -7.796875 L 6.40625 -7.796875 C 7.578125 -7.796875 8.578125 -7.15625 8.578125 -5.578125 C 8.578125 -5 8.328125 -3.03125 7.3125 -1.71875 C 6.96875 -1.28125 6.03125 -0.375 4.546875 -0.375 L 3.203125 -0.375 C 3.03125 -0.375 3.015625 -0.375 2.9375 -0.375 C 2.828125 -0.390625 2.78125 -0.40625 2.78125 -0.5 C 2.78125 -0.53125 2.78125 -0.5625 2.84375 -0.78125 Z M 4.484375 -7.34375 "/>
</symbol>
<symbol overflow="visible" id="glyph0-3">
<path style="stroke:none;" d="M 9.078125 -8.3125 C 9.078125 -8.34375 9.0625 -8.421875 8.953125 -8.421875 C 8.921875 -8.421875 8.90625 -8.421875 8.78125 -8.28125 L 7.9375 -7.359375 C 7.828125 -7.53125 7.28125 -8.421875 5.953125 -8.421875 C 3.28125 -8.421875 0.59375 -5.78125 0.59375 -3.015625 C 0.59375 -1.109375 1.921875 0.265625 3.859375 0.265625 C 4.390625 0.265625 4.921875 0.15625 5.359375 -0.03125 C 5.953125 -0.265625 6.1875 -0.515625 6.390625 -0.75 C 6.5 -0.453125 6.8125 -0.015625 6.9375 -0.015625 C 7 -0.015625 7.015625 -0.046875 7.015625 -0.0625 C 7.046875 -0.078125 7.15625 -0.53125 7.21875 -0.78125 L 7.453125 -1.703125 C 7.5 -1.90625 7.546875 -2.109375 7.609375 -2.3125 C 7.734375 -2.859375 7.75 -2.875 8.421875 -2.890625 C 8.484375 -2.890625 8.625 -2.90625 8.625 -3.125 C 8.625 -3.21875 8.5625 -3.265625 8.46875 -3.265625 C 8.1875 -3.265625 7.484375 -3.234375 7.203125 -3.234375 C 6.84375 -3.234375 5.90625 -3.265625 5.53125 -3.265625 C 5.421875 -3.265625 5.28125 -3.265625 5.28125 -3.03125 C 5.28125 -2.890625 5.375 -2.890625 5.640625 -2.890625 C 5.65625 -2.890625 6 -2.890625 6.28125 -2.875 C 6.59375 -2.828125 6.640625 -2.796875 6.640625 -2.640625 C 6.640625 -2.53125 6.515625 -2 6.390625 -1.546875 C 6.0625 -0.234375 4.5 -0.109375 4.09375 -0.109375 C 2.9375 -0.109375 1.6875 -0.78125 1.6875 -2.625 C 1.6875 -2.984375 1.8125 -4.953125 3.0625 -6.515625 C 3.703125 -7.328125 4.859375 -8.0625 6.046875 -8.0625 C 7.265625 -8.0625 7.96875 -7.140625 7.96875 -5.75 C 7.96875 -5.265625 7.9375 -5.265625 7.9375 -5.140625 C 7.9375 -5.015625 8.0625 -5.015625 8.109375 -5.015625 C 8.265625 -5.015625 8.265625 -5.046875 8.328125 -5.265625 Z M 9.078125 -8.3125 "/>
</symbol>
<symbol overflow="visible" id="glyph0-4">
<path style="stroke:none;" d="M 9.03125 -6.90625 C 9.15625 -7.390625 9.375 -7.75 10.328125 -7.796875 C 10.390625 -7.796875 10.53125 -7.8125 10.53125 -8.03125 C 10.53125 -8.046875 10.53125 -8.15625 10.375 -8.15625 C 9.984375 -8.15625 9.5625 -8.125 9.171875 -8.125 C 8.765625 -8.125 8.34375 -8.15625 7.953125 -8.15625 C 7.875 -8.15625 7.734375 -8.15625 7.734375 -7.921875 C 7.734375 -7.796875 7.859375 -7.796875 7.953125 -7.796875 C 8.625 -7.78125 8.765625 -7.53125 8.765625 -7.265625 C 8.765625 -7.234375 8.734375 -7.046875 8.71875 -7.015625 L 7.390625 -1.703125 L 4.75 -7.9375 C 4.65625 -8.15625 4.640625 -8.15625 4.359375 -8.15625 L 2.765625 -8.15625 C 2.515625 -8.15625 2.421875 -8.15625 2.421875 -7.921875 C 2.421875 -7.796875 2.515625 -7.796875 2.75 -7.796875 C 2.8125 -7.796875 3.5625 -7.796875 3.5625 -7.6875 L 1.953125 -1.265625 C 1.84375 -0.78125 1.640625 -0.40625 0.671875 -0.375 C 0.59375 -0.375 0.46875 -0.359375 0.46875 -0.125 C 0.46875 -0.046875 0.53125 0 0.625 0 C 1 0 1.421875 -0.03125 1.8125 -0.03125 C 2.21875 -0.03125 2.65625 0 3.046875 0 C 3.109375 0 3.265625 0 3.265625 -0.234375 C 3.265625 -0.359375 3.15625 -0.375 3.03125 -0.375 C 2.328125 -0.390625 2.234375 -0.65625 2.234375 -0.890625 C 2.234375 -0.984375 2.25 -1.046875 2.28125 -1.171875 L 3.859375 -7.484375 C 3.90625 -7.40625 3.90625 -7.390625 3.96875 -7.265625 L 6.9375 -0.234375 C 7.03125 -0.03125 7.0625 0 7.171875 0 C 7.296875 0 7.296875 -0.03125 7.359375 -0.25 Z M 9.03125 -6.90625 "/>
</symbol>
</g>
</defs>
<g id="surface1">
<path style="fill:none;stroke-width:9.75;stroke-linecap:round;stroke-linejoin:bevel;stroke:rgb(0%,0%,0%);stroke-opacity:1;stroke-miterlimit:6;" d="M 466.289062 310.859375 L 196.289062 460.859375 L 196.289062 160.859375 Z M 466.289062 310.859375 " transform="matrix(0.1,0,0,-0.1,0,110)"/>
<path style="fill:none;stroke-width:9.75;stroke-linecap:round;stroke-linejoin:bevel;stroke:rgb(0%,0%,0%);stroke-opacity:1;stroke-miterlimit:6;" d="M 526.289062 310.859375 C 526.289062 327.421875 512.851562 340.859375 496.289062 340.859375 C 479.726562 340.859375 466.289062 327.421875 466.289062 310.859375 C 466.289062 294.296875 479.726562 280.859375 496.289062 280.859375 C 512.851562 280.859375 526.289062 294.296875 526.289062 310.859375 " transform="matrix(0.1,0,0,-0.1,0,110)"/>
<path style="fill:none;stroke-width:9.75;stroke-linecap:round;stroke-linejoin:bevel;stroke:rgb(0%,0%,0%);stroke-opacity:1;stroke-miterlimit:6;" d="M 136.289062 310.859375 L 196.289062 310.859375 " transform="matrix(0.1,0,0,-0.1,0,110)"/>
<path style="fill:none;stroke-width:9.75;stroke-linecap:round;stroke-linejoin:bevel;stroke:rgb(0%,0%,0%);stroke-opacity:1;stroke-miterlimit:6;" d="M 556.289062 310.859375 L 526.289062 310.859375 " transform="matrix(0.1,0,0,-0.1,0,110)"/>
<path style="fill:none;stroke-width:9.75;stroke-linecap:round;stroke-linejoin:bevel;stroke:rgb(0%,0%,0%);stroke-opacity:1;stroke-miterlimit:6;" d="M 316.289062 130.859375 L 316.289062 220.859375 " transform="matrix(0.1,0,0,-0.1,0,110)"/>
<path style="fill:none;stroke-width:9.75;stroke-linecap:round;stroke-linejoin:bevel;stroke:rgb(0%,0%,0%);stroke-opacity:1;stroke-miterlimit:6;" d="M 346.289062 430.859375 C 346.289062 447.421875 332.851562 460.859375 316.289062 460.859375 C 299.726562 460.859375 286.289062 447.421875 286.289062 430.859375 C 286.289062 414.296875 299.726562 400.859375 316.289062 400.859375 C 332.851562 400.859375 346.289062 414.296875 346.289062 430.859375 " transform="matrix(0.1,0,0,-0.1,0,110)"/>
<path style="fill:none;stroke-width:9.75;stroke-linecap:round;stroke-linejoin:bevel;stroke:rgb(0%,0%,0%);stroke-opacity:1;stroke-miterlimit:6;" d="M 316.289062 460.859375 L 316.289062 490.859375 " transform="matrix(0.1,0,0,-0.1,0,110)"/>
<path style="fill:none;stroke-width:9.75;stroke-linecap:round;stroke-linejoin:bevel;stroke:rgb(0%,0%,0%);stroke-opacity:1;stroke-miterlimit:6;" d="M 946.289062 790.859375 L 1216.289062 940.859375 L 1216.289062 640.859375 Z M 946.289062 790.859375 " transform="matrix(0.1,0,0,-0.1,0,110)"/>
<path style="fill:none;stroke-width:9.75;stroke-linecap:round;stroke-linejoin:bevel;stroke:rgb(0%,0%,0%);stroke-opacity:1;stroke-miterlimit:6;" d="M 886.289062 790.859375 C 886.289062 807.421875 899.726562 820.859375 916.289062 820.859375 C 932.851562 820.859375 946.289062 807.421875 946.289062 790.859375 C 946.289062 774.296875 932.851562 760.859375 916.289062 760.859375 C 899.726562 760.859375 886.289062 774.296875 886.289062 790.859375 " transform="matrix(0.1,0,0,-0.1,0,110)"/>
<path style="fill:none;stroke-width:9.75;stroke-linecap:round;stroke-linejoin:bevel;stroke:rgb(0%,0%,0%);stroke-opacity:1;stroke-miterlimit:6;" d="M 1276.289062 790.859375 L 1216.289062 790.859375 " transform="matrix(0.1,0,0,-0.1,0,110)"/>
<path style="fill:none;stroke-width:9.75;stroke-linecap:round;stroke-linejoin:bevel;stroke:rgb(0%,0%,0%);stroke-opacity:1;stroke-miterlimit:6;" d="M 856.289062 790.859375 L 886.289062 790.859375 " transform="matrix(0.1,0,0,-0.1,0,110)"/>
<path style="fill:none;stroke-width:9.75;stroke-linecap:round;stroke-linejoin:bevel;stroke:rgb(0%,0%,0%);stroke-opacity:1;stroke-miterlimit:6;" d="M 1096.289062 610.859375 L 1096.289062 700.859375 " transform="matrix(0.1,0,0,-0.1,0,110)"/>
<path style="fill:none;stroke-width:9.75;stroke-linecap:round;stroke-linejoin:bevel;stroke:rgb(0%,0%,0%);stroke-opacity:1;stroke-miterlimit:6;" d="M 1126.289062 910.859375 C 1126.289062 927.421875 1112.851562 940.859375 1096.289062 940.859375 C 1079.726562 940.859375 1066.289062 927.421875 1066.289062 910.859375 C 1066.289062 894.296875 1079.726562 880.859375 1096.289062 880.859375 C 1112.851562 880.859375 1126.289062 894.296875 1126.289062 910.859375 " transform="matrix(0.1,0,0,-0.1,0,110)"/>
<path style="fill:none;stroke-width:9.75;stroke-linecap:round;stroke-linejoin:bevel;stroke:rgb(0%,0%,0%);stroke-opacity:1;stroke-miterlimit:6;" d="M 1096.289062 940.859375 L 1096.289062 970.859375 " transform="matrix(0.1,0,0,-0.1,0,110)"/>
<path style="fill:none;stroke-width:9.75;stroke-linecap:round;stroke-linejoin:bevel;stroke:rgb(0%,0%,0%);stroke-opacity:1;stroke-miterlimit:6;" d="M 1186.289062 310.859375 L 916.289062 460.859375 L 916.289062 160.859375 Z M 1186.289062 310.859375 " transform="matrix(0.1,0,0,-0.1,0,110)"/>
<path style="fill:none;stroke-width:9.75;stroke-linecap:round;stroke-linejoin:bevel;stroke:rgb(0%,0%,0%);stroke-opacity:1;stroke-miterlimit:6;" d="M 1246.289062 310.859375 C 1246.289062 327.421875 1232.851562 340.859375 1216.289062 340.859375 C 1199.726562 340.859375 1186.289062 327.421875 1186.289062 310.859375 C 1186.289062 294.296875 1199.726562 280.859375 1216.289062 280.859375 C 1232.851562 280.859375 1246.289062 294.296875 1246.289062 310.859375 " transform="matrix(0.1,0,0,-0.1,0,110)"/>
<path style="fill:none;stroke-width:9.75;stroke-linecap:round;stroke-linejoin:bevel;stroke:rgb(0%,0%,0%);stroke-opacity:1;stroke-miterlimit:6;" d="M 856.289062 310.859375 L 916.289062 310.859375 " transform="matrix(0.1,0,0,-0.1,0,110)"/>
<path style="fill:none;stroke-width:9.75;stroke-linecap:round;stroke-linejoin:bevel;stroke:rgb(0%,0%,0%);stroke-opacity:1;stroke-miterlimit:6;" d="M 1276.289062 310.859375 L 1246.289062 310.859375 " transform="matrix(0.1,0,0,-0.1,0,110)"/>
<path style="fill:none;stroke-width:9.75;stroke-linecap:round;stroke-linejoin:bevel;stroke:rgb(0%,0%,0%);stroke-opacity:1;stroke-miterlimit:6;" d="M 706.289062 310.859375 L 706.289062 790.859375 L 856.289062 790.859375 " transform="matrix(0.1,0,0,-0.1,0,110)"/>
<path style="fill:none;stroke-width:9.75;stroke-linecap:round;stroke-linejoin:bevel;stroke:rgb(0%,0%,0%);stroke-opacity:1;stroke-miterlimit:6;" d="M 856.289062 310.859375 L 556.289062 310.859375 " transform="matrix(0.1,0,0,-0.1,0,110)"/>
<path style=" stroke:none;fill-rule:evenodd;fill:rgb(0%,0%,0%);fill-opacity:1;" d="M 72.878906 78.914062 C 72.878906 77.671875 71.871094 76.664062 70.628906 76.664062 C 69.386719 76.664062 68.378906 77.671875 68.378906 78.914062 C 68.378906 80.15625 69.386719 81.164062 70.628906 81.164062 C 71.871094 81.164062 72.878906 80.15625 72.878906 78.914062 "/>
<path style="fill:none;stroke-width:9.75;stroke-linecap:round;stroke-linejoin:bevel;stroke:rgb(0%,0%,0%);stroke-opacity:1;stroke-miterlimit:6;" d="M 1276.289062 310.859375 L 1426.289062 310.859375 L 1426.289062 790.859375 L 1276.289062 790.859375 " transform="matrix(0.1,0,0,-0.1,0,110)"/>
<path style="fill:none;stroke-width:9.75;stroke-linecap:round;stroke-linejoin:bevel;stroke:rgb(0%,0%,0%);stroke-opacity:1;stroke-miterlimit:6;" d="M 1576.289062 310.859375 L 1426.289062 310.859375 " transform="matrix(0.1,0,0,-0.1,0,110)"/>
<path style=" stroke:none;fill-rule:evenodd;fill:rgb(0%,0%,0%);fill-opacity:1;" d="M 144.878906 78.914062 C 144.878906 77.671875 143.871094 76.664062 142.628906 76.664062 C 141.386719 76.664062 140.378906 77.671875 140.378906 78.914062 C 140.378906 80.15625 141.386719 81.164062 142.628906 81.164062 C 143.871094 81.164062 144.878906 80.15625 144.878906 78.914062 "/>
<g style="fill:rgb(13.729858%,12.159729%,12.548828%);fill-opacity:1;">
  <use xlink:href="#glyph0-1" x="160.32" y="81.7602"/>
</g>
<g style="fill:rgb(13.729858%,12.159729%,12.548828%);fill-opacity:1;">
  <use xlink:href="#glyph0-2" x="0.335514" y="81.7602"/>
</g>
<g style="fill:rgb(13.729858%,12.159729%,12.548828%);fill-opacity:1;">
  <use xlink:href="#glyph0-3" x="26.688" y="108.4"/>
</g>
<g style="fill:rgb(13.729858%,12.159729%,12.548828%);fill-opacity:1;">
  <use xlink:href="#glyph0-3" x="21.21613" y="58"/>
</g>
<g style="fill:rgb(13.729858%,12.159729%,12.548828%);fill-opacity:1;">
  <use xlink:href="#glyph0-4" x="30.576153" y="58"/>
</g>
<g style="fill:rgb(13.729858%,12.159729%,12.548828%);fill-opacity:1;">
  <use xlink:href="#glyph0-3" x="105.16813" y="9.7598"/>
</g>
<g style="fill:rgb(13.729858%,12.159729%,12.548828%);fill-opacity:1;">
  <use xlink:href="#glyph0-3" x="99.69626" y="60.8801"/>
</g>
<g style="fill:rgb(13.729858%,12.159729%,12.548828%);fill-opacity:1;">
  <use xlink:href="#glyph0-4" x="109.05628" y="60.8801"/>
</g>
</g>
</svg>
