<?xml version="1.0" encoding="utf-8" standalone="no"?>
<!DOCTYPE svg PUBLIC "-//W3C//DTD SVG 1.1//EN"
  "http://www.w3.org/Graphics/SVG/1.1/DTD/svg11.dtd">
<svg xmlns:xlink="http://www.w3.org/1999/xlink" width="547.945205pt" height="338.648761pt" viewBox="0 0 547.945205 338.648761" xmlns="http://www.w3.org/2000/svg" version="1.1">
 <metadata>
  <rdf:RDF xmlns:dc="http://purl.org/dc/elements/1.1/" xmlns:cc="http://creativecommons.org/ns#" xmlns:rdf="http://www.w3.org/1999/02/22-rdf-syntax-ns#">
   <cc:Work>
    <dc:type rdf:resource="http://purl.org/dc/dcmitype/StillImage"/>
    <dc:date>2026-06-14T21:03:41.135312</dc:date>
    <dc:format>image/svg+xml</dc:format>
    <dc:creator>
     <cc:Agent>
      <dc:title>Matplotlib v3.11.0, https://matplotlib.org/</dc:title>
     </cc:Agent>
    </dc:creator>
   </cc:Work>
  </rdf:RDF>
 </metadata>
 <defs>
  <style type="text/css">*{stroke-linejoin: round; stroke-linecap: butt}</style>
 </defs>
 <g id="figure_1">
  <g id="patch_1">
   <path d="M 0 338.648761 
L 547.945205 338.648761 
L 547.945205 0 
L 0 0 
z
" style="fill: #ffffff"/>
  </g>
  <g id="axes_1">
   <g id="patch_2">
    <path d="M 71.401397 286.18316 
L 529.410961 286.18316 
L 529.410961 15.12 
L 71.401397 15.12 
z
" style="fill: #ffffff"/>
   </g>
   <g id="matplotlib.axis_1">
    <g id="xtick_1">
     <g id="line2d_1">
      <path d="M 71.401397 286.18316 
L 71.401397 15.12 
" clip-path="url(#p8fe1cb883b)" style="fill: none; stroke: #b0b0b0; stroke-width: 0.8; stroke-linecap: square"/>
     </g>
     <g id="line2d_2">
      <defs>
       <path id="m74e18bda1d" d="M 0 0 
L 0 3.5 
" style="stroke: #000000; stroke-width: 0.8"/>
      </defs>
      <g>
       <use xlink:href="#m74e18bda1d" x="71.401397" y="286.18316" style="stroke: #000000; stroke-width: 0.8"/>
      </g>
     </g>
     <g id="text_1">
      <!-- $\mathdefault{0}$ -->
      <g transform="translate(67.987153 302.869036) scale(0.14 -0.14)">
       <defs>
        <path id="CMR17-32" d="M 2688 2038 
C 2688 2430 2681 3099 2412 3613 
C 2176 4063 1798 4224 1465 4224 
C 1158 4224 768 4082 524 3620 
C 268 3137 243 2539 243 2038 
C 243 1671 249 1112 448 623 
C 723 -39 1216 -128 1465 -128 
C 1760 -128 2208 -7 2470 604 
C 2662 1048 2688 1568 2688 2038 
z
M 1465 -26 
C 1056 -26 812 328 723 816 
C 652 1196 652 1749 652 2109 
C 652 2604 652 3015 736 3407 
C 857 3954 1216 4121 1465 4121 
C 1728 4121 2067 3947 2188 3420 
C 2272 3054 2278 2623 2278 2109 
C 2278 1691 2278 1176 2201 797 
C 2067 96 1689 -26 1465 -26 
z
" transform="scale(0.015625)"/>
       </defs>
       <use xlink:href="#CMR17-32" transform="scale(0.996264)"/>
      </g>
     </g>
    </g>
    <g id="xtick_2">
     <g id="line2d_3">
      <path d="M 163.00331 286.18316 
L 163.00331 15.12 
" clip-path="url(#p8fe1cb883b)" style="fill: none; stroke: #b0b0b0; stroke-width: 0.8; stroke-linecap: square"/>
     </g>
     <g id="line2d_4">
      <g>
       <use xlink:href="#m74e18bda1d" x="163.00331" y="286.18316" style="stroke: #000000; stroke-width: 0.8"/>
      </g>
     </g>
     <g id="text_2">
      <!-- $\mathdefault{1}$ -->
      <g transform="translate(159.589066 302.869036) scale(0.14 -0.14)">
       <defs>
        <path id="CMR17-33" d="M 1702 4083 
C 1702 4217 1696 4224 1606 4224 
C 1356 3927 979 3833 620 3820 
C 601 3820 569 3820 563 3808 
C 556 3795 556 3782 556 3648 
C 755 3648 1088 3686 1344 3839 
L 1344 467 
C 1344 243 1331 166 780 166 
L 588 166 
L 588 0 
C 896 6 1216 12 1523 12 
C 1830 12 2150 6 2457 0 
L 2457 166 
L 2265 166 
C 1715 166 1702 236 1702 467 
L 1702 4083 
z
" transform="scale(0.015625)"/>
       </defs>
       <use xlink:href="#CMR17-33" transform="scale(0.996264)"/>
      </g>
     </g>
    </g>
    <g id="xtick_3">
     <g id="line2d_5">
      <path d="M 254.605223 286.18316 
L 254.605223 15.12 
" clip-path="url(#p8fe1cb883b)" style="fill: none; stroke: #b0b0b0; stroke-width: 0.8; stroke-linecap: square"/>
     </g>
     <g id="line2d_6">
      <g>
       <use xlink:href="#m74e18bda1d" x="254.605223" y="286.18316" style="stroke: #000000; stroke-width: 0.8"/>
      </g>
     </g>
     <g id="text_3">
      <!-- $\mathdefault{2}$ -->
      <g transform="translate(251.190978 302.869036) scale(0.14 -0.14)">
       <defs>
        <path id="CMR17-34" d="M 2668 990 
L 2553 990 
C 2489 537 2438 460 2412 422 
C 2380 371 1920 371 1830 371 
L 601 371 
C 832 620 1280 1073 1824 1596 
C 2214 1966 2668 2400 2668 3033 
C 2668 3788 2067 4224 1395 4224 
C 691 4224 262 3603 262 3027 
C 262 2777 448 2745 524 2745 
C 588 2745 780 2783 780 3007 
C 780 3206 614 3264 524 3264 
C 486 3264 448 3257 422 3244 
C 544 3788 915 4057 1305 4057 
C 1862 4057 2227 3616 2227 3033 
C 2227 2477 1900 1998 1536 1583 
L 262 147 
L 262 0 
L 2515 0 
L 2668 990 
z
" transform="scale(0.015625)"/>
       </defs>
       <use xlink:href="#CMR17-34" transform="scale(0.996264)"/>
      </g>
     </g>
    </g>
    <g id="xtick_4">
     <g id="line2d_7">
      <path d="M 346.207136 286.18316 
L 346.207136 15.12 
" clip-path="url(#p8fe1cb883b)" style="fill: none; stroke: #b0b0b0; stroke-width: 0.8; stroke-linecap: square"/>
     </g>
     <g id="line2d_8">
      <g>
       <use xlink:href="#m74e18bda1d" x="346.207136" y="286.18316" style="stroke: #000000; stroke-width: 0.8"/>
      </g>
     </g>
     <g id="text_4">
      <!-- $\mathdefault{3}$ -->
      <g transform="translate(342.792891 302.869036) scale(0.14 -0.14)">
       <defs>
        <path id="CMR17-35" d="M 1414 2176 
C 1984 2176 2233 1673 2233 1094 
C 2233 322 1824 25 1452 25 
C 1113 25 563 193 390 691 
C 422 678 454 678 486 678 
C 640 678 755 780 755 947 
C 755 1132 614 1216 486 1216 
C 377 1216 211 1164 211 927 
C 211 335 787 -128 1465 -128 
C 2176 -128 2720 432 2720 1087 
C 2720 1718 2208 2176 1600 2246 
C 2086 2347 2553 2776 2553 3353 
C 2553 3856 2048 4224 1472 4224 
C 889 4224 377 3862 377 3347 
C 377 3123 544 3084 627 3084 
C 761 3084 876 3167 876 3334 
C 876 3500 761 3584 627 3584 
C 601 3584 569 3584 544 3571 
C 729 3999 1235 4076 1459 4076 
C 1683 4076 2105 3966 2105 3347 
C 2105 3167 2080 2851 1862 2574 
C 1670 2329 1452 2316 1241 2297 
C 1209 2297 1062 2284 1036 2284 
C 992 2278 966 2272 966 2227 
C 966 2182 972 2176 1100 2176 
L 1414 2176 
z
" transform="scale(0.015625)"/>
       </defs>
       <use xlink:href="#CMR17-35" transform="scale(0.996264)"/>
      </g>
     </g>
    </g>
    <g id="xtick_5">
     <g id="line2d_9">
      <path d="M 437.809048 286.18316 
L 437.809048 15.12 
" clip-path="url(#p8fe1cb883b)" style="fill: none; stroke: #b0b0b0; stroke-width: 0.8; stroke-linecap: square"/>
     </g>
     <g id="line2d_10">
      <g>
       <use xlink:href="#m74e18bda1d" x="437.809048" y="286.18316" style="stroke: #000000; stroke-width: 0.8"/>
      </g>
     </g>
     <g id="text_5">
      <!-- $\mathdefault{4}$ -->
      <g transform="translate(434.394804 302.869036) scale(0.14 -0.14)">
       <defs>
        <path id="CMR17-36" d="M 2150 4147 
C 2150 4281 2144 4288 2028 4288 
L 128 1254 
L 128 1088 
L 1779 1088 
L 1779 460 
C 1779 230 1766 166 1318 166 
L 1196 166 
L 1196 0 
C 1401 12 1747 12 1964 12 
C 2182 12 2528 12 2732 0 
L 2732 166 
L 2611 166 
C 2163 166 2150 230 2150 460 
L 2150 1088 
L 2803 1088 
L 2803 1254 
L 2150 1254 
L 2150 4147 
z
M 1798 3723 
L 1798 1254 
L 256 1254 
L 1798 3723 
z
" transform="scale(0.015625)"/>
       </defs>
       <use xlink:href="#CMR17-36" transform="scale(0.996264)"/>
      </g>
     </g>
    </g>
    <g id="xtick_6">
     <g id="line2d_11">
      <path d="M 529.410961 286.18316 
L 529.410961 15.12 
" clip-path="url(#p8fe1cb883b)" style="fill: none; stroke: #b0b0b0; stroke-width: 0.8; stroke-linecap: square"/>
     </g>
     <g id="line2d_12">
      <g>
       <use xlink:href="#m74e18bda1d" x="529.410961" y="286.18316" style="stroke: #000000; stroke-width: 0.8"/>
      </g>
     </g>
     <g id="text_6">
      <!-- $\mathdefault{5}$ -->
      <g transform="translate(525.996717 302.869036) scale(0.14 -0.14)">
       <defs>
        <path id="CMR17-37" d="M 729 3750 
C 793 3724 1056 3641 1324 3641 
C 1920 3641 2246 3961 2432 4140 
C 2432 4191 2432 4224 2393 4224 
C 2387 4224 2374 4224 2323 4198 
C 2099 4102 1836 4032 1516 4032 
C 1324 4032 1036 4055 723 4191 
C 652 4224 640 4224 633 4224 
C 601 4224 595 4217 595 4090 
L 595 2231 
C 595 2113 595 2080 659 2080 
C 691 2080 704 2093 736 2139 
C 940 2435 1222 2560 1542 2560 
C 1766 2560 2246 2415 2246 1293 
C 2246 1087 2246 716 2054 422 
C 1894 159 1644 25 1369 25 
C 947 25 518 319 403 812 
C 428 806 480 793 505 793 
C 588 793 748 838 748 1036 
C 748 1209 627 1280 505 1280 
C 358 1280 262 1190 262 1011 
C 262 454 704 -128 1382 -128 
C 2041 -128 2668 441 2668 1267 
C 2668 2054 2169 2662 1548 2662 
C 1222 2662 947 2540 729 2304 
L 729 3750 
z
" transform="scale(0.015625)"/>
       </defs>
       <use xlink:href="#CMR17-37" transform="scale(0.996264)"/>
      </g>
     </g>
    </g>
    <g id="text_7">
     <!-- $t~\mr{[ns]}$ -->
     <g transform="translate(285.383504 320.041837) scale(0.14 -0.14)">
      <defs>
       <path id="CMMI12-75" d="M 1286 2566 
L 1875 2566 
C 1996 2566 2060 2566 2060 2681 
C 2060 2752 2022 2752 1894 2752 
L 1331 2752 
L 1568 3664 
C 1593 3752 1593 3764 1593 3808 
C 1593 3910 1510 3968 1427 3968 
C 1376 3968 1228 3948 1177 3746 
L 928 2752 
L 326 2752 
C 198 2752 140 2752 140 2630 
C 140 2566 185 2566 307 2566 
L 876 2566 
L 454 881 
C 403 657 384 593 384 510 
C 384 210 595 -64 953 -64 
C 1600 -64 1945 868 1945 913 
C 1945 951 1920 970 1881 970 
C 1868 970 1843 970 1830 944 
C 1824 938 1817 932 1772 830 
C 1638 510 1344 64 972 64 
C 780 64 768 223 768 364 
C 768 370 768 491 787 568 
L 1286 2566 
z
" transform="scale(0.015625)"/>
       <path id="CMR17-5d" d="M 1504 -1600 
L 1504 -1376 
L 902 -1376 
L 902 4575 
L 1504 4575 
L 1504 4800 
L 678 4800 
L 678 -1600 
L 1504 -1600 
z
" transform="scale(0.015625)"/>
       <path id="CMR17-70" d="M 2656 1954 
C 2656 2282 2592 2816 1836 2816 
C 1331 2816 1068 2424 972 2166 
L 966 2166 
L 966 2816 
L 211 2745 
L 211 2578 
C 588 2578 646 2540 646 2231 
L 646 443 
C 646 198 620 166 211 166 
L 211 0 
C 364 12 646 12 812 12 
C 979 12 1267 12 1420 0 
L 1420 166 
C 1011 166 985 192 985 443 
L 985 1678 
C 985 2269 1344 2713 1792 2713 
C 2265 2713 2316 2289 2316 1980 
L 2316 443 
C 2316 198 2291 166 1881 166 
L 1881 0 
C 2035 12 2316 12 2483 12 
C 2649 12 2937 12 3091 0 
L 3091 166 
C 2681 166 2656 192 2656 443 
L 2656 1954 
z
" transform="scale(0.015625)"/>
       <path id="CMR17-75" d="M 1977 2688 
C 1977 2803 1971 2809 1932 2809 
C 1907 2809 1900 2803 1824 2707 
C 1804 2681 1747 2617 1728 2592 
C 1523 2809 1235 2816 1126 2816 
C 416 2816 160 2444 160 2073 
C 160 1497 812 1363 998 1324 
C 1401 1241 1542 1216 1676 1100 
C 1760 1024 1900 883 1900 652 
C 1900 384 1747 38 1158 38 
C 601 38 403 460 288 1024 
C 268 1113 268 1120 217 1120 
C 166 1120 160 1113 160 985 
L 160 64 
C 160 -52 166 -58 204 -58 
C 236 -58 243 -52 275 0 
C 313 57 409 211 448 275 
C 576 102 800 -64 1158 -64 
C 1792 -64 2131 281 2131 780 
C 2131 1107 1958 1280 1875 1356 
C 1683 1555 1459 1600 1190 1651 
C 838 1728 390 1817 390 2208 
C 390 2374 480 2726 1126 2726 
C 1811 2726 1849 2086 1862 1881 
C 1868 1849 1900 1843 1920 1843 
C 1977 1843 1977 1862 1977 1971 
L 1977 2688 
z
" transform="scale(0.015625)"/>
       <path id="CMR17-5f" d="M 915 4800 
L 89 4800 
L 89 4575 
L 691 4575 
L 691 -1376 
L 89 -1376 
L 89 -1600 
L 915 -1600 
L 915 4800 
z
" transform="scale(0.015625)"/>
      </defs>
      <use xlink:href="#CMMI12-75" transform="scale(0.996264)"/>
      <use xlink:href="#CMR17-5d" transform="translate(66.455443 0) scale(0.996264)"/>
      <use xlink:href="#CMR17-70" transform="translate(91.326501 0) scale(0.996264)"/>
      <use xlink:href="#CMR17-75" transform="translate(142.221871 0) scale(0.996264)"/>
      <use xlink:href="#CMR17-5f" transform="translate(178.023209 0) scale(0.996264)"/>
     </g>
    </g>
   </g>
   <g id="matplotlib.axis_2">
    <g id="ytick_1">
     <g id="line2d_13">
      <path d="M 71.401397 279.628297 
L 529.410961 279.628297 
" clip-path="url(#p8fe1cb883b)" style="fill: none; stroke: #b0b0b0; stroke-width: 0.8; stroke-linecap: square"/>
     </g>
     <g id="line2d_14">
      <defs>
       <path id="mc21711ff80" d="M 0 0 
L -3.5 0 
" style="stroke: #000000; stroke-width: 0.8"/>
      </defs>
      <g>
       <use xlink:href="#mc21711ff80" x="71.401397" y="279.628297" style="stroke: #000000; stroke-width: 0.8"/>
      </g>
     </g>
     <g id="text_8">
      <!-- $\mathdefault{−100}$ -->
      <g transform="translate(33.067696 284.471235) scale(0.14 -0.14)">
       <defs>
        <path id="CMSY10-1" d="M 4217 1472 
C 4326 1472 4441 1472 4441 1600 
C 4441 1728 4326 1728 4217 1728 
L 755 1728 
C 646 1728 531 1728 531 1600 
C 531 1472 646 1472 755 1472 
L 4217 1472 
z
" transform="scale(0.015625)"/>
       </defs>
       <use xlink:href="#CMSY10-1" transform="scale(0.996264)"/>
       <use xlink:href="#CMR17-33" transform="translate(77.487468 0) scale(0.996264)"/>
       <use xlink:href="#CMR17-32" transform="translate(123.177945 0) scale(0.996264)"/>
       <use xlink:href="#CMR17-32" transform="translate(168.868422 0) scale(0.996264)"/>
      </g>
     </g>
    </g>
    <g id="ytick_2">
     <g id="line2d_15">
      <path d="M 71.401397 248.362618 
L 529.410961 248.362618 
" clip-path="url(#p8fe1cb883b)" style="fill: none; stroke: #b0b0b0; stroke-width: 0.8; stroke-linecap: square"/>
     </g>
     <g id="line2d_16">
      <g>
       <use xlink:href="#mc21711ff80" x="71.401397" y="248.362618" style="stroke: #000000; stroke-width: 0.8"/>
      </g>
     </g>
     <g id="text_9">
      <!-- $\mathdefault{0}$ -->
      <g transform="translate(57.572909 253.205556) scale(0.14 -0.14)">
       <use xlink:href="#CMR17-32" transform="scale(0.996264)"/>
      </g>
     </g>
    </g>
    <g id="ytick_3">
     <g id="line2d_17">
      <path d="M 71.401397 217.096939 
L 529.410961 217.096939 
" clip-path="url(#p8fe1cb883b)" style="fill: none; stroke: #b0b0b0; stroke-width: 0.8; stroke-linecap: square"/>
     </g>
     <g id="line2d_18">
      <g>
       <use xlink:href="#mc21711ff80" x="71.401397" y="217.096939" style="stroke: #000000; stroke-width: 0.8"/>
      </g>
     </g>
     <g id="text_10">
      <!-- $\mathdefault{100}$ -->
      <g transform="translate(43.915931 221.939877) scale(0.14 -0.14)">
       <use xlink:href="#CMR17-33" transform="scale(0.996264)"/>
       <use xlink:href="#CMR17-32" transform="translate(45.690477 0) scale(0.996264)"/>
       <use xlink:href="#CMR17-32" transform="translate(91.380954 0) scale(0.996264)"/>
      </g>
     </g>
    </g>
    <g id="ytick_4">
     <g id="line2d_19">
      <path d="M 71.401397 185.83126 
L 529.410961 185.83126 
" clip-path="url(#p8fe1cb883b)" style="fill: none; stroke: #b0b0b0; stroke-width: 0.8; stroke-linecap: square"/>
     </g>
     <g id="line2d_20">
      <g>
       <use xlink:href="#mc21711ff80" x="71.401397" y="185.83126" style="stroke: #000000; stroke-width: 0.8"/>
      </g>
     </g>
     <g id="text_11">
      <!-- $\mathdefault{200}$ -->
      <g transform="translate(43.915931 190.674198) scale(0.14 -0.14)">
       <use xlink:href="#CMR17-34" transform="scale(0.996264)"/>
       <use xlink:href="#CMR17-32" transform="translate(45.690477 0) scale(0.996264)"/>
       <use xlink:href="#CMR17-32" transform="translate(91.380954 0) scale(0.996264)"/>
      </g>
     </g>
    </g>
    <g id="ytick_5">
     <g id="line2d_21">
      <path d="M 71.401397 154.565581 
L 529.410961 154.565581 
" clip-path="url(#p8fe1cb883b)" style="fill: none; stroke: #b0b0b0; stroke-width: 0.8; stroke-linecap: square"/>
     </g>
     <g id="line2d_22">
      <g>
       <use xlink:href="#mc21711ff80" x="71.401397" y="154.565581" style="stroke: #000000; stroke-width: 0.8"/>
      </g>
     </g>
     <g id="text_12">
      <!-- $\mathdefault{300}$ -->
      <g transform="translate(43.915931 159.408519) scale(0.14 -0.14)">
       <use xlink:href="#CMR17-35" transform="scale(0.996264)"/>
       <use xlink:href="#CMR17-32" transform="translate(45.690477 0) scale(0.996264)"/>
       <use xlink:href="#CMR17-32" transform="translate(91.380954 0) scale(0.996264)"/>
      </g>
     </g>
    </g>
    <g id="ytick_6">
     <g id="line2d_23">
      <path d="M 71.401397 123.299902 
L 529.410961 123.299902 
" clip-path="url(#p8fe1cb883b)" style="fill: none; stroke: #b0b0b0; stroke-width: 0.8; stroke-linecap: square"/>
     </g>
     <g id="line2d_24">
      <g>
       <use xlink:href="#mc21711ff80" x="71.401397" y="123.299902" style="stroke: #000000; stroke-width: 0.8"/>
      </g>
     </g>
     <g id="text_13">
      <!-- $\mathdefault{400}$ -->
      <g transform="translate(43.915931 128.142841) scale(0.14 -0.14)">
       <use xlink:href="#CMR17-36" transform="scale(0.996264)"/>
       <use xlink:href="#CMR17-32" transform="translate(45.690477 0) scale(0.996264)"/>
       <use xlink:href="#CMR17-32" transform="translate(91.380954 0) scale(0.996264)"/>
      </g>
     </g>
    </g>
    <g id="ytick_7">
     <g id="line2d_25">
      <path d="M 71.401397 92.034223 
L 529.410961 92.034223 
" clip-path="url(#p8fe1cb883b)" style="fill: none; stroke: #b0b0b0; stroke-width: 0.8; stroke-linecap: square"/>
     </g>
     <g id="line2d_26">
      <g>
       <use xlink:href="#mc21711ff80" x="71.401397" y="92.034223" style="stroke: #000000; stroke-width: 0.8"/>
      </g>
     </g>
     <g id="text_14">
      <!-- $\mathdefault{500}$ -->
      <g transform="translate(43.915931 96.877162) scale(0.14 -0.14)">
       <use xlink:href="#CMR17-37" transform="scale(0.996264)"/>
       <use xlink:href="#CMR17-32" transform="translate(45.690477 0) scale(0.996264)"/>
       <use xlink:href="#CMR17-32" transform="translate(91.380954 0) scale(0.996264)"/>
      </g>
     </g>
    </g>
    <g id="ytick_8">
     <g id="line2d_27">
      <path d="M 71.401397 60.768545 
L 529.410961 60.768545 
" clip-path="url(#p8fe1cb883b)" style="fill: none; stroke: #b0b0b0; stroke-width: 0.8; stroke-linecap: square"/>
     </g>
     <g id="line2d_28">
      <g>
       <use xlink:href="#mc21711ff80" x="71.401397" y="60.768545" style="stroke: #000000; stroke-width: 0.8"/>
      </g>
     </g>
     <g id="text_15">
      <!-- $\mathdefault{600}$ -->
      <g transform="translate(43.915931 65.611483) scale(0.14 -0.14)">
       <defs>
        <path id="CMR17-38" d="M 678 2198 
C 678 3712 1395 4076 1811 4076 
C 1945 4076 2272 4049 2400 3782 
C 2297 3782 2105 3782 2105 3558 
C 2105 3385 2246 3328 2336 3328 
C 2393 3328 2566 3353 2566 3571 
C 2566 3987 2246 4224 1804 4224 
C 1043 4224 243 3411 243 2011 
C 243 257 966 -128 1478 -128 
C 2099 -128 2688 431 2688 1295 
C 2688 2101 2169 2688 1516 2688 
C 1126 2688 838 2430 678 1979 
L 678 2198 
z
M 1478 25 
C 691 25 691 1212 691 1450 
C 691 1914 908 2585 1504 2585 
C 1612 2585 1926 2585 2137 2140 
C 2252 1889 2252 1624 2252 1302 
C 2252 954 2252 696 2118 438 
C 1977 173 1772 25 1478 25 
z
" transform="scale(0.015625)"/>
       </defs>
       <use xlink:href="#CMR17-38" transform="scale(0.996264)"/>
       <use xlink:href="#CMR17-32" transform="translate(45.690477 0) scale(0.996264)"/>
       <use xlink:href="#CMR17-32" transform="translate(91.380954 0) scale(0.996264)"/>
      </g>
     </g>
    </g>
    <g id="ytick_9">
     <g id="line2d_29">
      <path d="M 71.401397 29.502866 
L 529.410961 29.502866 
" clip-path="url(#p8fe1cb883b)" style="fill: none; stroke: #b0b0b0; stroke-width: 0.8; stroke-linecap: square"/>
     </g>
     <g id="line2d_30">
      <g>
       <use xlink:href="#mc21711ff80" x="71.401397" y="29.502866" style="stroke: #000000; stroke-width: 0.8"/>
      </g>
     </g>
     <g id="text_16">
      <!-- $\mathdefault{700}$ -->
      <g transform="translate(43.915931 34.345804) scale(0.14 -0.14)">
       <defs>
        <path id="CMR17-39" d="M 2886 3955 
L 2886 4096 
L 1382 4096 
C 633 4096 620 4166 595 4288 
L 480 4288 
L 294 3104 
L 409 3104 
C 428 3226 473 3552 550 3673 
C 588 3724 1062 3724 1171 3724 
L 2579 3724 
L 1868 2670 
C 1395 1961 1068 1003 1068 166 
C 1068 89 1068 -128 1299 -128 
C 1529 -128 1529 89 1529 172 
L 1529 466 
C 1529 1514 1708 2204 2003 2644 
L 2886 3955 
z
" transform="scale(0.015625)"/>
       </defs>
       <use xlink:href="#CMR17-39" transform="scale(0.996264)"/>
       <use xlink:href="#CMR17-32" transform="translate(45.690477 0) scale(0.996264)"/>
       <use xlink:href="#CMR17-32" transform="translate(91.380954 0) scale(0.996264)"/>
      </g>
     </g>
    </g>
    <g id="text_17">
     <!-- $I_\mr{DD}~\mr{[\mu A]}$ -->
     <g transform="translate(25.580772 176.380733) rotate(-90) scale(0.14 -0.14)">
      <defs>
       <path id="CMMI12-4a" d="M 2355 3879 
C 2412 4102 2425 4166 2892 4166 
C 3033 4166 3084 4166 3084 4287 
C 3084 4352 3014 4352 2995 4352 
C 2880 4352 2739 4339 2624 4339 
L 1836 4339 
C 1708 4339 1561 4352 1433 4352 
C 1382 4352 1312 4352 1312 4230 
C 1312 4166 1363 4166 1491 4166 
C 1888 4166 1888 4115 1888 4045 
C 1888 4000 1875 3962 1862 3905 
L 998 472 
C 940 249 928 185 460 185 
C 320 185 262 185 262 64 
C 262 0 326 0 358 0 
C 473 0 614 12 729 12 
L 1516 12 
C 1644 12 1785 0 1913 0 
C 1964 0 2041 0 2041 115 
C 2041 185 2003 185 1862 185 
C 1465 185 1465 236 1465 312 
C 1465 325 1465 357 1491 459 
L 2355 3879 
z
" transform="scale(0.015625)"/>
       <path id="CMR17-46" d="M 332 4352 
L 332 4185 
C 774 4185 844 4185 844 3898 
L 844 453 
C 844 166 774 166 332 166 
L 332 0 
L 2368 0 
C 3398 0 4224 943 4224 2140 
C 4224 3344 3411 4352 2368 4352 
L 332 4352 
z
M 1523 166 
C 1267 166 1254 198 1254 414 
L 1254 3936 
C 1254 4153 1267 4185 1523 4185 
L 2240 4185 
C 2771 4185 3750 3873 3750 2140 
C 3750 1242 3488 879 3366 707 
C 3212 510 2848 166 2240 166 
L 1523 166 
z
" transform="scale(0.015625)"/>
       <path id="StandardSymL-4d" d="M 2828 3200 
L 2259 3200 
L 2265 849 
C 2035 524 1817 384 1548 384 
C 1177 384 960 645 960 1091 
L 960 3200 
L 396 3200 
L 396 140 
C 396 6 371 -154 326 -346 
C 217 -743 211 -781 211 -929 
C 211 -1197 345 -1389 531 -1389 
C 716 -1389 844 -1197 844 -916 
C 844 -781 825 -698 723 -327 
C 659 -97 646 -33 646 147 
L 646 223 
C 915 -1 1062 -71 1280 -71 
C 1600 -71 1926 127 2265 524 
C 2316 319 2348 243 2412 147 
C 2508 -7 2681 -90 2867 -90 
C 3264 -90 3539 191 3629 685 
L 3456 692 
C 3430 448 3296 256 3148 256 
C 2956 256 2828 486 2828 833 
L 2828 3200 
z
" transform="scale(0.015625)"/>
       <path id="CMR17-43" d="M 2323 4441 
C 2291 4524 2278 4544 2214 4544 
C 2150 4544 2137 4524 2105 4441 
L 748 580 
C 627 236 371 166 147 166 
L 147 0 
C 262 12 518 12 640 12 
C 800 12 1056 12 1209 0 
L 1209 166 
C 908 179 864 382 864 459 
C 864 516 876 548 889 586 
L 1228 1536 
L 2905 1536 
L 3289 453 
C 3321 376 3321 363 3321 338 
C 3321 166 3046 166 2924 166 
L 2924 0 
C 3110 12 3443 12 3641 12 
C 3808 12 4128 12 4281 0 
L 4281 166 
C 3942 166 3827 166 3744 402 
L 2323 4441 
z
M 2067 3924 
L 2848 1702 
L 1286 1702 
L 2067 3924 
z
" transform="scale(0.015625)"/>
      </defs>
      <use xlink:href="#CMMI12-4a" transform="scale(0.996264)"/>
      <use xlink:href="#CMR17-46" transform="translate(43.024176 -14.943915) scale(0.697382)"/>
      <use xlink:href="#CMR17-46" transform="translate(92.299446 -14.943915) scale(0.697382)"/>
      <use xlink:href="#CMR17-5d" transform="translate(173.301961 0) scale(0.996264)"/>
      <use xlink:href="#StandardSymL-4d" transform="translate(198.173019 0) scale(0.896632)"/>
      <use xlink:href="#CMR17-43" transform="translate(249.819008 0) scale(0.996264)"/>
      <use xlink:href="#CMR17-5f" transform="translate(318.891437 0) scale(0.996264)"/>
     </g>
    </g>
   </g>
   <g id="line2d_31">
    <path d="M 71.401397 248.36261 
L 163.00331 248.36261 
L 163.094912 247.221046 
L 164.377339 247.210537 
L 165.293358 247.193702 
L 166.209377 246.816685 
L 167.125396 245.577038 
L 168.041415 243.016837 
L 168.957434 238.850455 
L 169.873453 233.237102 
L 171.476487 220.526377 
L 172.163501 214.341674 
L 172.255103 215.889901 
L 172.804715 216.081578 
L 177.201606 217.86722 
L 179.033645 218.766102 
L 180.865683 219.81107 
L 182.697721 221.045418 
L 184.529759 222.515083 
L 186.361798 224.257521 
L 188.193836 226.283782 
L 190.025874 228.559637 
L 194.60597 234.665462 
L 196.438008 236.961724 
L 198.270046 239.023948 
L 200.102085 240.810721 
L 201.934123 242.316418 
L 203.766161 243.555628 
L 205.598199 244.567047 
L 207.430238 245.378452 
L 209.262276 246.023835 
L 211.094314 246.533886 
L 213.842372 247.121001 
L 219.338486 247.784525 
L 228.498678 248.206859 
L 240.406926 248.322648 
L 246.81906 248.358217 
L 253.231194 248.349114 
L 259.643328 248.368545 
L 266.055462 248.353818 
L 272.467596 248.37 
L 278.87973 248.354869 
L 285.291864 248.369985 
L 291.703997 248.355297 
L 298.116131 248.369736 
L 304.528265 248.355609 
L 310.940399 248.369459 
L 319.184571 248.35593 
L 327.428743 248.369113 
L 335.672916 248.356268 
L 343.917088 248.368785 
L 352.16126 248.356587 
L 355.367327 248.356667 
L 355.458929 249.963705 
L 356.00854 250.192322 
L 356.741356 250.439062 
L 357.657375 250.555516 
L 358.573394 250.554676 
L 359.489413 250.277576 
L 362.23747 249.032113 
L 363.153489 248.888457 
L 363.840504 248.643619 
L 364.527518 248.578098 
L 364.61912 247.391212 
L 365.901547 247.501212 
L 368.649604 247.91303 
L 371.397662 248.271311 
L 374.145719 248.35573 
L 400.710274 248.35921 
L 416.282599 248.365713 
L 431.854924 248.359745 
L 449.259287 248.365233 
L 468.495689 248.36024 
L 489.564129 248.364716 
L 514.296646 248.360799 
L 529.410961 248.364235 
L 529.410961 248.364235 
" clip-path="url(#p8fe1cb883b)" style="fill: none; stroke: #0000ff; stroke-width: 1.5; stroke-linecap: square"/>
   </g>
   <g id="line2d_32">
    <path d="M 71.401397 248.362598 
L 163.00331 248.362598 
L 163.094912 244.904145 
L 163.278116 244.862762 
L 163.644523 244.918257 
L 165.293358 244.806205 
L 166.209377 243.463493 
L 167.125396 239.391122 
L 168.041415 231.313198 
L 168.957434 218.835337 
L 169.873453 202.58722 
L 172.163501 152.959918 
L 172.255103 157.936812 
L 173.53753 163.631515 
L 174.453549 168.654864 
L 175.369568 175.092485 
L 176.285587 182.847736 
L 179.949664 219.957193 
L 180.865683 227.12294 
L 181.781702 232.648 
L 182.697721 236.983312 
L 183.61374 240.08747 
L 184.529759 242.484411 
L 185.445779 244.101509 
L 186.361798 245.385531 
L 188.193836 246.875356 
L 190.025874 247.631812 
L 193.689951 248.203751 
L 194.60597 248.192704 
L 195.521989 248.299532 
L 196.438008 248.260942 
L 197.354027 248.347441 
L 198.270046 248.295261 
L 199.186066 248.371344 
L 200.102085 248.312571 
L 201.018104 248.383214 
L 201.934123 248.321353 
L 202.850142 248.389057 
L 203.766161 248.325858 
L 204.68218 248.391882 
L 205.598199 248.328217 
L 206.514219 248.393197 
L 207.430238 248.329499 
L 208.346257 248.393757 
L 209.262276 248.330239 
L 210.178295 248.39394 
L 211.094314 248.330706 
L 212.010333 248.393937 
L 212.926352 248.331034 
L 213.842372 248.393842 
L 214.758391 248.331291 
L 215.67441 248.393703 
L 216.590429 248.331511 
L 217.506448 248.393543 
L 218.422467 248.331711 
L 219.338486 248.393374 
L 220.254505 248.331899 
L 221.170525 248.393201 
L 222.086544 248.332081 
L 223.002563 248.393028 
L 223.918582 248.332258 
L 224.834601 248.392856 
L 225.75062 248.332431 
L 226.666639 248.392686 
L 227.582658 248.332601 
L 228.498678 248.392518 
L 229.414697 248.332769 
L 230.330716 248.392351 
L 231.246735 248.332935 
L 232.162754 248.392186 
L 233.078773 248.333099 
L 233.994792 248.392023 
L 234.910812 248.333261 
L 235.826831 248.391862 
L 236.74285 248.333422 
L 237.658869 248.391703 
L 238.574888 248.33358 
L 239.490907 248.391545 
L 240.406926 248.333738 
L 241.322945 248.391388 
L 242.238965 248.333893 
L 243.154984 248.391234 
L 244.071003 248.334047 
L 244.987022 248.39108 
L 245.903041 248.3342 
L 246.81906 248.390928 
L 247.735079 248.334351 
L 248.651098 248.390778 
L 249.567118 248.334501 
L 250.483137 248.390628 
L 251.399156 248.33465 
L 252.315175 248.39048 
L 254.147213 248.390333 
L 256.895271 248.335089 
L 259.643328 248.3899 
L 262.391385 248.335517 
L 265.139443 248.389476 
L 267.8875 248.335936 
L 270.635557 248.389062 
L 273.383615 248.336346 
L 276.131672 248.388656 
L 278.87973 248.336747 
L 281.627787 248.388259 
L 284.375844 248.33714 
L 287.123902 248.38787 
L 289.871959 248.337526 
L 292.620017 248.387489 
L 295.368074 248.337903 
L 298.116131 248.387115 
L 300.864189 248.338273 
L 303.612246 248.386748 
L 306.360303 248.338637 
L 309.108361 248.386389 
L 311.856418 248.338993 
L 314.604476 248.386036 
L 317.352533 248.339342 
L 320.10059 248.38569 
L 322.848648 248.339684 
L 325.596705 248.385351 
L 328.344763 248.34002 
L 331.09282 248.385018 
L 333.840877 248.34035 
L 336.588935 248.384692 
L 339.336992 248.340673 
L 342.085049 248.384372 
L 344.833107 248.34099 
L 347.581164 248.384057 
L 350.329222 248.341301 
L 353.077279 248.383749 
L 355.367327 248.34164 
L 355.458929 253.345574 
L 355.642133 253.819396 
L 356.741356 255.393961 
L 357.657375 255.829803 
L 358.573394 255.802259 
L 359.489413 254.894168 
L 360.405432 253.477995 
L 361.321451 251.83947 
L 362.23747 250.553037 
L 363.153489 250.214664 
L 363.840504 249.474722 
L 364.527518 249.349734 
L 364.61912 245.719756 
L 364.802324 245.721302 
L 365.901547 246.000024 
L 367.733585 246.561416 
L 370.481642 247.826102 
L 372.313681 248.215046 
L 375.977757 248.36485 
L 380.557853 248.349063 
L 385.137949 248.375022 
L 389.718044 248.350678 
L 394.29814 248.3741 
L 398.878235 248.351445 
L 403.458331 248.373451 
L 408.038427 248.352012 
L 412.618522 248.37294 
L 417.198618 248.352485 
L 421.778714 248.372495 
L 426.358809 248.35291 
L 430.938905 248.372084 
L 435.519001 248.35331 
L 441.015115 248.353542 
L 447.427249 248.37139 
L 453.839383 248.354067 
L 460.251517 248.370874 
L 466.663651 248.354574 
L 473.075785 248.370374 
L 479.487919 248.355067 
L 485.900053 248.369888 
L 492.312186 248.355547 
L 498.72432 248.369415 
L 506.968493 248.356078 
L 515.212665 248.368826 
L 523.456837 248.356657 
L 529.410961 248.368298 
L 529.410961 248.368298 
" clip-path="url(#p8fe1cb883b)" style="fill: none; stroke: #008000; stroke-width: 1.5; stroke-linecap: square"/>
   </g>
   <g id="line2d_33">
    <path d="M 71.401397 248.362567 
L 163.00331 248.362567 
L 163.094912 237.794675 
L 163.278116 237.680694 
L 163.644523 237.875168 
L 165.293358 237.562273 
L 166.209377 233.374635 
L 167.125396 221.253442 
L 168.041415 197.837511 
L 168.957434 162.896682 
L 171.476487 40.515781 
L 172.163501 27.441053 
L 172.255103 47.366863 
L 172.804715 85.477144 
L 173.53753 142.268213 
L 174.453549 197.291693 
L 175.369568 226.67401 
L 176.285587 239.363806 
L 177.201606 244.901404 
L 178.117626 246.840265 
L 179.033645 247.902749 
L 179.949664 248.036197 
L 180.865683 248.377732 
L 181.781702 248.224308 
L 182.697721 248.452003 
L 183.61374 248.253901 
L 184.529759 248.463564 
L 185.445779 248.25862 
L 186.361798 248.465311 
L 187.277817 248.259418 
L 188.193836 248.465538 
L 189.109855 248.259581 
L 190.025874 248.465543 
L 190.941893 248.259629 
L 191.857912 248.46553 
L 192.773932 248.259643 
L 193.689951 248.465528 
L 194.60597 248.259638 
L 195.521989 248.465541 
L 196.438008 248.259618 
L 197.354027 248.465568 
L 198.270046 248.259585 
L 199.186066 248.465607 
L 200.102085 248.25954 
L 201.018104 248.465658 
L 201.934123 248.259484 
L 202.850142 248.465719 
L 203.766161 248.259419 
L 204.68218 248.465789 
L 205.598199 248.259345 
L 206.514219 248.465867 
L 207.430238 248.259263 
L 208.346257 248.465952 
L 209.262276 248.259174 
L 210.178295 248.466044 
L 211.094314 248.259079 
L 212.010333 248.466142 
L 212.926352 248.258978 
L 213.842372 248.466246 
L 214.758391 248.258872 
L 215.67441 248.466354 
L 216.590429 248.258762 
L 217.506448 248.466466 
L 218.422467 248.258648 
L 219.338486 248.466581 
L 220.254505 248.258531 
L 221.170525 248.4667 
L 222.086544 248.258411 
L 223.002563 248.466822 
L 223.918582 248.258287 
L 224.834601 248.466946 
L 225.75062 248.258162 
L 226.666639 248.467073 
L 227.582658 248.258034 
L 228.498678 248.467201 
L 229.414697 248.257905 
L 230.330716 248.467331 
L 231.246735 248.257774 
L 232.162754 248.467463 
L 233.078773 248.257642 
L 233.994792 248.467596 
L 234.910812 248.257509 
L 235.826831 248.467729 
L 236.74285 248.257375 
L 237.658869 248.467864 
L 238.574888 248.25724 
L 239.490907 248.467999 
L 240.406926 248.257105 
L 241.322945 248.468134 
L 242.238965 248.256969 
L 243.154984 248.46827 
L 244.071003 248.256833 
L 244.987022 248.468407 
L 245.903041 248.256697 
L 246.81906 248.468543 
L 247.735079 248.25656 
L 248.651098 248.46868 
L 249.567118 248.256423 
L 250.483137 248.468816 
L 251.399156 248.256287 
L 252.315175 248.468953 
L 253.231194 248.25615 
L 254.147213 248.469089 
L 255.063232 248.256014 
L 255.979251 248.469225 
L 256.895271 248.255878 
L 257.81129 248.469361 
L 258.727309 248.255743 
L 259.643328 248.469497 
L 260.559347 248.255607 
L 261.475366 248.469632 
L 262.391385 248.255472 
L 263.307404 248.469766 
L 264.223424 248.255338 
L 265.139443 248.469901 
L 266.055462 248.255204 
L 266.971481 248.470035 
L 267.8875 248.25507 
L 268.803519 248.470168 
L 269.719538 248.254937 
L 270.635557 248.470301 
L 271.551577 248.254805 
L 272.467596 248.470433 
L 273.383615 248.254673 
L 274.299634 248.470565 
L 275.215653 248.254541 
L 276.131672 248.470696 
L 277.047691 248.25441 
L 277.963711 248.470826 
L 278.87973 248.25428 
L 279.795749 248.470956 
L 280.711768 248.254151 
L 281.627787 248.471085 
L 282.543806 248.254022 
L 283.459825 248.471214 
L 284.375844 248.253894 
L 285.291864 248.471342 
L 286.207883 248.253766 
L 287.123902 248.471469 
L 288.039921 248.253639 
L 288.95594 248.471596 
L 289.871959 248.253513 
L 290.787978 248.471721 
L 291.703997 248.253387 
L 292.620017 248.471847 
L 293.536036 248.253262 
L 294.452055 248.471971 
L 295.368074 248.253138 
L 296.284093 248.472095 
L 297.200112 248.253015 
L 298.116131 248.472218 
L 299.03215 248.252892 
L 299.94817 248.472341 
L 300.864189 248.25277 
L 301.780208 248.472463 
L 302.696227 248.252648 
L 303.612246 248.472584 
L 304.528265 248.252527 
L 305.444284 248.472704 
L 306.360303 248.252407 
L 307.276323 248.472824 
L 308.192342 248.252288 
L 309.108361 248.472943 
L 310.02438 248.252169 
L 310.940399 248.473061 
L 311.856418 248.252051 
L 312.772437 248.473179 
L 313.688457 248.251934 
L 314.604476 248.473296 
L 315.520495 248.251817 
L 316.436514 248.473412 
L 317.352533 248.251702 
L 318.268552 248.473528 
L 319.184571 248.251586 
L 320.10059 248.473643 
L 321.01661 248.251472 
L 321.932629 248.473757 
L 322.848648 248.251358 
L 323.764667 248.47387 
L 324.680686 248.251245 
L 325.596705 248.473983 
L 326.512724 248.251132 
L 327.428743 248.474095 
L 328.344763 248.25102 
L 329.260782 248.474207 
L 330.176801 248.250909 
L 331.09282 248.474318 
L 332.008839 248.250799 
L 332.924858 248.474428 
L 333.840877 248.250689 
L 334.756896 248.474537 
L 335.672916 248.250579 
L 336.588935 248.474646 
L 337.504954 248.250471 
L 338.420973 248.474755 
L 339.336992 248.250363 
L 340.253011 248.474862 
L 341.16903 248.250256 
L 342.085049 248.474969 
L 343.001069 248.250149 
L 343.917088 248.475075 
L 344.833107 248.250043 
L 345.749126 248.475181 
L 346.665145 248.249938 
L 347.581164 248.475286 
L 348.497183 248.249833 
L 349.413203 248.47539 
L 350.329222 248.249729 
L 351.245241 248.475494 
L 352.16126 248.249626 
L 353.077279 248.475597 
L 353.993298 248.249523 
L 354.680312 248.475717 
L 355.367327 248.249387 
L 355.458929 264.331065 
L 355.642133 266.667024 
L 356.00854 269.522331 
L 356.741356 273.020833 
L 357.657375 273.862107 
L 358.573394 273.280021 
L 359.489413 270.403248 
L 360.405432 265.999883 
L 361.321451 260.373721 
L 362.23747 255.868149 
L 363.153489 254.697006 
L 363.840504 252.775896 
L 364.527518 252.186347 
L 364.61912 241.095727 
L 364.802324 241.07662 
L 365.168732 241.415848 
L 365.901547 241.734435 
L 368.649604 243.784049 
L 369.565623 244.696534 
L 370.481642 245.893659 
L 372.313681 247.484131 
L 374.145719 248.11727 
L 375.061738 248.15925 
L 375.977757 248.318684 
L 376.893776 248.272048 
L 377.809795 248.378927 
L 378.725815 248.306582 
L 379.641834 248.396254 
L 380.557853 248.317405 
L 381.473872 248.400852 
L 382.389891 248.321133 
L 383.30591 248.401723 
L 384.221929 248.322705 
L 385.137949 248.401538 
L 386.053968 248.323593 
L 386.969987 248.40108 
L 387.886006 248.324241 
L 388.802025 248.400576 
L 389.718044 248.324786 
L 390.634063 248.400089 
L 391.550082 248.325271 
L 392.466102 248.399633 
L 393.382121 248.325716 
L 394.29814 248.399208 
L 395.214159 248.326127 
L 396.130178 248.398811 
L 397.046197 248.326512 
L 397.962216 248.398439 
L 398.878235 248.326873 
L 399.794255 248.398088 
L 400.710274 248.327214 
L 401.626293 248.397756 
L 402.542312 248.327538 
L 403.458331 248.39744 
L 404.37435 248.327848 
L 405.290369 248.397137 
L 406.206388 248.328144 
L 407.122408 248.396846 
L 408.038427 248.32843 
L 408.954446 248.396565 
L 409.870465 248.328706 
L 410.786484 248.396293 
L 411.702503 248.328974 
L 412.618522 248.396029 
L 413.534541 248.329234 
L 414.450561 248.395772 
L 415.36658 248.329489 
L 416.282599 248.39552 
L 417.198618 248.329738 
L 418.114637 248.395274 
L 419.030656 248.329982 
L 419.946675 248.395032 
L 420.862694 248.330222 
L 421.778714 248.394794 
L 422.694733 248.330458 
L 423.610752 248.394559 
L 424.526771 248.330691 
L 425.44279 248.394328 
L 426.358809 248.330921 
L 427.274828 248.394099 
L 428.190848 248.331148 
L 429.106867 248.393873 
L 430.022886 248.331373 
L 430.938905 248.393649 
L 431.854924 248.331596 
L 432.770943 248.393427 
L 433.686962 248.331817 
L 434.602981 248.393207 
L 435.519001 248.332036 
L 436.43502 248.392989 
L 437.351039 248.332254 
L 438.267058 248.392772 
L 439.183077 248.33247 
L 440.099096 248.392557 
L 441.015115 248.332684 
L 441.931134 248.392343 
L 442.847154 248.332898 
L 443.763173 248.39213 
L 444.679192 248.33311 
L 445.595211 248.391919 
L 446.51123 248.333321 
L 447.427249 248.391708 
L 448.343268 248.33353 
L 449.259287 248.391499 
L 450.175307 248.333739 
L 451.091326 248.391291 
L 452.007345 248.333947 
L 452.923364 248.391084 
L 453.839383 248.334154 
L 454.755402 248.390878 
L 455.671421 248.334359 
L 456.58744 248.390672 
L 457.50346 248.334564 
L 458.419479 248.390468 
L 460.251517 248.390264 
L 462.999574 248.335173 
L 465.747632 248.389659 
L 468.495689 248.335775 
L 471.243747 248.389061 
L 473.991804 248.336369 
L 476.739861 248.388471 
L 479.487919 248.336956 
L 482.235976 248.387887 
L 484.984033 248.337537 
L 487.732091 248.38731 
L 490.480148 248.33811 
L 493.228206 248.38674 
L 495.976263 248.338677 
L 498.72432 248.386176 
L 501.472378 248.339238 
L 504.220435 248.385618 
L 506.968493 248.339792 
L 509.71655 248.385067 
L 512.464607 248.34034 
L 515.212665 248.384523 
L 517.960722 248.340881 
L 520.708779 248.383984 
L 523.456837 248.341417 
L 526.204894 248.383452 
L 528.723947 248.341975 
L 529.410961 248.383042 
L 529.410961 248.383042 
" clip-path="url(#p8fe1cb883b)" style="fill: none; stroke: #ff0000; stroke-width: 1.5; stroke-linecap: square"/>
   </g>
   <g id="patch_3">
    <path d="M 71.401397 286.18316 
L 71.401397 15.12 
" style="fill: none; stroke: #000000; stroke-width: 0.8; stroke-linejoin: miter; stroke-linecap: square"/>
   </g>
   <g id="patch_4">
    <path d="M 529.410961 286.18316 
L 529.410961 15.12 
" style="fill: none; stroke: #000000; stroke-width: 0.8; stroke-linejoin: miter; stroke-linecap: square"/>
   </g>
   <g id="patch_5">
    <path d="M 71.401397 286.18316 
L 529.410961 286.18316 
" style="fill: none; stroke: #000000; stroke-width: 0.8; stroke-linejoin: miter; stroke-linecap: square"/>
   </g>
   <g id="patch_6">
    <path d="M 71.401397 15.12 
L 529.410961 15.12 
" style="fill: none; stroke: #000000; stroke-width: 0.8; stroke-linejoin: miter; stroke-linecap: square"/>
   </g>
   <g id="axes_2">
    <g id="patch_7">
     <path d="M 300.406179 199.442949 
L 460.709527 199.442949 
L 460.709527 104.570843 
L 300.406179 104.570843 
z
" style="fill: #ffffff"/>
    </g>
    <g id="matplotlib.axis_3">
     <g id="xtick_7">
      <g id="line2d_34">
       <path d="M 300.406179 199.442949 
L 300.406179 104.570843 
" clip-path="url(#p2d9c21b813)" style="fill: none; stroke: #b0b0b0; stroke-width: 0.8; stroke-linecap: square"/>
      </g>
      <g id="line2d_35">
       <g>
        <use xlink:href="#m74e18bda1d" x="300.406179" y="199.442949" style="stroke: #000000; stroke-width: 0.8"/>
       </g>
      </g>
      <g id="text_18">
       <!-- $\mathdefault{3.0}$ -->
       <g transform="translate(291.680888 216.128825) scale(0.14 -0.14)">
        <defs>
         <path id="CMMI12-3b" d="M 1177 307 
C 1177 492 1024 620 870 620 
C 684 620 556 467 556 313 
C 556 128 710 0 864 0 
C 1049 0 1177 153 1177 307 
z
" transform="scale(0.015625)"/>
        </defs>
        <use xlink:href="#CMR17-35" transform="scale(0.996264)"/>
        <use xlink:href="#CMMI12-3b" transform="translate(45.690477 0) scale(0.996264)"/>
        <use xlink:href="#CMR17-32" transform="translate(72.787654 0) scale(0.996264)"/>
       </g>
      </g>
     </g>
     <g id="xtick_8">
      <g id="line2d_36">
       <path d="M 380.557853 199.442949 
L 380.557853 104.570843 
" clip-path="url(#p2d9c21b813)" style="fill: none; stroke: #b0b0b0; stroke-width: 0.8; stroke-linecap: square"/>
      </g>
      <g id="line2d_37">
       <g>
        <use xlink:href="#m74e18bda1d" x="380.557853" y="199.442949" style="stroke: #000000; stroke-width: 0.8"/>
       </g>
      </g>
      <g id="text_19">
       <!-- $\mathdefault{3.2}$ -->
       <g transform="translate(371.832562 216.128825) scale(0.14 -0.14)">
        <use xlink:href="#CMR17-35" transform="scale(0.996264)"/>
        <use xlink:href="#CMMI12-3b" transform="translate(45.690477 0) scale(0.996264)"/>
        <use xlink:href="#CMR17-34" transform="translate(72.787654 0) scale(0.996264)"/>
       </g>
      </g>
     </g>
     <g id="xtick_9">
      <g id="line2d_38">
       <path d="M 460.709527 199.442949 
L 460.709527 104.570843 
" clip-path="url(#p2d9c21b813)" style="fill: none; stroke: #b0b0b0; stroke-width: 0.8; stroke-linecap: square"/>
      </g>
      <g id="line2d_39">
       <g>
        <use xlink:href="#m74e18bda1d" x="460.709527" y="199.442949" style="stroke: #000000; stroke-width: 0.8"/>
       </g>
      </g>
      <g id="text_20">
       <!-- $\mathdefault{3.4}$ -->
       <g transform="translate(451.984236 216.128825) scale(0.14 -0.14)">
        <use xlink:href="#CMR17-35" transform="scale(0.996264)"/>
        <use xlink:href="#CMMI12-3b" transform="translate(45.690477 0) scale(0.996264)"/>
        <use xlink:href="#CMR17-36" transform="translate(72.787654 0) scale(0.996264)"/>
       </g>
      </g>
     </g>
    </g>
    <g id="matplotlib.axis_4">
     <g id="ytick_10">
      <g id="line2d_40">
       <path d="M 300.406179 199.442949 
L 460.709527 199.442949 
" clip-path="url(#p2d9c21b813)" style="fill: none; stroke: #b0b0b0; stroke-width: 0.8; stroke-linecap: square"/>
      </g>
      <g id="line2d_41">
       <g>
        <use xlink:href="#mc21711ff80" x="300.406179" y="199.442949" style="stroke: #000000; stroke-width: 0.8"/>
       </g>
      </g>
      <g id="text_21">
       <!-- $\mathdefault{−100}$ -->
       <g transform="translate(262.072478 204.285887) scale(0.14 -0.14)">
        <use xlink:href="#CMSY10-1" transform="scale(0.996264)"/>
        <use xlink:href="#CMR17-33" transform="translate(77.487468 0) scale(0.996264)"/>
        <use xlink:href="#CMR17-32" transform="translate(123.177945 0) scale(0.996264)"/>
        <use xlink:href="#CMR17-32" transform="translate(168.868422 0) scale(0.996264)"/>
       </g>
      </g>
     </g>
     <g id="ytick_11">
      <g id="line2d_42">
       <path d="M 300.406179 167.818913 
L 460.709527 167.818913 
" clip-path="url(#p2d9c21b813)" style="fill: none; stroke: #b0b0b0; stroke-width: 0.8; stroke-linecap: square"/>
      </g>
      <g id="line2d_43">
       <g>
        <use xlink:href="#mc21711ff80" x="300.406179" y="167.818913" style="stroke: #000000; stroke-width: 0.8"/>
       </g>
      </g>
      <g id="text_22">
       <!-- $\mathdefault{−50}$ -->
       <g transform="translate(268.900967 172.661852) scale(0.14 -0.14)">
        <use xlink:href="#CMSY10-1" transform="scale(0.996264)"/>
        <use xlink:href="#CMR17-37" transform="translate(77.487468 0) scale(0.996264)"/>
        <use xlink:href="#CMR17-32" transform="translate(123.177945 0) scale(0.996264)"/>
       </g>
      </g>
     </g>
     <g id="ytick_12">
      <g id="line2d_44">
       <path d="M 300.406179 136.194878 
L 460.709527 136.194878 
" clip-path="url(#p2d9c21b813)" style="fill: none; stroke: #b0b0b0; stroke-width: 0.8; stroke-linecap: square"/>
      </g>
      <g id="line2d_45">
       <g>
        <use xlink:href="#mc21711ff80" x="300.406179" y="136.194878" style="stroke: #000000; stroke-width: 0.8"/>
       </g>
      </g>
      <g id="text_23">
       <!-- $\mathdefault{0}$ -->
       <g transform="translate(286.577691 141.037816) scale(0.14 -0.14)">
        <use xlink:href="#CMR17-32" transform="scale(0.996264)"/>
       </g>
      </g>
     </g>
     <g id="ytick_13">
      <g id="line2d_46">
       <path d="M 300.406179 104.570843 
L 460.709527 104.570843 
" clip-path="url(#p2d9c21b813)" style="fill: none; stroke: #b0b0b0; stroke-width: 0.8; stroke-linecap: square"/>
      </g>
      <g id="line2d_47">
       <g>
        <use xlink:href="#mc21711ff80" x="300.406179" y="104.570843" style="stroke: #000000; stroke-width: 0.8"/>
       </g>
      </g>
      <g id="text_24">
       <!-- $\mathdefault{50}$ -->
       <g transform="translate(279.749202 109.413781) scale(0.14 -0.14)">
        <use xlink:href="#CMR17-37" transform="scale(0.996264)"/>
        <use xlink:href="#CMR17-32" transform="translate(45.690477 0) scale(0.996264)"/>
       </g>
      </g>
     </g>
    </g>
    <g id="line2d_48">
     <path d="M -1 136.188018 
L 9.856362 136.209909 
L 21.879113 136.179501 
L 33.901864 136.209781 
L 45.924615 136.179861 
L 57.947366 136.209583 
L 69.970117 136.180165 
L 81.992868 136.209356 
L 94.015619 136.18044 
L 106.03837 136.209118 
L 118.061121 136.1807 
L 130.083873 136.208878 
L 142.106624 136.180949 
L 158.136958 136.181111 
L 178.174877 136.208402 
L 198.212795 136.181505 
L 218.250714 136.208017 
L 238.288632 136.181885 
L 258.32655 136.207643 
L 278.364469 136.182253 
L 298.402387 136.207282 
L 318.440306 136.182609 
L 337.476328 136.20692 
L 340.482016 136.18284 
L 340.882774 139.433755 
L 341.684291 139.654054 
L 346.493392 140.395365 
L 350.500975 140.630944 
L 354.508559 140.629243 
L 358.516143 140.068692 
L 370.538894 137.549216 
L 374.546477 137.258611 
L 377.552165 136.763323 
L 380.557853 136.630777 
L 380.958611 134.229798 
L 383.363161 134.332544 
L 390.576812 134.67981 
L 394.584396 134.923948 
L 402.599563 135.602806 
L 406.607147 135.876517 
L 414.622314 136.114407 
L 446.682984 136.202989 
L 474.736069 136.187048 
L 502.789155 136.202189 
L 530.842241 136.187895 
L 548.945205 136.195075 
L 548.945205 136.195075 
" clip-path="url(#p2d9c21b813)" style="fill: none; stroke: #0000ff; stroke-width: 1.5; stroke-linecap: square"/>
    </g>
    <g id="line2d_49">
     <path d="M -1 136.172837 
L 1.841195 136.247282 
L 5.848778 136.142544 
L 9.856362 136.247014 
L 13.863946 136.142811 
L 17.871529 136.246748 
L 21.879113 136.143076 
L 25.886697 136.246484 
L 29.89428 136.143339 
L 33.901864 136.246222 
L 37.909448 136.143601 
L 41.917031 136.245961 
L 45.924615 136.14386 
L 49.932199 136.245702 
L 53.939783 136.144118 
L 57.947366 136.245445 
L 61.95495 136.144375 
L 65.962534 136.24519 
L 69.970117 136.144629 
L 73.977701 136.244936 
L 77.985285 136.144882 
L 81.992868 136.244684 
L 86.000452 136.145134 
L 90.008036 136.244433 
L 94.015619 136.145383 
L 98.023203 136.244185 
L 102.030787 136.145631 
L 106.03837 136.243937 
L 110.045954 136.145878 
L 114.053538 136.243692 
L 118.061121 136.146122 
L 122.068705 136.243448 
L 126.076289 136.146366 
L 130.083873 136.243205 
L 134.091456 136.146607 
L 138.09904 136.242964 
L 142.106624 136.146847 
L 146.114207 136.242725 
L 150.121791 136.147086 
L 154.129375 136.242487 
L 158.136958 136.147323 
L 162.144542 136.242251 
L 166.152126 136.147558 
L 170.159709 136.242017 
L 174.167293 136.147792 
L 178.174877 136.241783 
L 182.18246 136.148025 
L 186.190044 136.241552 
L 190.197628 136.148256 
L 194.205212 136.241321 
L 198.212795 136.148485 
L 202.220379 136.241093 
L 206.227963 136.148713 
L 210.235546 136.240865 
L 214.24313 136.14894 
L 218.250714 136.24064 
L 222.258297 136.149165 
L 226.265881 136.240415 
L 230.273465 136.149388 
L 234.281048 136.240192 
L 238.288632 136.149611 
L 242.296216 136.239971 
L 246.303799 136.149831 
L 250.311383 136.239751 
L 254.318967 136.150051 
L 258.32655 136.239532 
L 262.334134 136.150269 
L 266.341718 136.239315 
L 270.349302 136.150485 
L 274.356885 136.239099 
L 278.364469 136.150701 
L 282.372053 136.238884 
L 286.379636 136.150914 
L 290.38722 136.238671 
L 294.394804 136.151127 
L 298.402387 136.238459 
L 302.409971 136.151338 
L 306.417555 136.238249 
L 310.425138 136.151548 
L 314.432722 136.23804 
L 318.440306 136.151756 
L 322.447889 136.237832 
L 326.455473 136.151964 
L 330.463057 136.237625 
L 334.47064 136.152169 
L 337.476328 136.237386 
L 340.482016 136.152442 
L 340.882774 146.275017 
L 341.684291 147.233521 
L 343.287325 148.415499 
L 346.493392 150.418745 
L 350.500975 151.30042 
L 354.508559 151.244701 
L 358.516143 149.407704 
L 362.523726 146.542895 
L 366.53131 143.228283 
L 370.538894 140.625928 
L 374.546477 139.941425 
L 377.552165 138.44458 
L 380.557853 138.191738 
L 380.958611 130.848572 
L 381.760128 130.851698 
L 383.363161 131.118743 
L 386.569228 131.415533 
L 394.584396 132.551186 
L 402.599563 134.288726 
L 406.607147 135.109548 
L 414.622314 135.896352 
L 430.652649 136.199393 
L 442.6754 136.164412 
L 454.698151 136.220616 
L 466.720902 136.169371 
L 478.743653 136.219543 
L 490.766404 136.170726 
L 502.789155 136.218422 
L 514.811906 136.171722 
L 526.834657 136.217533 
L 538.857408 136.172528 
L 548.945205 136.195537 
L 548.945205 136.195537 
" clip-path="url(#p2d9c21b813)" style="fill: none; stroke: #008000; stroke-width: 1.5; stroke-linecap: square"/>
    </g>
    <g id="line2d_50">
     <path d="M -1 136.1034 
L 1.841195 136.413775 
L 5.848778 135.975719 
L 9.856362 136.414038 
L 13.863946 135.975457 
L 17.871529 136.414299 
L 21.879113 135.975197 
L 25.886697 136.414559 
L 29.89428 135.974937 
L 33.901864 136.414818 
L 37.909448 135.974679 
L 41.917031 136.415075 
L 45.924615 135.974422 
L 49.932199 136.415332 
L 53.939783 135.974167 
L 57.947366 136.415586 
L 61.95495 135.973913 
L 65.962534 136.41584 
L 69.970117 135.97366 
L 73.977701 136.416092 
L 77.985285 135.973409 
L 81.992868 136.416342 
L 86.000452 135.973159 
L 90.008036 136.416591 
L 94.015619 135.972911 
L 98.023203 136.416839 
L 102.030787 135.972664 
L 106.03837 136.417085 
L 110.045954 135.972418 
L 114.053538 136.41733 
L 118.061121 135.972174 
L 122.068705 136.417574 
L 126.076289 135.971931 
L 130.083873 136.417816 
L 134.091456 135.971689 
L 138.09904 136.418057 
L 142.106624 135.971449 
L 146.114207 136.418296 
L 150.121791 135.971211 
L 154.129375 136.418534 
L 158.136958 135.970973 
L 162.144542 136.418771 
L 166.152126 135.970737 
L 170.159709 136.419006 
L 174.167293 135.970503 
L 178.174877 136.41924 
L 182.18246 135.97027 
L 186.190044 136.419472 
L 190.197628 135.970038 
L 194.205212 136.419703 
L 198.212795 135.969808 
L 202.220379 136.419933 
L 206.227963 135.969579 
L 210.235546 136.420161 
L 214.24313 135.969351 
L 218.250714 136.420388 
L 222.258297 135.969125 
L 226.265881 136.420614 
L 230.273465 135.9689 
L 234.281048 136.420838 
L 238.288632 135.968676 
L 242.296216 136.421061 
L 246.303799 135.968454 
L 250.311383 136.421283 
L 254.318967 135.968233 
L 258.32655 136.421503 
L 262.334134 135.968013 
L 266.341718 136.421722 
L 270.349302 135.967795 
L 274.356885 136.42194 
L 278.364469 135.967578 
L 282.372053 136.422156 
L 286.379636 135.967363 
L 290.38722 136.422371 
L 294.394804 135.967148 
L 298.402387 136.422585 
L 302.409971 135.966935 
L 306.417555 136.422797 
L 310.425138 135.966723 
L 314.432722 136.423008 
L 318.440306 135.966513 
L 322.447889 136.423218 
L 326.455473 135.966304 
L 330.463057 136.423427 
L 334.47064 135.966096 
L 337.476328 136.423668 
L 340.482016 135.96582 
L 340.882774 168.497822 
L 341.684291 173.223288 
L 343.287325 178.999355 
L 346.493392 186.076556 
L 350.500975 187.77839 
L 354.508559 186.600874 
L 358.516143 180.781382 
L 362.523726 171.873712 
L 366.53131 160.492418 
L 370.538894 151.377992 
L 374.546477 149.00886 
L 377.552165 145.1226 
L 380.557853 143.929989 
L 380.958611 121.494516 
L 381.760128 121.455863 
L 383.363161 122.142096 
L 386.569228 122.786572 
L 390.576812 124.094214 
L 394.584396 125.130124 
L 402.599563 128.778672 
L 406.607147 131.200364 
L 410.614731 132.908307 
L 414.622314 134.417766 
L 422.637482 135.698559 
L 426.645065 135.78348 
L 430.652649 136.106003 
L 434.660233 136.011662 
L 438.667816 136.22787 
L 442.6754 136.081522 
L 446.682984 136.262922 
L 450.690567 136.103417 
L 454.698151 136.272223 
L 458.705735 136.110957 
L 462.713318 136.273986 
L 466.720902 136.114137 
L 470.728486 136.27361 
L 474.736069 136.115934 
L 478.743653 136.272684 
L 482.751237 136.117245 
L 486.758821 136.271665 
L 490.766404 136.118346 
L 494.773988 136.27068 
L 498.781572 136.119329 
L 502.789155 136.269757 
L 506.796739 136.120228 
L 510.804323 136.268897 
L 514.811906 136.121061 
L 518.81949 136.268094 
L 522.827074 136.121838 
L 526.834657 136.267341 
L 530.842241 136.122569 
L 534.849825 136.266632 
L 538.857408 136.123259 
L 542.864992 136.26596 
L 546.872576 136.123915 
L 548.945205 136.197046 
L 548.945205 136.197046 
" clip-path="url(#p2d9c21b813)" style="fill: none; stroke: #ff0000; stroke-width: 1.5; stroke-linecap: square"/>
    </g>
    <g id="patch_8">
     <path d="M 300.406179 199.442949 
L 300.406179 104.570843 
" style="fill: none; stroke: #000000; stroke-width: 0.8; stroke-linejoin: miter; stroke-linecap: square"/>
    </g>
    <g id="patch_9">
     <path d="M 460.709527 199.442949 
L 460.709527 104.570843 
" style="fill: none; stroke: #000000; stroke-width: 0.8; stroke-linejoin: miter; stroke-linecap: square"/>
    </g>
    <g id="patch_10">
     <path d="M 300.406179 199.442949 
L 460.709527 199.442949 
" style="fill: none; stroke: #000000; stroke-width: 0.8; stroke-linejoin: miter; stroke-linecap: square"/>
    </g>
    <g id="patch_11">
     <path d="M 300.406179 104.570843 
L 460.709527 104.570843 
" style="fill: none; stroke: #000000; stroke-width: 0.8; stroke-linejoin: miter; stroke-linecap: square"/>
    </g>
   </g>
   <g id="legend_1">
    <g id="patch_12">
     <path d="M 394.228623 90.674039 
L 519.610961 90.674039 
Q 522.410961 90.674039 522.410961 87.874039 
L 522.410961 24.92 
Q 522.410961 22.12 519.610961 22.12 
L 394.228623 22.12 
Q 391.428623 22.12 391.428623 24.92 
L 391.428623 87.874039 
Q 391.428623 90.674039 394.228623 90.674039 
z
" style="fill: #ffffff; opacity: 0.8; stroke: #cccccc; stroke-linejoin: miter"/>
    </g>
    <g id="line2d_51">
     <path d="M 397.028623 33.280772 
L 411.028623 33.280772 
L 425.028623 33.280772 
" style="fill: none; stroke: #0000ff; stroke-width: 1.5; stroke-linecap: square"/>
    </g>
    <g id="text_25">
     <!-- $W_\mr{p}/W_\mr{n}=0.5$ -->
     <g transform="translate(436.228623 38.180772) scale(0.14 -0.14)">
      <defs>
       <path id="CMMI12-58" d="M 5779 3644 
C 5926 3892 6067 4127 6451 4166 
C 6509 4172 6566 4179 6566 4281 
C 6566 4352 6509 4352 6489 4352 
C 6477 4352 6432 4339 6009 4339 
C 5817 4339 5619 4352 5433 4352 
C 5395 4352 5318 4352 5318 4230 
C 5318 4172 5369 4166 5408 4166 
C 5536 4159 5741 4121 5741 3924 
C 5741 3841 5715 3797 5651 3689 
L 3904 648 
L 3673 3962 
C 3673 4038 3744 4159 4102 4166 
C 4185 4166 4249 4166 4249 4287 
C 4249 4352 4185 4352 4153 4352 
C 3929 4352 3693 4339 3462 4339 
L 3129 4339 
C 3033 4339 2918 4352 2822 4352 
C 2784 4352 2707 4352 2707 4230 
C 2707 4166 2752 4166 2860 4166 
C 3155 4166 3155 4159 3180 3771 
L 3200 3542 
L 1542 648 
L 1305 3930 
C 1305 4000 1305 4159 1740 4166 
C 1811 4166 1881 4166 1881 4281 
C 1881 4352 1824 4352 1785 4352 
C 1561 4352 1324 4339 1094 4339 
L 761 4339 
C 665 4339 550 4352 454 4352 
C 416 4352 339 4352 339 4230 
C 339 4166 390 4166 480 4166 
C 780 4166 787 4127 800 3924 
L 1081 19 
C 1088 -90 1094 -128 1171 -128 
C 1235 -128 1248 -103 1305 -7 
L 3212 3307 
L 3449 19 
C 3456 -90 3462 -128 3539 -128 
C 3603 -128 3622 -96 3673 -7 
L 5779 3644 
z
" transform="scale(0.015625)"/>
       <path id="CMR17-72" d="M 1408 -1114 
C 998 -1114 972 -1088 972 -834 
L 972 380 
C 1158 109 1427 -64 1766 -64 
C 2406 -64 3052 503 3052 1382 
C 3052 2196 2496 2816 1836 2816 
C 1452 2816 1139 2603 960 2345 
L 960 2816 
L 198 2745 
L 198 2577 
C 576 2577 633 2539 633 2228 
L 633 -834 
C 633 -1081 608 -1114 198 -1114 
L 198 -1280 
C 352 -1268 633 -1268 800 -1268 
C 966 -1268 1254 -1268 1408 -1280 
L 1408 -1114 
z
M 972 2015 
C 972 2106 972 2241 1222 2481 
C 1254 2506 1472 2700 1792 2700 
C 2259 2700 2643 2112 2643 1376 
C 2643 639 2233 38 1728 38 
C 1497 38 1248 148 1056 451 
C 972 594 972 632 972 736 
L 972 2015 
z
" transform="scale(0.015625)"/>
       <path id="CMMI12-3e" d="M 2745 4563 
C 2745 4569 2784 4665 2784 4678 
C 2784 4755 2720 4800 2668 4800 
C 2636 4800 2579 4800 2528 4659 
L 384 -1364 
C 384 -1370 345 -1466 345 -1479 
C 345 -1556 409 -1600 460 -1600 
C 499 -1600 556 -1594 601 -1460 
L 2745 4563 
z
" transform="scale(0.015625)"/>
       <path id="CMR17-3f" d="M 4115 2048 
C 4211 2048 4307 2048 4307 2156 
C 4307 2272 4198 2272 4089 2272 
L 512 2272 
C 403 2272 294 2272 294 2156 
C 294 2048 390 2048 486 2048 
L 4115 2048 
z
M 4089 927 
C 4198 927 4307 927 4307 1043 
C 4307 1152 4211 1152 4115 1152 
L 486 1152 
C 390 1152 294 1152 294 1043 
C 294 927 403 927 512 927 
L 4089 927 
z
" transform="scale(0.015625)"/>
      </defs>
      <use xlink:href="#CMMI12-58" transform="scale(0.996264)"/>
      <use xlink:href="#CMR17-72" transform="translate(92.095909 -14.943915) scale(0.697382)"/>
      <use xlink:href="#CMMI12-3e" transform="translate(128.22065 0) scale(0.996264)"/>
      <use xlink:href="#CMMI12-58" transform="translate(176.995568 0) scale(0.996264)"/>
      <use xlink:href="#CMR17-70" transform="translate(269.091478 -14.943915) scale(0.697382)"/>
      <use xlink:href="#CMR17-3f" transform="translate(332.890227 0) scale(0.996264)"/>
      <use xlink:href="#CMR17-32" transform="translate(432.279024 0) scale(0.996264)"/>
      <use xlink:href="#CMMI12-3b" transform="translate(477.969501 0) scale(0.996264)"/>
      <use xlink:href="#CMR17-37" transform="translate(505.066678 0) scale(0.996264)"/>
     </g>
    </g>
    <g id="line2d_52">
     <path d="M 397.028623 54.732118 
L 411.028623 54.732118 
L 425.028623 54.732118 
" style="fill: none; stroke: #008000; stroke-width: 1.5; stroke-linecap: square"/>
    </g>
    <g id="text_26">
     <!-- $W_\mr{p}/W_\mr{n}=1.5$ -->
     <g transform="translate(436.228623 59.632118) scale(0.14 -0.14)">
      <use xlink:href="#CMMI12-58" transform="scale(0.996264)"/>
      <use xlink:href="#CMR17-72" transform="translate(92.095909 -14.943915) scale(0.697382)"/>
      <use xlink:href="#CMMI12-3e" transform="translate(128.22065 0) scale(0.996264)"/>
      <use xlink:href="#CMMI12-58" transform="translate(176.995568 0) scale(0.996264)"/>
      <use xlink:href="#CMR17-70" transform="translate(269.091478 -14.943915) scale(0.697382)"/>
      <use xlink:href="#CMR17-3f" transform="translate(332.890227 0) scale(0.996264)"/>
      <use xlink:href="#CMR17-33" transform="translate(432.279024 0) scale(0.996264)"/>
      <use xlink:href="#CMMI12-3b" transform="translate(477.969501 0) scale(0.996264)"/>
      <use xlink:href="#CMR17-37" transform="translate(505.066678 0) scale(0.996264)"/>
     </g>
    </g>
    <g id="line2d_53">
     <path d="M 397.028623 76.183465 
L 411.028623 76.183465 
L 425.028623 76.183465 
" style="fill: none; stroke: #ff0000; stroke-width: 1.5; stroke-linecap: square"/>
    </g>
    <g id="text_27">
     <!-- $W_\mr{p}/W_\mr{n}=4.5$ -->
     <g transform="translate(436.228623 81.083465) scale(0.14 -0.14)">
      <use xlink:href="#CMMI12-58" transform="scale(0.996264)"/>
      <use xlink:href="#CMR17-72" transform="translate(92.095909 -14.943915) scale(0.697382)"/>
      <use xlink:href="#CMMI12-3e" transform="translate(128.22065 0) scale(0.996264)"/>
      <use xlink:href="#CMMI12-58" transform="translate(176.995568 0) scale(0.996264)"/>
      <use xlink:href="#CMR17-70" transform="translate(269.091478 -14.943915) scale(0.697382)"/>
      <use xlink:href="#CMR17-3f" transform="translate(332.890227 0) scale(0.996264)"/>
      <use xlink:href="#CMR17-36" transform="translate(432.279024 0) scale(0.996264)"/>
      <use xlink:href="#CMMI12-3b" transform="translate(477.969501 0) scale(0.996264)"/>
      <use xlink:href="#CMR17-37" transform="translate(505.066678 0) scale(0.996264)"/>
     </g>
    </g>
   </g>
  </g>
 </g>
 <defs>
  <clipPath id="p8fe1cb883b">
   <rect x="71.401397" y="15.12" width="458.009564" height="271.06316"/>
  </clipPath>
  <clipPath id="p2d9c21b813">
   <rect x="300.406179" y="104.570843" width="160.303347" height="94.872106"/>
  </clipPath>
 </defs>
</svg>
