<?xml version="1.0" encoding="utf-8" standalone="no"?>
<!DOCTYPE svg PUBLIC "-//W3C//DTD SVG 1.1//EN"
  "http://www.w3.org/Graphics/SVG/1.1/DTD/svg11.dtd">
<svg xmlns:xlink="http://www.w3.org/1999/xlink" width="547.945205pt" height="338.648761pt" viewBox="0 0 547.945205 338.648761" xmlns="http://www.w3.org/2000/svg" version="1.1">
 <metadata>
  <rdf:RDF xmlns:dc="http://purl.org/dc/elements/1.1/" xmlns:cc="http://creativecommons.org/ns#" xmlns:rdf="http://www.w3.org/1999/02/22-rdf-syntax-ns#">
   <cc:Work>
    <dc:type rdf:resource="http://purl.org/dc/dcmitype/StillImage"/>
    <dc:date>2026-06-14T19:27:34.670854</dc:date>
    <dc:format>image/svg+xml</dc:format>
    <dc:creator>
     <cc:Agent>
      <dc:title>Matplotlib v3.11.0, https://matplotlib.org/</dc:title>
     </cc:Agent>
    </dc:creator>
   </cc:Work>
  </rdf:RDF>
 </metadata>
 <defs>
  <style type="text/css">*{stroke-linejoin: round; stroke-linecap: butt}</style>
 </defs>
 <g id="figure_1">
  <g id="patch_1">
   <path d="M 0 338.648761 
L 547.945205 338.648761 
L 547.945205 0 
L 0 0 
z
" style="fill: #ffffff"/>
  </g>
  <g id="axes_1">
   <g id="patch_2">
    <path d="M 57.518278 286.18316 
L 494.220532 286.18316 
L 494.220532 15.12 
L 57.518278 15.12 
z
" style="fill: #ffffff"/>
   </g>
   <g id="matplotlib.axis_1">
    <g id="xtick_1">
     <g id="line2d_1">
      <path d="M 77.368381 286.18316 
L 77.368381 15.12 
" clip-path="url(#pc613f4141f)" style="fill: none; stroke: #b0b0b0; stroke-width: 0.8; stroke-linecap: square"/>
     </g>
     <g id="line2d_2">
      <defs>
       <path id="m27949e5af6" d="M 0 0 
L 0 3.5 
" style="stroke: #000000; stroke-width: 0.8"/>
      </defs>
      <g>
       <use xlink:href="#m27949e5af6" x="77.368381" y="286.18316" style="stroke: #000000; stroke-width: 0.8"/>
      </g>
     </g>
     <g id="text_1">
      <!-- $\mathdefault{0.0}$ -->
      <g transform="translate(68.64309 302.869036) scale(0.14 -0.14)">
       <defs>
        <path id="CMR17-32" d="M 2688 2038 
C 2688 2430 2681 3099 2412 3613 
C 2176 4063 1798 4224 1465 4224 
C 1158 4224 768 4082 524 3620 
C 268 3137 243 2539 243 2038 
C 243 1671 249 1112 448 623 
C 723 -39 1216 -128 1465 -128 
C 1760 -128 2208 -7 2470 604 
C 2662 1048 2688 1568 2688 2038 
z
M 1465 -26 
C 1056 -26 812 328 723 816 
C 652 1196 652 1749 652 2109 
C 652 2604 652 3015 736 3407 
C 857 3954 1216 4121 1465 4121 
C 1728 4121 2067 3947 2188 3420 
C 2272 3054 2278 2623 2278 2109 
C 2278 1691 2278 1176 2201 797 
C 2067 96 1689 -26 1465 -26 
z
" transform="scale(0.015625)"/>
        <path id="CMMI12-3b" d="M 1177 307 
C 1177 492 1024 620 870 620 
C 684 620 556 467 556 313 
C 556 128 710 0 864 0 
C 1049 0 1177 153 1177 307 
z
" transform="scale(0.015625)"/>
       </defs>
       <use xlink:href="#CMR17-32" transform="scale(0.996264)"/>
       <use xlink:href="#CMMI12-3b" transform="translate(45.690477 0) scale(0.996264)"/>
       <use xlink:href="#CMR17-32" transform="translate(72.787654 0) scale(0.996264)"/>
      </g>
     </g>
    </g>
    <g id="xtick_2">
     <g id="line2d_3">
      <path d="M 143.535389 286.18316 
L 143.535389 15.12 
" clip-path="url(#pc613f4141f)" style="fill: none; stroke: #b0b0b0; stroke-width: 0.8; stroke-linecap: square"/>
     </g>
     <g id="line2d_4">
      <g>
       <use xlink:href="#m27949e5af6" x="143.535389" y="286.18316" style="stroke: #000000; stroke-width: 0.8"/>
      </g>
     </g>
     <g id="text_2">
      <!-- $\mathdefault{0.2}$ -->
      <g transform="translate(134.810098 302.869036) scale(0.14 -0.14)">
       <defs>
        <path id="CMR17-34" d="M 2668 990 
L 2553 990 
C 2489 537 2438 460 2412 422 
C 2380 371 1920 371 1830 371 
L 601 371 
C 832 620 1280 1073 1824 1596 
C 2214 1966 2668 2400 2668 3033 
C 2668 3788 2067 4224 1395 4224 
C 691 4224 262 3603 262 3027 
C 262 2777 448 2745 524 2745 
C 588 2745 780 2783 780 3007 
C 780 3206 614 3264 524 3264 
C 486 3264 448 3257 422 3244 
C 544 3788 915 4057 1305 4057 
C 1862 4057 2227 3616 2227 3033 
C 2227 2477 1900 1998 1536 1583 
L 262 147 
L 262 0 
L 2515 0 
L 2668 990 
z
" transform="scale(0.015625)"/>
       </defs>
       <use xlink:href="#CMR17-32" transform="scale(0.996264)"/>
       <use xlink:href="#CMMI12-3b" transform="translate(45.690477 0) scale(0.996264)"/>
       <use xlink:href="#CMR17-34" transform="translate(72.787654 0) scale(0.996264)"/>
      </g>
     </g>
    </g>
    <g id="xtick_3">
     <g id="line2d_5">
      <path d="M 209.702397 286.18316 
L 209.702397 15.12 
" clip-path="url(#pc613f4141f)" style="fill: none; stroke: #b0b0b0; stroke-width: 0.8; stroke-linecap: square"/>
     </g>
     <g id="line2d_6">
      <g>
       <use xlink:href="#m27949e5af6" x="209.702397" y="286.18316" style="stroke: #000000; stroke-width: 0.8"/>
      </g>
     </g>
     <g id="text_3">
      <!-- $\mathdefault{0.4}$ -->
      <g transform="translate(200.977106 302.869036) scale(0.14 -0.14)">
       <defs>
        <path id="CMR17-36" d="M 2150 4147 
C 2150 4281 2144 4288 2028 4288 
L 128 1254 
L 128 1088 
L 1779 1088 
L 1779 460 
C 1779 230 1766 166 1318 166 
L 1196 166 
L 1196 0 
C 1401 12 1747 12 1964 12 
C 2182 12 2528 12 2732 0 
L 2732 166 
L 2611 166 
C 2163 166 2150 230 2150 460 
L 2150 1088 
L 2803 1088 
L 2803 1254 
L 2150 1254 
L 2150 4147 
z
M 1798 3723 
L 1798 1254 
L 256 1254 
L 1798 3723 
z
" transform="scale(0.015625)"/>
       </defs>
       <use xlink:href="#CMR17-32" transform="scale(0.996264)"/>
       <use xlink:href="#CMMI12-3b" transform="translate(45.690477 0) scale(0.996264)"/>
       <use xlink:href="#CMR17-36" transform="translate(72.787654 0) scale(0.996264)"/>
      </g>
     </g>
    </g>
    <g id="xtick_4">
     <g id="line2d_7">
      <path d="M 275.869405 286.18316 
L 275.869405 15.12 
" clip-path="url(#pc613f4141f)" style="fill: none; stroke: #b0b0b0; stroke-width: 0.8; stroke-linecap: square"/>
     </g>
     <g id="line2d_8">
      <g>
       <use xlink:href="#m27949e5af6" x="275.869405" y="286.18316" style="stroke: #000000; stroke-width: 0.8"/>
      </g>
     </g>
     <g id="text_4">
      <!-- $\mathdefault{0.6}$ -->
      <g transform="translate(267.144114 302.869036) scale(0.14 -0.14)">
       <defs>
        <path id="CMR17-38" d="M 678 2198 
C 678 3712 1395 4076 1811 4076 
C 1945 4076 2272 4049 2400 3782 
C 2297 3782 2105 3782 2105 3558 
C 2105 3385 2246 3328 2336 3328 
C 2393 3328 2566 3353 2566 3571 
C 2566 3987 2246 4224 1804 4224 
C 1043 4224 243 3411 243 2011 
C 243 257 966 -128 1478 -128 
C 2099 -128 2688 431 2688 1295 
C 2688 2101 2169 2688 1516 2688 
C 1126 2688 838 2430 678 1979 
L 678 2198 
z
M 1478 25 
C 691 25 691 1212 691 1450 
C 691 1914 908 2585 1504 2585 
C 1612 2585 1926 2585 2137 2140 
C 2252 1889 2252 1624 2252 1302 
C 2252 954 2252 696 2118 438 
C 1977 173 1772 25 1478 25 
z
" transform="scale(0.015625)"/>
       </defs>
       <use xlink:href="#CMR17-32" transform="scale(0.996264)"/>
       <use xlink:href="#CMMI12-3b" transform="translate(45.690477 0) scale(0.996264)"/>
       <use xlink:href="#CMR17-38" transform="translate(72.787654 0) scale(0.996264)"/>
      </g>
     </g>
    </g>
    <g id="xtick_5">
     <g id="line2d_9">
      <path d="M 342.036413 286.18316 
L 342.036413 15.12 
" clip-path="url(#pc613f4141f)" style="fill: none; stroke: #b0b0b0; stroke-width: 0.8; stroke-linecap: square"/>
     </g>
     <g id="line2d_10">
      <g>
       <use xlink:href="#m27949e5af6" x="342.036413" y="286.18316" style="stroke: #000000; stroke-width: 0.8"/>
      </g>
     </g>
     <g id="text_5">
      <!-- $\mathdefault{0.8}$ -->
      <g transform="translate(333.311122 302.869036) scale(0.14 -0.14)">
       <defs>
        <path id="CMR17-3a" d="M 1740 2289 
C 2144 2494 2553 2803 2553 3298 
C 2553 3884 1990 4224 1472 4224 
C 889 4224 377 3800 377 3215 
C 377 3054 416 2777 665 2533 
C 729 2469 998 2276 1171 2154 
C 883 2006 211 1652 211 945 
C 211 282 838 -128 1459 -128 
C 2144 -128 2720 366 2720 1022 
C 2720 1607 2329 1877 2073 2051 
L 1740 2289 
z
M 902 2855 
C 851 2887 595 3086 595 3388 
C 595 3781 998 4076 1459 4076 
C 1964 4076 2336 3716 2336 3298 
C 2336 2700 1670 2359 1638 2359 
C 1632 2359 1625 2359 1574 2398 
L 902 2855 
z
M 2080 1536 
C 2176 1466 2483 1253 2483 861 
C 2483 385 2009 25 1472 25 
C 889 25 448 443 448 951 
C 448 1459 838 1884 1280 2083 
L 2080 1536 
z
" transform="scale(0.015625)"/>
       </defs>
       <use xlink:href="#CMR17-32" transform="scale(0.996264)"/>
       <use xlink:href="#CMMI12-3b" transform="translate(45.690477 0) scale(0.996264)"/>
       <use xlink:href="#CMR17-3a" transform="translate(72.787654 0) scale(0.996264)"/>
      </g>
     </g>
    </g>
    <g id="xtick_6">
     <g id="line2d_11">
      <path d="M 408.203421 286.18316 
L 408.203421 15.12 
" clip-path="url(#pc613f4141f)" style="fill: none; stroke: #b0b0b0; stroke-width: 0.8; stroke-linecap: square"/>
     </g>
     <g id="line2d_12">
      <g>
       <use xlink:href="#m27949e5af6" x="408.203421" y="286.18316" style="stroke: #000000; stroke-width: 0.8"/>
      </g>
     </g>
     <g id="text_6">
      <!-- $\mathdefault{1.0}$ -->
      <g transform="translate(399.47813 302.869036) scale(0.14 -0.14)">
       <defs>
        <path id="CMR17-33" d="M 1702 4083 
C 1702 4217 1696 4224 1606 4224 
C 1356 3927 979 3833 620 3820 
C 601 3820 569 3820 563 3808 
C 556 3795 556 3782 556 3648 
C 755 3648 1088 3686 1344 3839 
L 1344 467 
C 1344 243 1331 166 780 166 
L 588 166 
L 588 0 
C 896 6 1216 12 1523 12 
C 1830 12 2150 6 2457 0 
L 2457 166 
L 2265 166 
C 1715 166 1702 236 1702 467 
L 1702 4083 
z
" transform="scale(0.015625)"/>
       </defs>
       <use xlink:href="#CMR17-33" transform="scale(0.996264)"/>
       <use xlink:href="#CMMI12-3b" transform="translate(45.690477 0) scale(0.996264)"/>
       <use xlink:href="#CMR17-32" transform="translate(72.787654 0) scale(0.996264)"/>
      </g>
     </g>
    </g>
    <g id="xtick_7">
     <g id="line2d_13">
      <path d="M 474.37043 286.18316 
L 474.37043 15.12 
" clip-path="url(#pc613f4141f)" style="fill: none; stroke: #b0b0b0; stroke-width: 0.8; stroke-linecap: square"/>
     </g>
     <g id="line2d_14">
      <g>
       <use xlink:href="#m27949e5af6" x="474.37043" y="286.18316" style="stroke: #000000; stroke-width: 0.8"/>
      </g>
     </g>
     <g id="text_7">
      <!-- $\mathdefault{1.2}$ -->
      <g transform="translate(465.645139 302.869036) scale(0.14 -0.14)">
       <use xlink:href="#CMR17-33" transform="scale(0.996264)"/>
       <use xlink:href="#CMMI12-3b" transform="translate(45.690477 0) scale(0.996264)"/>
       <use xlink:href="#CMR17-34" transform="translate(72.787654 0) scale(0.996264)"/>
      </g>
     </g>
    </g>
    <g id="text_8">
     <!-- $V_\mr{in}~\mr{[V]}$ -->
     <g transform="translate(256.269724 320.041837) scale(0.14 -0.14)">
      <defs>
       <path id="CMMI12-57" d="M 3961 3644 
C 4179 3987 4377 4140 4704 4166 
C 4768 4172 4819 4172 4819 4287 
C 4819 4313 4806 4352 4749 4352 
C 4633 4352 4358 4339 4243 4339 
C 4057 4339 3865 4352 3686 4352 
C 3635 4352 3571 4352 3571 4230 
C 3571 4172 3629 4166 3654 4166 
C 3891 4146 3917 4032 3917 3956 
C 3917 3860 3827 3714 3821 3708 
L 1811 540 
L 1363 3968 
C 1363 4153 1696 4166 1766 4166 
C 1862 4166 1920 4166 1920 4287 
C 1920 4352 1849 4352 1830 4352 
C 1721 4352 1593 4339 1484 4339 
L 1126 4339 
C 659 4339 467 4352 460 4352 
C 422 4352 345 4352 345 4236 
C 345 4166 390 4166 492 4166 
C 819 4166 838 4108 857 3949 
L 1369 25 
C 1388 -109 1388 -128 1478 -128 
C 1555 -128 1587 -109 1651 -7 
L 3961 3644 
z
" transform="scale(0.015625)"/>
       <path id="CMR17-6b" d="M 992 3961 
C 992 4102 876 4224 729 4224 
C 588 4224 467 4108 467 3961 
C 467 3820 582 3699 729 3699 
C 870 3699 992 3814 992 3961 
z
M 243 2745 
L 243 2579 
C 601 2579 652 2540 652 2231 
L 652 443 
C 652 198 627 166 217 166 
L 217 0 
C 371 12 646 12 806 12 
C 960 12 1222 12 1369 0 
L 1369 166 
C 992 166 979 205 979 436 
L 979 2816 
L 243 2745 
z
" transform="scale(0.015625)"/>
       <path id="CMR17-70" d="M 2656 1954 
C 2656 2282 2592 2816 1836 2816 
C 1331 2816 1068 2424 972 2166 
L 966 2166 
L 966 2816 
L 211 2745 
L 211 2578 
C 588 2578 646 2540 646 2231 
L 646 443 
C 646 198 620 166 211 166 
L 211 0 
C 364 12 646 12 812 12 
C 979 12 1267 12 1420 0 
L 1420 166 
C 1011 166 985 192 985 443 
L 985 1678 
C 985 2269 1344 2713 1792 2713 
C 2265 2713 2316 2289 2316 1980 
L 2316 443 
C 2316 198 2291 166 1881 166 
L 1881 0 
C 2035 12 2316 12 2483 12 
C 2649 12 2937 12 3091 0 
L 3091 166 
C 2681 166 2656 192 2656 443 
L 2656 1954 
z
" transform="scale(0.015625)"/>
       <path id="CMR17-5d" d="M 1504 -1600 
L 1504 -1376 
L 902 -1376 
L 902 4575 
L 1504 4575 
L 1504 4800 
L 678 4800 
L 678 -1600 
L 1504 -1600 
z
" transform="scale(0.015625)"/>
       <path id="CMR17-58" d="M 3776 3762 
C 3833 3903 3936 4179 4365 4185 
L 4365 4352 
C 4217 4339 4051 4339 3891 4339 
C 3737 4339 3475 4339 3328 4352 
L 3328 4185 
C 3648 4166 3661 3942 3661 3903 
C 3661 3833 3641 3788 3622 3737 
L 2361 448 
L 1043 3903 
C 1024 3948 1011 3980 1011 4012 
C 1011 4185 1267 4185 1401 4185 
L 1401 4352 
C 1196 4339 896 4339 684 4339 
C 518 4339 217 4339 64 4352 
L 64 4185 
C 435 4185 505 4160 582 3955 
L 2105 -26 
C 2137 -116 2144 -128 2214 -128 
C 2284 -128 2291 -116 2323 -26 
L 3776 3762 
z
" transform="scale(0.015625)"/>
       <path id="CMR17-5f" d="M 915 4800 
L 89 4800 
L 89 4575 
L 691 4575 
L 691 -1376 
L 89 -1376 
L 89 -1600 
L 915 -1600 
L 915 4800 
z
" transform="scale(0.015625)"/>
      </defs>
      <use xlink:href="#CMMI12-57" transform="scale(0.996264)"/>
      <use xlink:href="#CMR17-6b" transform="translate(56.869579 -14.943915) scale(0.697382)"/>
      <use xlink:href="#CMR17-70" transform="translate(74.279238 -14.943915) scale(0.697382)"/>
      <use xlink:href="#CMR17-5d" transform="translate(141.633091 0) scale(0.996264)"/>
      <use xlink:href="#CMR17-58" transform="translate(166.504149 0) scale(0.996264)"/>
      <use xlink:href="#CMR17-5f" transform="translate(235.576579 0) scale(0.996264)"/>
     </g>
    </g>
   </g>
   <g id="matplotlib.axis_2">
    <g id="ytick_1">
     <g id="line2d_15">
      <path d="M 57.518278 273.862113 
L 494.220532 273.862113 
" clip-path="url(#pc613f4141f)" style="fill: none; stroke: #b0b0b0; stroke-width: 0.8; stroke-linecap: square"/>
     </g>
     <g id="line2d_16">
      <defs>
       <path id="me045036a15" d="M 0 0 
L -3.5 0 
" style="stroke: #000000; stroke-width: 0.8"/>
      </defs>
      <g>
       <use xlink:href="#me045036a15" x="57.518278" y="273.862113" style="stroke: #000000; stroke-width: 0.8"/>
      </g>
     </g>
     <g id="text_9">
      <!-- $\mathdefault{0.0}$ -->
      <g transform="translate(33.067696 278.705051) scale(0.14 -0.14)">
       <use xlink:href="#CMR17-32" transform="scale(0.996264)"/>
       <use xlink:href="#CMMI12-3b" transform="translate(45.690477 0) scale(0.996264)"/>
       <use xlink:href="#CMR17-32" transform="translate(72.787654 0) scale(0.996264)"/>
      </g>
     </g>
    </g>
    <g id="ytick_2">
     <g id="line2d_17">
      <path d="M 57.518278 232.791936 
L 494.220532 232.791936 
" clip-path="url(#pc613f4141f)" style="fill: none; stroke: #b0b0b0; stroke-width: 0.8; stroke-linecap: square"/>
     </g>
     <g id="line2d_18">
      <g>
       <use xlink:href="#me045036a15" x="57.518278" y="232.791936" style="stroke: #000000; stroke-width: 0.8"/>
      </g>
     </g>
     <g id="text_10">
      <!-- $\mathdefault{0.2}$ -->
      <g transform="translate(33.067696 237.634874) scale(0.14 -0.14)">
       <use xlink:href="#CMR17-32" transform="scale(0.996264)"/>
       <use xlink:href="#CMMI12-3b" transform="translate(45.690477 0) scale(0.996264)"/>
       <use xlink:href="#CMR17-34" transform="translate(72.787654 0) scale(0.996264)"/>
      </g>
     </g>
    </g>
    <g id="ytick_3">
     <g id="line2d_19">
      <path d="M 57.518278 191.721758 
L 494.220532 191.721758 
" clip-path="url(#pc613f4141f)" style="fill: none; stroke: #b0b0b0; stroke-width: 0.8; stroke-linecap: square"/>
     </g>
     <g id="line2d_20">
      <g>
       <use xlink:href="#me045036a15" x="57.518278" y="191.721758" style="stroke: #000000; stroke-width: 0.8"/>
      </g>
     </g>
     <g id="text_11">
      <!-- $\mathdefault{0.4}$ -->
      <g transform="translate(33.067696 196.564696) scale(0.14 -0.14)">
       <use xlink:href="#CMR17-32" transform="scale(0.996264)"/>
       <use xlink:href="#CMMI12-3b" transform="translate(45.690477 0) scale(0.996264)"/>
       <use xlink:href="#CMR17-36" transform="translate(72.787654 0) scale(0.996264)"/>
      </g>
     </g>
    </g>
    <g id="ytick_4">
     <g id="line2d_21">
      <path d="M 57.518278 150.651581 
L 494.220532 150.651581 
" clip-path="url(#pc613f4141f)" style="fill: none; stroke: #b0b0b0; stroke-width: 0.8; stroke-linecap: square"/>
     </g>
     <g id="line2d_22">
      <g>
       <use xlink:href="#me045036a15" x="57.518278" y="150.651581" style="stroke: #000000; stroke-width: 0.8"/>
      </g>
     </g>
     <g id="text_12">
      <!-- $\mathdefault{0.6}$ -->
      <g transform="translate(33.067696 155.494519) scale(0.14 -0.14)">
       <use xlink:href="#CMR17-32" transform="scale(0.996264)"/>
       <use xlink:href="#CMMI12-3b" transform="translate(45.690477 0) scale(0.996264)"/>
       <use xlink:href="#CMR17-38" transform="translate(72.787654 0) scale(0.996264)"/>
      </g>
     </g>
    </g>
    <g id="ytick_5">
     <g id="line2d_23">
      <path d="M 57.518278 109.581403 
L 494.220532 109.581403 
" clip-path="url(#pc613f4141f)" style="fill: none; stroke: #b0b0b0; stroke-width: 0.8; stroke-linecap: square"/>
     </g>
     <g id="line2d_24">
      <g>
       <use xlink:href="#me045036a15" x="57.518278" y="109.581403" style="stroke: #000000; stroke-width: 0.8"/>
      </g>
     </g>
     <g id="text_13">
      <!-- $\mathdefault{0.8}$ -->
      <g transform="translate(33.067696 114.424342) scale(0.14 -0.14)">
       <use xlink:href="#CMR17-32" transform="scale(0.996264)"/>
       <use xlink:href="#CMMI12-3b" transform="translate(45.690477 0) scale(0.996264)"/>
       <use xlink:href="#CMR17-3a" transform="translate(72.787654 0) scale(0.996264)"/>
      </g>
     </g>
    </g>
    <g id="ytick_6">
     <g id="line2d_25">
      <path d="M 57.518278 68.511226 
L 494.220532 68.511226 
" clip-path="url(#pc613f4141f)" style="fill: none; stroke: #b0b0b0; stroke-width: 0.8; stroke-linecap: square"/>
     </g>
     <g id="line2d_26">
      <g>
       <use xlink:href="#me045036a15" x="57.518278" y="68.511226" style="stroke: #000000; stroke-width: 0.8"/>
      </g>
     </g>
     <g id="text_14">
      <!-- $\mathdefault{1.0}$ -->
      <g transform="translate(33.067696 73.354164) scale(0.14 -0.14)">
       <use xlink:href="#CMR17-33" transform="scale(0.996264)"/>
       <use xlink:href="#CMMI12-3b" transform="translate(45.690477 0) scale(0.996264)"/>
       <use xlink:href="#CMR17-32" transform="translate(72.787654 0) scale(0.996264)"/>
      </g>
     </g>
    </g>
    <g id="ytick_7">
     <g id="line2d_27">
      <path d="M 57.518278 27.441049 
L 494.220532 27.441049 
" clip-path="url(#pc613f4141f)" style="fill: none; stroke: #b0b0b0; stroke-width: 0.8; stroke-linecap: square"/>
     </g>
     <g id="line2d_28">
      <g>
       <use xlink:href="#me045036a15" x="57.518278" y="27.441049" style="stroke: #000000; stroke-width: 0.8"/>
      </g>
     </g>
     <g id="text_15">
      <!-- $\mathdefault{1.2}$ -->
      <g transform="translate(33.067696 32.283987) scale(0.14 -0.14)">
       <use xlink:href="#CMR17-33" transform="scale(0.996264)"/>
       <use xlink:href="#CMMI12-3b" transform="translate(45.690477 0) scale(0.996264)"/>
       <use xlink:href="#CMR17-34" transform="translate(72.787654 0) scale(0.996264)"/>
      </g>
     </g>
    </g>
    <g id="text_16">
     <!-- $V_\mr{out}~\mr{[V]}$ -->
     <g transform="translate(25.580772 173.317346) rotate(-90) scale(0.14 -0.14)">
      <defs>
       <path id="CMR17-71" d="M 2758 1356 
C 2758 2176 2163 2816 1465 2816 
C 768 2816 172 2176 172 1356 
C 172 550 768 -64 1465 -64 
C 2163 -64 2758 550 2758 1356 
z
M 1465 51 
C 1164 51 908 230 761 480 
C 601 768 582 1126 582 1408 
C 582 1676 595 2009 761 2297 
C 889 2508 1139 2713 1465 2713 
C 1753 2713 1996 2553 2150 2329 
C 2348 2028 2348 1606 2348 1408 
C 2348 1158 2336 774 2163 467 
C 1984 172 1708 51 1465 51 
z
" transform="scale(0.015625)"/>
       <path id="CMR17-77" d="M 1881 2745 
L 1881 2579 
C 2259 2579 2316 2540 2316 2229 
L 2316 1053 
C 2316 510 2028 38 1555 38 
C 1030 38 985 355 985 691 
L 985 2816 
L 211 2745 
L 211 2579 
C 467 2579 640 2579 646 2320 
L 646 1079 
C 646 646 646 368 812 187 
C 896 103 1056 -64 1516 -64 
C 2060 -64 2272 400 2323 536 
L 2329 536 
L 2329 -64 
L 3091 -13 
L 3091 154 
C 2713 154 2656 193 2656 503 
L 2656 2816 
L 1881 2745 
z
" transform="scale(0.015625)"/>
       <path id="CMR17-76" d="M 966 2585 
L 1862 2585 
L 1862 2752 
L 966 2752 
L 966 3968 
L 851 3968 
C 838 3292 614 2700 70 2687 
L 70 2585 
L 627 2585 
L 627 778 
C 627 655 627 -64 1369 -64 
C 1747 -64 1964 308 1964 784 
L 1964 1151 
L 1849 1151 
L 1849 790 
C 1849 347 1676 51 1408 51 
C 1222 51 966 179 966 765 
L 966 2585 
z
" transform="scale(0.015625)"/>
      </defs>
      <use xlink:href="#CMMI12-57" transform="scale(0.996264)"/>
      <use xlink:href="#CMR17-71" transform="translate(56.869579 -14.943915) scale(0.697382)"/>
      <use xlink:href="#CMR17-77" transform="translate(88.852761 -14.943915) scale(0.697382)"/>
      <use xlink:href="#CMR17-76" transform="translate(124.479369 -14.943915) scale(0.697382)"/>
      <use xlink:href="#CMR17-5d" transform="translate(180.903035 0) scale(0.996264)"/>
      <use xlink:href="#CMR17-58" transform="translate(205.774093 0) scale(0.996264)"/>
      <use xlink:href="#CMR17-5f" transform="translate(274.846523 0) scale(0.996264)"/>
     </g>
    </g>
   </g>
   <g id="line2d_29">
    <path d="M 77.368381 27.441071 
L 80.676731 27.441077 
L 83.985081 27.441086 
L 87.293432 27.441096 
L 90.601782 27.44111 
L 93.910133 27.441131 
L 97.218483 27.441155 
L 100.526833 27.44119 
L 103.835184 27.441235 
L 107.143534 27.441297 
L 110.451885 27.441379 
L 113.760235 27.441488 
L 117.068586 27.441636 
L 120.376936 27.441831 
L 123.685286 27.442094 
L 126.993637 27.442445 
L 130.301987 27.442915 
L 133.610338 27.443546 
L 136.918688 27.444392 
L 140.227038 27.445527 
L 143.535389 27.447051 
L 146.843739 27.449102 
L 150.15209 27.451858 
L 153.46044 27.455565 
L 156.76879 27.460557 
L 160.077141 27.467276 
L 163.385491 27.476326 
L 166.693842 27.488515 
L 170.002192 27.504933 
L 173.310542 27.527039 
L 176.618893 27.556786 
L 179.927243 27.596776 
L 183.235594 27.650449 
L 186.543944 27.722328 
L 189.852295 27.818305 
L 193.160645 27.945943 
L 196.468995 28.114834 
L 199.777346 28.336898 
L 203.085696 28.626681 
L 206.394047 29.001547 
L 209.702397 29.481844 
L 213.010747 30.091131 
L 216.319098 30.856738 
L 219.627448 31.811065 
L 222.935799 32.994289 
L 226.244149 34.459451 
L 229.552499 36.281725 
L 232.86085 38.575706 
L 236.1692 41.530204 
L 239.477551 45.486291 
L 242.785901 51.136871 
L 246.094251 60.101284 
L 249.402602 76.620933 
L 252.710952 104.63341 
L 256.019303 139.157952 
L 259.327653 173.638241 
L 262.636004 205.804773 
L 265.944354 233.621582 
L 269.252704 250.959918 
L 272.561055 258.583487 
L 275.869405 262.560642 
L 279.177756 265.082979 
L 282.486106 266.860087 
L 285.794456 268.184558 
L 289.102807 269.213565 
L 292.411157 270.032926 
L 295.719508 270.696605 
L 299.027858 271.240707 
L 302.336208 271.690592 
L 305.644559 272.064773 
L 308.952909 272.377188 
L 312.26126 272.638603 
L 315.56961 272.857504 
L 318.87796 273.040703 
L 322.186311 273.193756 
L 325.494661 273.321251 
L 328.803012 273.427031 
L 332.111362 273.514349 
L 335.419712 273.585987 
L 338.728063 273.64435 
L 342.036413 273.691526 
L 345.344764 273.729342 
L 348.653114 273.759392 
L 351.961465 273.783066 
L 355.269815 273.801563 
L 358.578165 273.815906 
L 361.886516 273.826955 
L 365.194866 273.835419 
L 368.503217 273.841875 
L 371.811567 273.846783 
L 375.119917 273.850505 
L 378.428268 273.853324 
L 381.736618 273.855457 
L 385.044969 273.857071 
L 388.353319 273.858291 
L 391.661669 273.859214 
L 394.97002 273.859912 
L 398.27837 273.860441 
L 401.586721 273.860842 
L 404.895071 273.861146 
L 408.203421 273.861377 
L 411.511772 273.861552 
L 414.820122 273.861685 
L 418.128473 273.861786 
L 421.436823 273.861863 
L 424.745174 273.861922 
L 428.053524 273.861966 
L 431.361874 273.862 
L 434.670225 273.862026 
L 437.978575 273.862046 
L 441.286926 273.862061 
L 444.595276 273.862073 
L 447.903626 273.862082 
L 451.211977 273.862089 
L 454.520327 273.862094 
L 457.828678 273.862098 
L 461.137028 273.862101 
L 464.445378 273.862103 
L 467.753729 273.862105 
L 471.062079 273.862106 
L 474.37043 273.862107 
" clip-path="url(#pc613f4141f)" style="fill: none; stroke: #0000ff; stroke-width: 1.5; stroke-linecap: square"/>
   </g>
   <g id="line2d_30">
    <path d="M 77.368381 27.441059 
L 80.676731 27.441061 
L 83.985081 27.441063 
L 87.293432 27.441067 
L 90.601782 27.441073 
L 93.910133 27.441079 
L 97.218483 27.441088 
L 100.526833 27.4411 
L 103.835184 27.441116 
L 107.143534 27.441139 
L 110.451885 27.441168 
L 113.760235 27.441205 
L 117.068586 27.441256 
L 120.376936 27.441326 
L 123.685286 27.441416 
L 126.993637 27.441539 
L 130.301987 27.441704 
L 133.610338 27.441925 
L 136.918688 27.442219 
L 140.227038 27.442615 
L 143.535389 27.443147 
L 146.843739 27.44386 
L 150.15209 27.444817 
L 153.46044 27.446104 
L 156.76879 27.447835 
L 160.077141 27.450162 
L 163.385491 27.45329 
L 166.693842 27.457499 
L 170.002192 27.463163 
L 173.310542 27.470773 
L 176.618893 27.481002 
L 179.927243 27.494727 
L 183.235594 27.513114 
L 186.543944 27.537691 
L 189.852295 27.570432 
L 193.160645 27.613864 
L 196.468995 27.671157 
L 199.777346 27.746216 
L 203.085696 27.843729 
L 206.394047 27.969172 
L 209.702397 28.128758 
L 213.010747 28.329353 
L 216.319098 28.578393 
L 219.627448 28.883899 
L 222.935799 29.254669 
L 226.244149 29.700705 
L 229.552499 30.233936 
L 232.86085 30.869263 
L 236.1692 31.625993 
L 239.477551 32.529878 
L 242.785901 33.61617 
L 246.094251 34.934664 
L 249.402602 36.558632 
L 252.710952 38.602032 
L 256.019303 41.255896 
L 259.327653 44.87431 
L 262.636004 50.207026 
L 265.944354 59.106804 
L 269.252704 76.46495 
L 272.561055 105.170307 
L 275.869405 139.567772 
L 279.177756 174.396147 
L 282.486106 207.113307 
L 285.794456 233.902726 
L 289.102807 248.997136 
L 292.411157 256.297696 
L 295.719508 260.543066 
L 299.027858 263.404124 
L 302.336208 265.480291 
L 305.644559 267.073198 
L 308.952909 268.331951 
L 312.26126 269.346231 
L 315.56961 270.173997 
L 318.87796 270.854981 
L 322.186311 271.417748 
L 325.494661 271.883642 
L 328.803012 272.269145 
L 332.111362 272.587339 
L 335.419712 272.848866 
L 338.728063 273.062571 
L 342.036413 273.235942 
L 345.344764 273.375415 
L 348.653114 273.486582 
L 351.961465 273.574325 
L 355.269815 273.642902 
L 358.578165 273.695996 
L 361.886516 273.73675 
L 365.194866 273.767801 
L 368.503217 273.791317 
L 371.811567 273.809043 
L 375.119917 273.82236 
L 378.428268 273.832343 
L 381.736618 273.839816 
L 385.044969 273.845407 
L 388.353319 273.84959 
L 391.661669 273.852719 
L 394.97002 273.855061 
L 398.27837 273.856815 
L 401.586721 273.85813 
L 404.895071 273.859116 
L 408.203421 273.859856 
L 411.511772 273.860412 
L 414.820122 273.86083 
L 418.128473 273.861144 
L 421.436823 273.861381 
L 424.745174 273.861559 
L 428.053524 273.861694 
L 431.361874 273.861795 
L 434.670225 273.861872 
L 437.978575 273.86193 
L 441.286926 273.861974 
L 444.595276 273.862007 
L 447.903626 273.862032 
L 451.211977 273.862051 
L 454.520327 273.862065 
L 457.828678 273.862076 
L 461.137028 273.862084 
L 464.445378 273.862091 
L 467.753729 273.862095 
L 471.062079 273.862099 
L 474.37043 273.862102 
" clip-path="url(#pc613f4141f)" style="fill: none; stroke: #008000; stroke-width: 1.5; stroke-linecap: square"/>
   </g>
   <g id="line2d_31">
    <path d="M 77.368381 27.441053 
L 80.676731 27.441055 
L 83.985081 27.441057 
L 87.293432 27.441057 
L 90.601782 27.441059 
L 93.910133 27.441061 
L 97.218483 27.441065 
L 100.526833 27.441069 
L 103.835184 27.441073 
L 107.143534 27.441081 
L 110.451885 27.441092 
L 113.760235 27.441104 
L 117.068586 27.441123 
L 120.376936 27.441145 
L 123.685286 27.441178 
L 126.993637 27.441219 
L 130.301987 27.441275 
L 133.610338 27.44135 
L 136.918688 27.441453 
L 140.227038 27.441589 
L 143.535389 27.441769 
L 146.843739 27.442014 
L 150.15209 27.442342 
L 153.46044 27.442784 
L 156.76879 27.443377 
L 160.077141 27.444174 
L 163.385491 27.445244 
L 166.693842 27.446686 
L 170.002192 27.448624 
L 173.310542 27.451228 
L 176.618893 27.454725 
L 179.927243 27.459415 
L 183.235594 27.465699 
L 186.543944 27.474092 
L 189.852295 27.485265 
L 193.160645 27.500079 
L 196.468995 27.519606 
L 199.777346 27.545164 
L 203.085696 27.57833 
L 206.394047 27.620932 
L 209.702397 27.675027 
L 213.010747 27.742859 
L 216.319098 27.826811 
L 219.627448 27.929379 
L 222.935799 28.05321 
L 226.244149 28.201169 
L 229.552499 28.376516 
L 232.86085 28.583085 
L 236.1692 28.825549 
L 239.477551 29.109691 
L 242.785901 29.442723 
L 246.094251 29.833699 
L 249.402602 30.294067 
L 252.710952 30.83847 
L 256.019303 31.485976 
L 259.327653 32.262018 
L 262.636004 33.201634 
L 265.944354 34.355145 
L 269.252704 35.798813 
L 272.561055 37.65659 
L 275.869405 40.149609 
L 279.177756 43.725869 
L 282.486106 49.463389 
L 285.794456 60.697089 
L 289.102807 83.501444 
L 292.411157 116.034661 
L 295.719508 151.66584 
L 299.027858 186.899597 
L 302.336208 218.467596 
L 305.644559 239.828164 
L 308.952909 250.708072 
L 312.26126 256.789417 
L 315.56961 260.755793 
L 318.87796 263.597828 
L 322.186311 265.737297 
L 325.494661 267.405808 
L 328.803012 268.731004 
L 332.111362 269.794273 
L 335.419712 270.651177 
L 338.728063 271.341904 
L 342.036413 271.896984 
L 345.344764 272.340577 
L 348.653114 272.69244 
L 351.961465 272.969111 
L 355.269815 273.184624 
L 358.578165 273.350923 
L 361.886516 273.478114 
L 365.194866 273.574636 
L 368.503217 273.647411 
L 371.811567 273.702006 
L 375.119917 273.742814 
L 378.428268 273.773244 
L 381.736618 273.795904 
L 385.044969 273.812766 
L 388.353319 273.825313 
L 391.661669 273.83465 
L 394.97002 273.841603 
L 398.27837 273.846784 
L 401.586721 273.850647 
L 404.895071 273.853529 
L 408.203421 273.855682 
L 411.511772 273.85729 
L 414.820122 273.858494 
L 418.128473 273.859395 
L 421.436823 273.86007 
L 424.745174 273.860576 
L 428.053524 273.860956 
L 431.361874 273.861241 
L 434.670225 273.861455 
L 437.978575 273.861616 
L 441.286926 273.861738 
L 444.595276 273.861829 
L 447.903626 273.861898 
L 451.211977 273.86195 
L 454.520327 273.861989 
L 457.828678 273.862018 
L 461.137028 273.862041 
L 464.445378 273.862057 
L 467.753729 273.86207 
L 471.062079 273.86208 
L 474.37043 273.862087 
" clip-path="url(#pc613f4141f)" style="fill: none; stroke: #ff0000; stroke-width: 1.5; stroke-linecap: square"/>
   </g>
   <g id="patch_3">
    <path d="M 57.518278 286.18316 
L 57.518278 15.12 
" style="fill: none; stroke: #000000; stroke-width: 0.8; stroke-linejoin: miter; stroke-linecap: square"/>
   </g>
   <g id="patch_4">
    <path d="M 494.220532 286.18316 
L 494.220532 15.12 
" style="fill: none; stroke: #000000; stroke-width: 0.8; stroke-linejoin: miter; stroke-linecap: square"/>
   </g>
   <g id="patch_5">
    <path d="M 57.518278 286.18316 
L 494.220532 286.18316 
" style="fill: none; stroke: #000000; stroke-width: 0.8; stroke-linejoin: miter; stroke-linecap: square"/>
   </g>
   <g id="patch_6">
    <path d="M 57.518278 15.12 
L 494.220532 15.12 
" style="fill: none; stroke: #000000; stroke-width: 0.8; stroke-linejoin: miter; stroke-linecap: square"/>
   </g>
   <g id="legend_1">
    <g id="patch_7">
     <path d="M 359.038194 90.674039 
L 484.420532 90.674039 
Q 487.220532 90.674039 487.220532 87.874039 
L 487.220532 24.92 
Q 487.220532 22.12 484.420532 22.12 
L 359.038194 22.12 
Q 356.238194 22.12 356.238194 24.92 
L 356.238194 87.874039 
Q 356.238194 90.674039 359.038194 90.674039 
z
" style="fill: #ffffff; opacity: 0.8; stroke: #cccccc; stroke-linejoin: miter"/>
    </g>
    <g id="line2d_32">
     <path d="M 361.838194 33.280772 
L 375.838194 33.280772 
L 389.838194 33.280772 
" style="fill: none; stroke: #0000ff; stroke-width: 1.5; stroke-linecap: square"/>
    </g>
    <g id="text_17">
     <!-- $W_\mr{p}/W_\mr{n}=0.5$ -->
     <g transform="translate(401.038194 38.180772) scale(0.14 -0.14)">
      <defs>
       <path id="CMMI12-58" d="M 5779 3644 
C 5926 3892 6067 4127 6451 4166 
C 6509 4172 6566 4179 6566 4281 
C 6566 4352 6509 4352 6489 4352 
C 6477 4352 6432 4339 6009 4339 
C 5817 4339 5619 4352 5433 4352 
C 5395 4352 5318 4352 5318 4230 
C 5318 4172 5369 4166 5408 4166 
C 5536 4159 5741 4121 5741 3924 
C 5741 3841 5715 3797 5651 3689 
L 3904 648 
L 3673 3962 
C 3673 4038 3744 4159 4102 4166 
C 4185 4166 4249 4166 4249 4287 
C 4249 4352 4185 4352 4153 4352 
C 3929 4352 3693 4339 3462 4339 
L 3129 4339 
C 3033 4339 2918 4352 2822 4352 
C 2784 4352 2707 4352 2707 4230 
C 2707 4166 2752 4166 2860 4166 
C 3155 4166 3155 4159 3180 3771 
L 3200 3542 
L 1542 648 
L 1305 3930 
C 1305 4000 1305 4159 1740 4166 
C 1811 4166 1881 4166 1881 4281 
C 1881 4352 1824 4352 1785 4352 
C 1561 4352 1324 4339 1094 4339 
L 761 4339 
C 665 4339 550 4352 454 4352 
C 416 4352 339 4352 339 4230 
C 339 4166 390 4166 480 4166 
C 780 4166 787 4127 800 3924 
L 1081 19 
C 1088 -90 1094 -128 1171 -128 
C 1235 -128 1248 -103 1305 -7 
L 3212 3307 
L 3449 19 
C 3456 -90 3462 -128 3539 -128 
C 3603 -128 3622 -96 3673 -7 
L 5779 3644 
z
" transform="scale(0.015625)"/>
       <path id="CMR17-72" d="M 1408 -1114 
C 998 -1114 972 -1088 972 -834 
L 972 380 
C 1158 109 1427 -64 1766 -64 
C 2406 -64 3052 503 3052 1382 
C 3052 2196 2496 2816 1836 2816 
C 1452 2816 1139 2603 960 2345 
L 960 2816 
L 198 2745 
L 198 2577 
C 576 2577 633 2539 633 2228 
L 633 -834 
C 633 -1081 608 -1114 198 -1114 
L 198 -1280 
C 352 -1268 633 -1268 800 -1268 
C 966 -1268 1254 -1268 1408 -1280 
L 1408 -1114 
z
M 972 2015 
C 972 2106 972 2241 1222 2481 
C 1254 2506 1472 2700 1792 2700 
C 2259 2700 2643 2112 2643 1376 
C 2643 639 2233 38 1728 38 
C 1497 38 1248 148 1056 451 
C 972 594 972 632 972 736 
L 972 2015 
z
" transform="scale(0.015625)"/>
       <path id="CMMI12-3e" d="M 2745 4563 
C 2745 4569 2784 4665 2784 4678 
C 2784 4755 2720 4800 2668 4800 
C 2636 4800 2579 4800 2528 4659 
L 384 -1364 
C 384 -1370 345 -1466 345 -1479 
C 345 -1556 409 -1600 460 -1600 
C 499 -1600 556 -1594 601 -1460 
L 2745 4563 
z
" transform="scale(0.015625)"/>
       <path id="CMR17-3f" d="M 4115 2048 
C 4211 2048 4307 2048 4307 2156 
C 4307 2272 4198 2272 4089 2272 
L 512 2272 
C 403 2272 294 2272 294 2156 
C 294 2048 390 2048 486 2048 
L 4115 2048 
z
M 4089 927 
C 4198 927 4307 927 4307 1043 
C 4307 1152 4211 1152 4115 1152 
L 486 1152 
C 390 1152 294 1152 294 1043 
C 294 927 403 927 512 927 
L 4089 927 
z
" transform="scale(0.015625)"/>
       <path id="CMR17-37" d="M 729 3750 
C 793 3724 1056 3641 1324 3641 
C 1920 3641 2246 3961 2432 4140 
C 2432 4191 2432 4224 2393 4224 
C 2387 4224 2374 4224 2323 4198 
C 2099 4102 1836 4032 1516 4032 
C 1324 4032 1036 4055 723 4191 
C 652 4224 640 4224 633 4224 
C 601 4224 595 4217 595 4090 
L 595 2231 
C 595 2113 595 2080 659 2080 
C 691 2080 704 2093 736 2139 
C 940 2435 1222 2560 1542 2560 
C 1766 2560 2246 2415 2246 1293 
C 2246 1087 2246 716 2054 422 
C 1894 159 1644 25 1369 25 
C 947 25 518 319 403 812 
C 428 806 480 793 505 793 
C 588 793 748 838 748 1036 
C 748 1209 627 1280 505 1280 
C 358 1280 262 1190 262 1011 
C 262 454 704 -128 1382 -128 
C 2041 -128 2668 441 2668 1267 
C 2668 2054 2169 2662 1548 2662 
C 1222 2662 947 2540 729 2304 
L 729 3750 
z
" transform="scale(0.015625)"/>
      </defs>
      <use xlink:href="#CMMI12-58" transform="scale(0.996264)"/>
      <use xlink:href="#CMR17-72" transform="translate(92.095909 -14.943915) scale(0.697382)"/>
      <use xlink:href="#CMMI12-3e" transform="translate(128.22065 0) scale(0.996264)"/>
      <use xlink:href="#CMMI12-58" transform="translate(176.995568 0) scale(0.996264)"/>
      <use xlink:href="#CMR17-70" transform="translate(269.091478 -14.943915) scale(0.697382)"/>
      <use xlink:href="#CMR17-3f" transform="translate(332.890227 0) scale(0.996264)"/>
      <use xlink:href="#CMR17-32" transform="translate(432.279024 0) scale(0.996264)"/>
      <use xlink:href="#CMMI12-3b" transform="translate(477.969501 0) scale(0.996264)"/>
      <use xlink:href="#CMR17-37" transform="translate(505.066678 0) scale(0.996264)"/>
     </g>
    </g>
    <g id="line2d_33">
     <path d="M 361.838194 54.732118 
L 375.838194 54.732118 
L 389.838194 54.732118 
" style="fill: none; stroke: #008000; stroke-width: 1.5; stroke-linecap: square"/>
    </g>
    <g id="text_18">
     <!-- $W_\mr{p}/W_\mr{n}=1.5$ -->
     <g transform="translate(401.038194 59.632118) scale(0.14 -0.14)">
      <use xlink:href="#CMMI12-58" transform="scale(0.996264)"/>
      <use xlink:href="#CMR17-72" transform="translate(92.095909 -14.943915) scale(0.697382)"/>
      <use xlink:href="#CMMI12-3e" transform="translate(128.22065 0) scale(0.996264)"/>
      <use xlink:href="#CMMI12-58" transform="translate(176.995568 0) scale(0.996264)"/>
      <use xlink:href="#CMR17-70" transform="translate(269.091478 -14.943915) scale(0.697382)"/>
      <use xlink:href="#CMR17-3f" transform="translate(332.890227 0) scale(0.996264)"/>
      <use xlink:href="#CMR17-33" transform="translate(432.279024 0) scale(0.996264)"/>
      <use xlink:href="#CMMI12-3b" transform="translate(477.969501 0) scale(0.996264)"/>
      <use xlink:href="#CMR17-37" transform="translate(505.066678 0) scale(0.996264)"/>
     </g>
    </g>
    <g id="line2d_34">
     <path d="M 361.838194 76.183465 
L 375.838194 76.183465 
L 389.838194 76.183465 
" style="fill: none; stroke: #ff0000; stroke-width: 1.5; stroke-linecap: square"/>
    </g>
    <g id="text_19">
     <!-- $W_\mr{p}/W_\mr{n}=4.5$ -->
     <g transform="translate(401.038194 81.083465) scale(0.14 -0.14)">
      <use xlink:href="#CMMI12-58" transform="scale(0.996264)"/>
      <use xlink:href="#CMR17-72" transform="translate(92.095909 -14.943915) scale(0.697382)"/>
      <use xlink:href="#CMMI12-3e" transform="translate(128.22065 0) scale(0.996264)"/>
      <use xlink:href="#CMMI12-58" transform="translate(176.995568 0) scale(0.996264)"/>
      <use xlink:href="#CMR17-70" transform="translate(269.091478 -14.943915) scale(0.697382)"/>
      <use xlink:href="#CMR17-3f" transform="translate(332.890227 0) scale(0.996264)"/>
      <use xlink:href="#CMR17-36" transform="translate(432.279024 0) scale(0.996264)"/>
      <use xlink:href="#CMMI12-3b" transform="translate(477.969501 0) scale(0.996264)"/>
      <use xlink:href="#CMR17-37" transform="translate(505.066678 0) scale(0.996264)"/>
     </g>
    </g>
   </g>
  </g>
  <g id="axes_2">
   <g id="matplotlib.axis_3">
    <g id="ytick_8">
     <g id="line2d_35">
      <defs>
       <path id="m1f89280e81" d="M 0 0 
L 3.5 0 
" style="stroke: #000000; stroke-width: 0.8"/>
      </defs>
      <g>
       <use xlink:href="#m1f89280e81" x="494.220532" y="273.862296" style="stroke: #000000; stroke-width: 0.8"/>
      </g>
     </g>
     <g id="text_20">
      <!-- $\mathdefault{0}$ -->
      <g transform="translate(501.220532 278.705234) scale(0.14 -0.14)">
       <use xlink:href="#CMR17-32" transform="scale(0.996264)"/>
      </g>
     </g>
    </g>
    <g id="ytick_9">
     <g id="line2d_36">
      <g>
       <use xlink:href="#m1f89280e81" x="494.220532" y="235.644431" style="stroke: #000000; stroke-width: 0.8"/>
      </g>
     </g>
     <g id="text_21">
      <!-- $\mathdefault{5}$ -->
      <g transform="translate(501.220532 240.48737) scale(0.14 -0.14)">
       <use xlink:href="#CMR17-37" transform="scale(0.996264)"/>
      </g>
     </g>
    </g>
    <g id="ytick_10">
     <g id="line2d_37">
      <g>
       <use xlink:href="#m1f89280e81" x="494.220532" y="197.426567" style="stroke: #000000; stroke-width: 0.8"/>
      </g>
     </g>
     <g id="text_22">
      <!-- $\mathdefault{10}$ -->
      <g transform="translate(501.220532 202.269505) scale(0.14 -0.14)">
       <use xlink:href="#CMR17-33" transform="scale(0.996264)"/>
       <use xlink:href="#CMR17-32" transform="translate(45.690477 0) scale(0.996264)"/>
      </g>
     </g>
    </g>
    <g id="ytick_11">
     <g id="line2d_38">
      <g>
       <use xlink:href="#m1f89280e81" x="494.220532" y="159.208702" style="stroke: #000000; stroke-width: 0.8"/>
      </g>
     </g>
     <g id="text_23">
      <!-- $\mathdefault{15}$ -->
      <g transform="translate(501.220532 164.051641) scale(0.14 -0.14)">
       <use xlink:href="#CMR17-33" transform="scale(0.996264)"/>
       <use xlink:href="#CMR17-37" transform="translate(45.690477 0) scale(0.996264)"/>
      </g>
     </g>
    </g>
    <g id="ytick_12">
     <g id="line2d_39">
      <g>
       <use xlink:href="#m1f89280e81" x="494.220532" y="120.990838" style="stroke: #000000; stroke-width: 0.8"/>
      </g>
     </g>
     <g id="text_24">
      <!-- $\mathdefault{20}$ -->
      <g transform="translate(501.220532 125.833776) scale(0.14 -0.14)">
       <use xlink:href="#CMR17-34" transform="scale(0.996264)"/>
       <use xlink:href="#CMR17-32" transform="translate(45.690477 0) scale(0.996264)"/>
      </g>
     </g>
    </g>
    <g id="ytick_13">
     <g id="line2d_40">
      <g>
       <use xlink:href="#m1f89280e81" x="494.220532" y="82.772973" style="stroke: #000000; stroke-width: 0.8"/>
      </g>
     </g>
     <g id="text_25">
      <!-- $\mathdefault{25}$ -->
      <g transform="translate(501.220532 87.615912) scale(0.14 -0.14)">
       <use xlink:href="#CMR17-34" transform="scale(0.996264)"/>
       <use xlink:href="#CMR17-37" transform="translate(45.690477 0) scale(0.996264)"/>
      </g>
     </g>
    </g>
    <g id="ytick_14">
     <g id="line2d_41">
      <g>
       <use xlink:href="#m1f89280e81" x="494.220532" y="44.555109" style="stroke: #000000; stroke-width: 0.8"/>
      </g>
     </g>
     <g id="text_26">
      <!-- $\mathdefault{30}$ -->
      <g transform="translate(501.220532 49.398047) scale(0.14 -0.14)">
       <defs>
        <path id="CMR17-35" d="M 1414 2176 
C 1984 2176 2233 1673 2233 1094 
C 2233 322 1824 25 1452 25 
C 1113 25 563 193 390 691 
C 422 678 454 678 486 678 
C 640 678 755 780 755 947 
C 755 1132 614 1216 486 1216 
C 377 1216 211 1164 211 927 
C 211 335 787 -128 1465 -128 
C 2176 -128 2720 432 2720 1087 
C 2720 1718 2208 2176 1600 2246 
C 2086 2347 2553 2776 2553 3353 
C 2553 3856 2048 4224 1472 4224 
C 889 4224 377 3862 377 3347 
C 377 3123 544 3084 627 3084 
C 761 3084 876 3167 876 3334 
C 876 3500 761 3584 627 3584 
C 601 3584 569 3584 544 3571 
C 729 3999 1235 4076 1459 4076 
C 1683 4076 2105 3966 2105 3347 
C 2105 3167 2080 2851 1862 2574 
C 1670 2329 1452 2316 1241 2297 
C 1209 2297 1062 2284 1036 2284 
C 992 2278 966 2272 966 2227 
C 966 2182 972 2176 1100 2176 
L 1414 2176 
z
" transform="scale(0.015625)"/>
       </defs>
       <use xlink:href="#CMR17-35" transform="scale(0.996264)"/>
       <use xlink:href="#CMR17-32" transform="translate(45.690477 0) scale(0.996264)"/>
      </g>
     </g>
    </g>
    <g id="text_27">
     <!-- $I_\mr{DD}~\mr{[\mu A]}$ -->
     <g transform="translate(529.338281 176.380733) rotate(-90) scale(0.14 -0.14)">
      <defs>
       <path id="CMMI12-4a" d="M 2355 3879 
C 2412 4102 2425 4166 2892 4166 
C 3033 4166 3084 4166 3084 4287 
C 3084 4352 3014 4352 2995 4352 
C 2880 4352 2739 4339 2624 4339 
L 1836 4339 
C 1708 4339 1561 4352 1433 4352 
C 1382 4352 1312 4352 1312 4230 
C 1312 4166 1363 4166 1491 4166 
C 1888 4166 1888 4115 1888 4045 
C 1888 4000 1875 3962 1862 3905 
L 998 472 
C 940 249 928 185 460 185 
C 320 185 262 185 262 64 
C 262 0 326 0 358 0 
C 473 0 614 12 729 12 
L 1516 12 
C 1644 12 1785 0 1913 0 
C 1964 0 2041 0 2041 115 
C 2041 185 2003 185 1862 185 
C 1465 185 1465 236 1465 312 
C 1465 325 1465 357 1491 459 
L 2355 3879 
z
" transform="scale(0.015625)"/>
       <path id="CMR17-46" d="M 332 4352 
L 332 4185 
C 774 4185 844 4185 844 3898 
L 844 453 
C 844 166 774 166 332 166 
L 332 0 
L 2368 0 
C 3398 0 4224 943 4224 2140 
C 4224 3344 3411 4352 2368 4352 
L 332 4352 
z
M 1523 166 
C 1267 166 1254 198 1254 414 
L 1254 3936 
C 1254 4153 1267 4185 1523 4185 
L 2240 4185 
C 2771 4185 3750 3873 3750 2140 
C 3750 1242 3488 879 3366 707 
C 3212 510 2848 166 2240 166 
L 1523 166 
z
" transform="scale(0.015625)"/>
       <path id="StandardSymL-4d" d="M 2828 3200 
L 2259 3200 
L 2265 849 
C 2035 524 1817 384 1548 384 
C 1177 384 960 645 960 1091 
L 960 3200 
L 396 3200 
L 396 140 
C 396 6 371 -154 326 -346 
C 217 -743 211 -781 211 -929 
C 211 -1197 345 -1389 531 -1389 
C 716 -1389 844 -1197 844 -916 
C 844 -781 825 -698 723 -327 
C 659 -97 646 -33 646 147 
L 646 223 
C 915 -1 1062 -71 1280 -71 
C 1600 -71 1926 127 2265 524 
C 2316 319 2348 243 2412 147 
C 2508 -7 2681 -90 2867 -90 
C 3264 -90 3539 191 3629 685 
L 3456 692 
C 3430 448 3296 256 3148 256 
C 2956 256 2828 486 2828 833 
L 2828 3200 
z
" transform="scale(0.015625)"/>
       <path id="CMR17-43" d="M 2323 4441 
C 2291 4524 2278 4544 2214 4544 
C 2150 4544 2137 4524 2105 4441 
L 748 580 
C 627 236 371 166 147 166 
L 147 0 
C 262 12 518 12 640 12 
C 800 12 1056 12 1209 0 
L 1209 166 
C 908 179 864 382 864 459 
C 864 516 876 548 889 586 
L 1228 1536 
L 2905 1536 
L 3289 453 
C 3321 376 3321 363 3321 338 
C 3321 166 3046 166 2924 166 
L 2924 0 
C 3110 12 3443 12 3641 12 
C 3808 12 4128 12 4281 0 
L 4281 166 
C 3942 166 3827 166 3744 402 
L 2323 4441 
z
M 2067 3924 
L 2848 1702 
L 1286 1702 
L 2067 3924 
z
" transform="scale(0.015625)"/>
      </defs>
      <use xlink:href="#CMMI12-4a" transform="scale(0.996264)"/>
      <use xlink:href="#CMR17-46" transform="translate(43.024176 -14.943915) scale(0.697382)"/>
      <use xlink:href="#CMR17-46" transform="translate(92.299446 -14.943915) scale(0.697382)"/>
      <use xlink:href="#CMR17-5d" transform="translate(173.301961 0) scale(0.996264)"/>
      <use xlink:href="#StandardSymL-4d" transform="translate(198.173019 0) scale(0.896632)"/>
      <use xlink:href="#CMR17-43" transform="translate(249.819008 0) scale(0.996264)"/>
      <use xlink:href="#CMR17-5f" transform="translate(318.891437 0) scale(0.996264)"/>
     </g>
    </g>
   </g>
   <g id="line2d_42">
    <path d="M 77.368381 273.86204 
L 80.676731 273.86199 
L 83.985081 273.861904 
L 87.293432 273.861802 
L 90.601782 273.861666 
L 93.910133 273.861488 
L 97.218483 273.861252 
L 100.526833 273.860941 
L 103.835184 273.86053 
L 107.143534 273.85999 
L 110.451885 273.859277 
L 113.760235 273.858337 
L 117.068586 273.857098 
L 120.376936 273.855464 
L 123.685286 273.853309 
L 126.993637 273.850466 
L 130.301987 273.846717 
L 133.610338 273.841769 
L 136.918688 273.835241 
L 140.227038 273.826625 
L 143.535389 273.815253 
L 146.843739 273.800244 
L 150.15209 273.780432 
L 153.46044 273.754283 
L 156.76879 273.719776 
L 160.077141 273.674248 
L 163.385491 273.614204 
L 166.693842 273.535061 
L 170.002192 273.430825 
L 173.310542 273.293695 
L 176.618893 273.11356 
L 179.927243 272.877412 
L 183.235594 272.568654 
L 186.543944 272.166364 
L 189.852295 271.64455 
L 193.160645 270.971557 
L 196.468995 270.109775 
L 199.777346 269.015931 
L 203.085696 267.642214 
L 206.394047 265.938421 
L 209.702397 263.855099 
L 213.010747 261.3473 
L 216.319098 258.378164 
L 219.627448 254.921423 
L 222.935799 250.962142 
L 226.244149 246.495754 
L 229.552499 241.52641 
L 232.86085 236.066618 
L 236.1692 230.141336 
L 239.477551 223.802797 
L 242.785901 217.173549 
L 246.094251 210.577212 
L 249.402602 204.964474 
L 252.710952 201.668404 
L 256.019303 200.555976 
L 259.327653 200.671982 
L 262.636004 201.679494 
L 265.944354 203.562513 
L 269.252704 206.918486 
L 272.561055 211.4161 
L 275.869405 216.164541 
L 279.177756 220.856046 
L 282.486106 225.391794 
L 285.794456 229.731714 
L 289.102807 233.855827 
L 292.411157 237.754498 
L 295.719508 241.42311 
L 299.027858 244.860066 
L 302.336208 248.06576 
L 305.644559 251.042027 
L 308.952909 253.791835 
L 312.26126 256.319106 
L 315.56961 258.628634 
L 318.87796 260.726046 
L 322.186311 262.617817 
L 325.494661 264.311312 
L 328.803012 265.81484 
L 332.111362 267.137724 
L 335.419712 268.290345 
L 338.728063 269.28416 
L 342.036413 270.131647 
L 345.344764 270.846158 
L 348.653114 271.441675 
L 351.961465 271.932459 
L 355.269815 272.332637 
L 358.578165 272.655766 
L 361.886516 272.914445 
L 365.194866 273.120021 
L 368.503217 273.282422 
L 371.811567 273.410109 
L 375.119917 273.51014 
L 378.428268 273.588293 
L 381.736618 273.649232 
L 385.044969 273.696683 
L 388.353319 273.733595 
L 391.661669 273.76229 
L 394.97002 273.784589 
L 398.27837 273.801912 
L 401.586721 273.815368 
L 404.895071 273.825821 
L 408.203421 273.83394 
L 411.511772 273.840248 
L 414.820122 273.845149 
L 418.128473 273.848957 
L 421.436823 273.851917 
L 424.745174 273.854218 
L 428.053524 273.856007 
L 431.361874 273.857399 
L 434.670225 273.858481 
L 437.978575 273.859324 
L 441.286926 273.859979 
L 444.595276 273.86049 
L 447.903626 273.860887 
L 451.211977 273.861197 
L 454.520327 273.861438 
L 457.828678 273.861626 
L 461.137028 273.861773 
L 464.445378 273.861887 
L 467.753729 273.861976 
L 471.062079 273.862046 
L 474.37043 273.862107 
" clip-path="url(#pc613f4141f)" style="fill: none; stroke-dasharray: 5.55,2.4; stroke-dashoffset: 0; stroke: #0000ff; stroke-width: 1.5"/>
   </g>
   <g id="line2d_43">
    <path d="M 77.368381 273.861907 
L 80.676731 273.861861 
L 83.985081 273.861779 
L 87.293432 273.86168 
L 90.601782 273.861548 
L 93.910133 273.861373 
L 97.218483 273.86114 
L 100.526833 273.860833 
L 103.835184 273.860426 
L 107.143534 273.859888 
L 110.451885 273.859178 
L 113.760235 273.858242 
L 117.068586 273.857005 
L 120.376936 273.855374 
L 123.685286 273.853222 
L 126.993637 273.850383 
L 130.301987 273.846636 
L 133.610338 273.841691 
L 136.918688 273.835165 
L 140.227038 273.826551 
L 143.535389 273.815182 
L 146.843739 273.800174 
L 150.15209 273.780364 
L 153.46044 273.754216 
L 156.76879 273.719709 
L 160.077141 273.674179 
L 163.385491 273.614129 
L 166.693842 273.534973 
L 170.002192 273.430713 
L 173.310542 273.29354 
L 176.618893 273.113327 
L 179.927243 272.877038 
L 183.235594 272.568032 
L 186.543944 272.165304 
L 189.852295 271.642727 
L 193.160645 270.968411 
L 196.468995 270.104366 
L 199.777346 269.006699 
L 203.085696 267.626626 
L 206.394047 265.912457 
L 209.702397 263.812551 
L 213.010747 261.278838 
L 216.319098 258.270148 
L 219.627448 254.754385 
L 222.935799 250.708786 
L 226.244149 246.118105 
L 229.552499 240.971333 
L 232.86085 235.258065 
L 236.1692 228.965634 
L 239.477551 222.077783 
L 242.785901 214.575142 
L 246.094251 206.437501 
L 249.402602 197.648059 
L 252.710952 188.200564 
L 256.019303 178.112506 
L 259.327653 167.453958 
L 262.636004 156.423929 
L 265.944354 145.589078 
L 269.252704 136.627186 
L 272.561055 131.289232 
L 275.869405 129.053469 
L 279.177756 128.97661 
L 282.486106 130.872878 
L 285.794456 135.392362 
L 289.102807 143.781069 
L 292.411157 154.226503 
L 295.719508 165.017152 
L 299.027858 175.567725 
L 302.336208 185.668287 
L 305.644559 195.219203 
L 308.952909 204.174482 
L 312.26126 212.511223 
L 315.56961 220.219743 
L 318.87796 227.298861 
L 322.186311 233.753557 
L 325.494661 239.593803 
L 328.803012 244.83404 
L 332.111362 249.493031 
L 335.419712 253.593923 
L 338.728063 257.164379 
L 342.036413 260.236655 
L 345.344764 262.847472 
L 348.653114 265.03756 
L 351.961465 266.850779 
L 355.269815 268.332808 
L 358.578165 269.529524 
L 361.886516 270.485276 
L 365.194866 271.241323 
L 368.503217 271.834667 
L 371.811567 272.297395 
L 375.119917 272.656532 
L 378.428268 272.93429 
L 381.736618 273.148578 
L 385.044969 273.31362 
L 388.353319 273.440592 
L 391.661669 273.538208 
L 394.97002 273.613225 
L 398.27837 273.670861 
L 401.586721 273.715142 
L 404.895071 273.749161 
L 408.203421 273.7753 
L 411.511772 273.795385 
L 414.820122 273.810822 
L 418.128473 273.822688 
L 421.436823 273.831812 
L 424.745174 273.838828 
L 428.053524 273.844224 
L 431.361874 273.848376 
L 434.670225 273.851571 
L 437.978575 273.854031 
L 441.286926 273.855924 
L 444.595276 273.857382 
L 447.903626 273.858506 
L 451.211977 273.859371 
L 454.520327 273.860038 
L 457.828678 273.860553 
L 461.137028 273.860949 
L 464.445378 273.861255 
L 467.753729 273.861491 
L 471.062079 273.861673 
L 474.37043 273.861814 
" clip-path="url(#pc613f4141f)" style="fill: none; stroke-dasharray: 5.55,2.4; stroke-dashoffset: 0; stroke: #008000; stroke-width: 1.5"/>
   </g>
   <g id="line2d_44">
    <path d="M 77.368381 273.861509 
L 80.676731 273.861474 
L 83.985081 273.861403 
L 87.293432 273.861316 
L 90.601782 273.861194 
L 93.910133 273.861029 
L 97.218483 273.860807 
L 100.526833 273.860509 
L 103.835184 273.860112 
L 107.143534 273.859584 
L 110.451885 273.858884 
L 113.760235 273.857956 
L 117.068586 273.856729 
L 120.376936 273.855107 
L 123.685286 273.852963 
L 126.993637 273.850132 
L 130.301987 273.846393 
L 133.610338 273.841456 
L 136.918688 273.834937 
L 140.227038 273.826331 
L 143.535389 273.814969 
L 146.843739 273.799969 
L 150.15209 273.780165 
L 153.46044 273.754024 
L 156.76879 273.719522 
L 160.077141 273.673997 
L 163.385491 273.61395 
L 166.693842 273.534795 
L 170.002192 273.430533 
L 173.310542 273.29335 
L 176.618893 273.113114 
L 179.927243 272.876782 
L 183.235594 272.567695 
L 186.543944 272.164821 
L 189.852295 271.641987 
L 193.160645 270.967225 
L 196.468995 270.102414 
L 199.777346 269.003458 
L 203.085696 267.621248 
L 206.394047 265.903612 
L 209.702397 263.798207 
L 213.010747 261.255988 
L 216.319098 258.234488 
L 219.627448 254.699949 
L 222.935799 250.627537 
L 226.244149 245.999468 
L 229.552499 240.801614 
L 232.86085 235.01967 
L 236.1692 228.635952 
L 239.477551 221.627521 
L 242.785901 213.965768 
L 246.094251 205.617207 
L 249.402602 196.545036 
L 252.710952 186.711099 
L 256.019303 176.077993 
L 259.327653 164.611287 
L 262.636004 152.282042 
L 265.944354 139.070107 
L 269.252704 124.969322 
L 272.561055 109.997292 
L 275.869405 94.216904 
L 279.177756 77.79237 
L 282.486106 61.165773 
L 285.794456 45.795726 
L 289.102807 34.850025 
L 292.411157 29.178428 
L 295.719508 27.441053 
L 299.027858 29.301952 
L 302.336208 35.606867 
L 305.644559 49.495933 
L 308.952909 69.620276 
L 312.26126 91.379563 
L 315.56961 112.753071 
L 318.87796 133.011627 
L 322.186311 151.856569 
L 325.494661 169.147647 
L 328.803012 184.830047 
L 332.111362 198.895277 
L 335.419712 211.36678 
L 338.728063 222.293203 
L 342.036413 231.745011 
L 345.344764 239.812302 
L 348.653114 246.602537 
L 351.961465 252.237425 
L 355.269815 256.848568 
L 358.578165 260.572013 
L 361.886516 263.542261 
L 365.194866 265.886596 
L 368.503217 267.720576 
L 371.811567 269.145228 
L 375.119917 270.246008 
L 378.428268 271.093249 
L 381.736618 271.743589 
L 385.044969 272.241891 
L 388.353319 272.623259 
L 391.661669 272.91493 
L 394.97002 273.137916 
L 398.27837 273.308359 
L 401.586721 273.438636 
L 404.895071 273.538216 
L 408.203421 273.61434 
L 411.511772 273.672543 
L 414.820122 273.717051 
L 418.128473 273.751093 
L 421.436823 273.777135 
L 424.745174 273.797063 
L 428.053524 273.812314 
L 431.361874 273.823989 
L 434.670225 273.83293 
L 437.978575 273.839777 
L 441.286926 273.845023 
L 444.595276 273.849043 
L 447.903626 273.852124 
L 451.211977 273.854486 
L 454.520327 273.856298 
L 457.828678 273.857687 
L 461.137028 273.858754 
L 464.445378 273.859572 
L 467.753729 273.8602 
L 471.062079 273.860683 
L 474.37043 273.861053 
" clip-path="url(#pc613f4141f)" style="fill: none; stroke-dasharray: 5.55,2.4; stroke-dashoffset: 0; stroke: #ff0000; stroke-width: 1.5"/>
   </g>
   <g id="patch_8">
    <path d="M 57.518278 286.18316 
L 57.518278 15.12 
" style="fill: none; stroke: #000000; stroke-width: 0.8; stroke-linejoin: miter; stroke-linecap: square"/>
   </g>
   <g id="patch_9">
    <path d="M 494.220532 286.18316 
L 494.220532 15.12 
" style="fill: none; stroke: #000000; stroke-width: 0.8; stroke-linejoin: miter; stroke-linecap: square"/>
   </g>
   <g id="patch_10">
    <path d="M 57.518278 286.18316 
L 494.220532 286.18316 
" style="fill: none; stroke: #000000; stroke-width: 0.8; stroke-linejoin: miter; stroke-linecap: square"/>
   </g>
   <g id="patch_11">
    <path d="M 57.518278 15.12 
L 494.220532 15.12 
" style="fill: none; stroke: #000000; stroke-width: 0.8; stroke-linejoin: miter; stroke-linecap: square"/>
   </g>
  </g>
 </g>
 <defs>
  <clipPath id="pc613f4141f">
   <rect x="57.518278" y="15.12" width="436.702254" height="271.06316"/>
  </clipPath>
 </defs>
</svg>
