<?xml version="1.0" encoding="UTF-8" standalone="no"?>
<svg 
  version="1.1"
  xmlns="http://www.w3.org/2000/svg"
  height="100%" width="100%"
  viewBox="-240.0 -250.0 1440.0 4960.0">


  <defs>
    <!-- Define the repeating diagonal pattern -->
    <pattern id="nwell-stipple" width="20" height="20" patternUnits="userSpaceOnUse" patternTransform="rotate(45)">
      <line x1="00" y1="0" x2="0" y2="20" stroke="#268c6b" stroke-width="10" />
    </pattern>

    <pattern id="m1-stipple" width="40" height="40" patternUnits="userSpaceOnUse" patternTransform="rotate(135)">
      <line x1="00" y1="0" x2="0" y2="40" stroke="#39bfff" stroke-width="20" />
    </pattern>
  </defs>    

  <rect x="-240.0" y="-250.0" width="1440.0" height="4960.0" fill="#000000" />
   <g transform="scale(1, -1) translate(0, -4460.0)">
<polygon 
    points=" 1200.0,4710.0 -240.0,4710.0 -240.0,1880.0000000000002 1200.0,1880.0000000000002  "
fill="#268c6b"
stroke="#268c6b"
stroke-width="10.0"
opacity="0.5" />
<polygon 
    points=" 0.0,4170.0 105.0,4170.0 105.0,2310.0 855.0,2310.0 855.0,3290.0 285.00000000000006,3290.0 285.00000000000006,3590.0 405.0,3590.0 405.0,4170.0 960.0,4170.0 960.0,4470.0 0.0,4470.0  "
fill="#00ff00"
stroke="#00ff00"
stroke-width="10.0"
opacity="0.5" />
<polygon 
    points=" 105.0,150.0 0.0,150.0 0.0,-150.0 960.0,-150.0 960.0,150.0 405.0,150.0 405.0,630.0 285.00000000000006,630.0 285.00000000000006,930.0 855.0,930.0 855.0,1570.0 105.0,1570.0  "
fill="#00ff00"
stroke="#00ff00"
stroke-width="10.0"
opacity="0.5" />
<polygon 
    points=" 1070.0,4090.0 -110.0,4090.0 -110.0,1880.0000000000002 1070.0,1880.0000000000002  "
fill="#ccb899"
stroke="#ccb899"
stroke-width="10.0"
opacity="0.3" />
<polygon 
    points=" 990.0,180.0 -30.0,180.0 -30.0,-180.0 990.0,-180.0  "
fill="#ccb899"
stroke="#ccb899"
stroke-width="10.0"
opacity="0.3" />
<polygon 
    points=" 515.0,3490.0 385.0,3490.0 385.0,2210.0 105.0,2210.0 105.0,1910.0000000000002 385.0,1910.0000000000002 385.0,730.0 515.0,730.0  "
fill="#bf4026"
stroke="#bf4026"
stroke-width="10.0"
opacity="1.0" />
<polygon 
    points=" 385.0,3770.0 385.0,4070.0000000000005 960.0,4070.0000000000005 960.0,4570.0 0.0,4570.0 0.0,4070.0000000000005 125.0,4070.0000000000005 125.0,3770.0  "
fill="#39bfff"
stroke="39bfff"
stroke-width="10.0"
opacity="0.8" />
<polygon 
    points=" 575.0000000000001,3270.0 575.0000000000001,950.0000000000001 835.0,950.0000000000001 835.0,3270.0  "
fill="#39bfff"
stroke="39bfff"
stroke-width="10.0"
opacity="0.8" />
<polygon 
    points=" 360.0,2320.0 115.0,2320.0 115.0,1930.0 360.0,1930.0  "
fill="#39bfff"
stroke="39bfff"
stroke-width="10.0"
opacity="0.8" />
<polygon 
    points=" 960.0,250.0 385.0,250.0 385.0,480.0 125.0,480.0 125.0,250.0 0.0,250.0 0.0,-250.0 960.0,-250.0  "
fill="#39bfff"
stroke="39bfff"
stroke-width="10.0"
opacity="0.8" />
<polygon 
    points=" 800.0,4400.0 640.0,4400.0 640.0,4240.0 800.0,4240.0  "
fill="#ffffff"
stroke="#000000"
stroke-width="10.0"
opacity="1.0" />
<line x1="640.0" y1="4240.0" x2="800.0" y2="4400.0" stroke="#000000" stroke-width="10.0" />
<line x1="640.0" y1="4400.0" x2="800.0" y2="4240.0" stroke="#000000" stroke-width="10.0" />
<polygon 
    points=" 320.0,4400.0 160.0,4400.0 160.0,4240.0 320.0,4240.0  "
fill="#ffffff"
stroke="#000000"
stroke-width="10.0"
opacity="1.0" />
<line x1="160.0" y1="4240.0" x2="320.0" y2="4400.0" stroke="#000000" stroke-width="10.0" />
<line x1="160.0" y1="4400.0" x2="320.0" y2="4240.0" stroke="#000000" stroke-width="10.0" />
<polygon 
    points=" 335.0,3980.0 175.00000000000003,3980.0 175.00000000000003,3820.0000000000005 335.0,3820.0000000000005  "
fill="#ffffff"
stroke="#000000"
stroke-width="10.0"
opacity="1.0" />
<line x1="175.00000000000003" y1="3820.0000000000005" x2="335.0" y2="3980.0" stroke="#000000" stroke-width="10.0" />
<line x1="175.00000000000003" y1="3980.0" x2="335.0" y2="3820.0000000000005" stroke="#000000" stroke-width="10.0" />
<polygon 
    points=" 785.0,3220.0 625.0,3220.0 625.0,2380.0 785.0,2380.0  "
fill="#ffffff"
stroke="#000000"
stroke-width="10.0"
opacity="1.0" />
<line x1="625.0" y1="2380.0" x2="785.0" y2="3220.0" stroke="#000000" stroke-width="10.0" />
<line x1="625.0" y1="3220.0" x2="785.0" y2="2380.0" stroke="#000000" stroke-width="10.0" />
<polygon 
    points=" 335.0,2140.0 175.00000000000003,2140.0 175.00000000000003,1980.0 335.0,1980.0  "
fill="#ffffff"
stroke="#000000"
stroke-width="10.0"
opacity="1.0" />
<line x1="175.00000000000003" y1="1980.0" x2="335.0" y2="2140.0" stroke="#000000" stroke-width="10.0" />
<line x1="175.00000000000003" y1="2140.0" x2="335.0" y2="1980.0" stroke="#000000" stroke-width="10.0" />
<polygon 
    points=" 785.0,1500.0 625.0,1500.0 625.0,1000.0 785.0,1000.0  "
fill="#ffffff"
stroke="#000000"
stroke-width="10.0"
opacity="1.0" />
<line x1="625.0" y1="1000.0" x2="785.0" y2="1500.0" stroke="#000000" stroke-width="10.0" />
<line x1="625.0" y1="1500.0" x2="785.0" y2="1000.0" stroke="#000000" stroke-width="10.0" />
<polygon 
    points=" 335.0,430.0 175.00000000000003,430.0 175.00000000000003,270.0 335.0,270.0  "
fill="#ffffff"
stroke="#000000"
stroke-width="10.0"
opacity="1.0" />
<line x1="175.00000000000003" y1="270.0" x2="335.0" y2="430.0" stroke="#000000" stroke-width="10.0" />
<line x1="175.00000000000003" y1="430.0" x2="335.0" y2="270.0" stroke="#000000" stroke-width="10.0" />
<polygon 
    points=" 320.0,80.0 160.0,80.0 160.0,-80.0 320.0,-80.0  "
fill="#ffffff"
stroke="#000000"
stroke-width="10.0"
opacity="1.0" />
<line x1="160.0" y1="-80.0" x2="320.0" y2="80.0" stroke="#000000" stroke-width="10.0" />
<line x1="160.0" y1="80.0" x2="320.0" y2="-80.0" stroke="#000000" stroke-width="10.0" />
<polygon 
    points=" 800.0,80.0 640.0,80.0 640.0,-80.0 800.0,-80.0  "
fill="#ffffff"
stroke="#000000"
stroke-width="10.0"
opacity="1.0" />
<line x1="640.0" y1="-80.0" x2="800.0" y2="80.0" stroke="#000000" stroke-width="10.0" />
<line x1="640.0" y1="80.0" x2="800.0" y2="-80.0" stroke="#000000" stroke-width="10.0" />
<polygon 
    points=" 960.0,0.0 960.0,4320.0 0.0,4320.0 0.0,0.0  "
fill="none"
stroke="#9900e6"
stroke-width="10.0"
opacity="0.5" />
</g>
  <text x="465.0" y="140.0" font-size="160.0px" fill="#000000" text-anchor="middle" dominant-baseline="middle" stroke="#113444" stroke-width="1.5" font-family="Arial">
VDD
</text>
  <text x="455.0" y="4460.0" font-size="160.0px" fill="#000000" text-anchor="middle" dominant-baseline="middle" stroke="#113444" stroke-width="1.5" font-family="Arial">
VSS
</text>
  <text x="720.0" y="2300.0" font-size="160.0px" fill="#000000" text-anchor="middle" dominant-baseline="middle" stroke="#113444" stroke-width="1.5" font-family="Arial">
Y
</text>
  <text x="240.0" y="2300.0" font-size="160.0px" fill="#000000" text-anchor="middle" dominant-baseline="middle" stroke="#113444" stroke-width="1.5" font-family="Arial">
A
</text>
</svg>
