<?xml version="1.0" encoding="UTF-8"?>
<svg xmlns="http://www.w3.org/2000/svg" xmlns:xlink="http://www.w3.org/1999/xlink" width="203pt" height="191pt" viewBox="0 0 203 191" version="1.1">
<rect width="100%" height="100%" fill="white" />
<defs>
<g>
<symbol overflow="visible" id="glyph0-0">
<path style="stroke:none;" d=""/>
</symbol>
<symbol overflow="visible" id="glyph0-1">
<path style="stroke:none;" d="M 8.84375 -5.21875 C 8.84375 -7.140625 7.578125 -8.421875 5.796875 -8.421875 C 3.21875 -8.421875 0.578125 -5.71875 0.578125 -2.921875 C 0.578125 -0.9375 1.921875 0.265625 3.640625 0.265625 C 6.1875 0.265625 8.84375 -2.359375 8.84375 -5.21875 Z M 3.71875 -0.046875 C 2.53125 -0.046875 1.703125 -1.015625 1.703125 -2.59375 C 1.703125 -3.125 1.859375 -4.859375 2.78125 -6.265625 C 3.609375 -7.5 4.78125 -8.125 5.71875 -8.125 C 6.703125 -8.125 7.78125 -7.453125 7.78125 -5.671875 C 7.78125 -4.8125 7.453125 -2.953125 6.28125 -1.484375 C 5.703125 -0.75 4.71875 -0.046875 3.71875 -0.046875 Z M 3.71875 -0.046875 "/>
</symbol>
<symbol overflow="visible" id="glyph0-2">
<path style="stroke:none;" d="M 8.46875 -2.78125 C 8.484375 -2.84375 8.515625 -2.921875 8.515625 -2.953125 C 8.515625 -2.96875 8.515625 -3.078125 8.375 -3.078125 C 8.265625 -3.078125 8.25 -3.015625 8.21875 -2.9375 C 7.453125 -1.171875 7 -0.375 4.953125 -0.375 L 3.21875 -0.375 C 3.046875 -0.375 3.03125 -0.375 2.953125 -0.375 C 2.828125 -0.390625 2.796875 -0.40625 2.796875 -0.5 C 2.796875 -0.53125 2.796875 -0.5625 2.859375 -0.78125 L 3.671875 -4.046875 L 4.859375 -4.046875 C 5.875 -4.046875 5.875 -3.796875 5.875 -3.484375 C 5.875 -3.40625 5.875 -3.265625 5.78125 -2.90625 C 5.765625 -2.84375 5.75 -2.8125 5.75 -2.765625 C 5.75 -2.71875 5.796875 -2.640625 5.90625 -2.640625 C 6 -2.640625 6.03125 -2.703125 6.078125 -2.875 L 6.765625 -5.671875 C 6.765625 -5.75 6.703125 -5.8125 6.625 -5.8125 C 6.515625 -5.8125 6.484375 -5.734375 6.453125 -5.59375 C 6.203125 -4.6875 5.984375 -4.40625 4.890625 -4.40625 L 3.765625 -4.40625 L 4.484375 -7.296875 C 4.59375 -7.703125 4.609375 -7.75 5.125 -7.75 L 6.8125 -7.75 C 8.265625 -7.75 8.625 -7.40625 8.625 -6.4375 C 8.625 -6.140625 8.625 -6.125 8.578125 -5.796875 C 8.578125 -5.71875 8.578125 -5.640625 8.578125 -5.578125 C 8.578125 -5.515625 8.609375 -5.4375 8.71875 -5.4375 C 8.84375 -5.4375 8.859375 -5.515625 8.875 -5.734375 L 9.125 -7.8125 C 9.15625 -8.125 9.09375 -8.125 8.796875 -8.125 L 2.765625 -8.125 C 2.515625 -8.125 2.40625 -8.125 2.40625 -7.890625 C 2.40625 -7.75 2.515625 -7.75 2.734375 -7.75 C 3.171875 -7.75 3.515625 -7.75 3.515625 -7.546875 C 3.515625 -7.5 3.515625 -7.46875 3.453125 -7.25 L 1.875 -0.9375 C 1.75 -0.46875 1.734375 -0.375 0.78125 -0.375 C 0.578125 -0.375 0.453125 -0.375 0.453125 -0.140625 C 0.453125 0 0.5625 0 0.78125 0 L 7 0 C 7.265625 0 7.28125 -0.015625 7.359375 -0.203125 Z M 8.46875 -2.78125 "/>
</symbol>
<symbol overflow="visible" id="glyph0-3">
<path style="stroke:none;" d="M 2.140625 -1.375 C 1.65625 -0.578125 1.1875 -0.40625 0.671875 -0.375 C 0.53125 -0.359375 0.421875 -0.359375 0.421875 -0.125 C 0.421875 -0.0625 0.484375 0 0.578125 0 C 0.890625 0 1.265625 -0.03125 1.609375 -0.03125 C 2 -0.03125 2.421875 0 2.796875 0 C 2.875 0 3.03125 0 3.03125 -0.234375 C 3.03125 -0.359375 2.921875 -0.375 2.828125 -0.375 C 2.5625 -0.390625 2.265625 -0.484375 2.265625 -0.78125 C 2.265625 -0.9375 2.34375 -1.0625 2.4375 -1.234375 L 3.34375 -2.765625 L 6.34375 -2.765625 C 6.375 -2.515625 6.53125 -0.890625 6.53125 -0.765625 C 6.53125 -0.40625 5.921875 -0.375 5.671875 -0.375 C 5.515625 -0.375 5.390625 -0.375 5.390625 -0.125 C 5.390625 0 5.53125 0 5.5625 0 C 6.046875 0 6.5625 -0.03125 7.046875 -0.03125 C 7.34375 -0.03125 8.109375 0 8.40625 0 C 8.46875 0 8.625 0 8.625 -0.234375 C 8.625 -0.375 8.5 -0.375 8.34375 -0.375 C 7.609375 -0.375 7.609375 -0.453125 7.5625 -0.796875 L 6.84375 -8.265625 C 6.8125 -8.515625 6.8125 -8.5625 6.609375 -8.5625 C 6.421875 -8.5625 6.375 -8.46875 6.296875 -8.359375 Z M 3.578125 -3.125 L 5.921875 -7.078125 L 6.3125 -3.125 Z M 3.578125 -3.125 "/>
</symbol>
<symbol overflow="visible" id="glyph0-4">
<path style="stroke:none;" d="M 7.140625 -6.796875 L 7.296875 -6.96875 C 7.65625 -7.328125 8.0625 -7.734375 8.875 -7.796875 C 9 -7.8125 9.109375 -7.8125 9.109375 -8.015625 C 9.109375 -8.109375 9.046875 -8.15625 8.953125 -8.15625 C 8.640625 -8.15625 8.296875 -8.125 7.96875 -8.125 C 7.578125 -8.125 7.15625 -8.15625 6.78125 -8.15625 C 6.703125 -8.15625 6.546875 -8.15625 6.546875 -7.9375 C 6.546875 -7.8125 6.671875 -7.796875 6.734375 -7.796875 C 6.8125 -7.796875 7.15625 -7.765625 7.15625 -7.515625 C 7.15625 -7.3125 6.890625 -7 6.84375 -6.9375 L 4.0625 -3.75 L 2.75 -7.296875 C 2.671875 -7.46875 2.671875 -7.5 2.671875 -7.5 C 2.671875 -7.796875 3.265625 -7.796875 3.375 -7.796875 C 3.546875 -7.796875 3.671875 -7.796875 3.671875 -8.03125 C 3.671875 -8.15625 3.53125 -8.15625 3.484375 -8.15625 C 3.15625 -8.15625 2.3125 -8.125 1.984375 -8.125 C 1.6875 -8.125 0.9375 -8.15625 0.640625 -8.15625 C 0.578125 -8.15625 0.421875 -8.15625 0.421875 -7.921875 C 0.421875 -7.796875 0.53125 -7.796875 0.6875 -7.796875 C 1.40625 -7.796875 1.453125 -7.6875 1.5625 -7.390625 L 3.03125 -3.453125 C 3.046875 -3.421875 3.078125 -3.28125 3.078125 -3.25 C 3.078125 -3.21875 2.609375 -1.296875 2.546875 -1.078125 C 2.390625 -0.421875 2.375 -0.375 1.421875 -0.375 C 1.1875 -0.375 1.09375 -0.375 1.09375 -0.125 C 1.09375 0 1.25 0 1.265625 0 C 1.609375 0 2.4375 -0.03125 2.765625 -0.03125 C 3.109375 -0.03125 3.96875 0 4.296875 0 C 4.390625 0 4.53125 0 4.53125 -0.234375 C 4.53125 -0.375 4.421875 -0.375 4.203125 -0.375 C 4.171875 -0.375 3.9375 -0.375 3.734375 -0.390625 C 3.484375 -0.421875 3.421875 -0.4375 3.421875 -0.578125 C 3.421875 -0.671875 3.53125 -1.09375 3.578125 -1.34375 L 4 -3.03125 C 4.0625 -3.25 4.078125 -3.28125 4.171875 -3.390625 Z M 7.140625 -6.796875 "/>
</symbol>
<symbol overflow="visible" id="glyph0-5">
<path style="stroke:none;" d="M 9.03125 -6.90625 C 9.15625 -7.390625 9.375 -7.75 10.328125 -7.796875 C 10.390625 -7.796875 10.53125 -7.8125 10.53125 -8.03125 C 10.53125 -8.046875 10.53125 -8.15625 10.375 -8.15625 C 9.984375 -8.15625 9.5625 -8.125 9.171875 -8.125 C 8.765625 -8.125 8.34375 -8.15625 7.953125 -8.15625 C 7.875 -8.15625 7.734375 -8.15625 7.734375 -7.921875 C 7.734375 -7.796875 7.859375 -7.796875 7.953125 -7.796875 C 8.625 -7.78125 8.765625 -7.53125 8.765625 -7.265625 C 8.765625 -7.234375 8.734375 -7.046875 8.71875 -7.015625 L 7.390625 -1.703125 L 4.75 -7.9375 C 4.65625 -8.15625 4.640625 -8.15625 4.359375 -8.15625 L 2.765625 -8.15625 C 2.515625 -8.15625 2.421875 -8.15625 2.421875 -7.921875 C 2.421875 -7.796875 2.515625 -7.796875 2.75 -7.796875 C 2.8125 -7.796875 3.5625 -7.796875 3.5625 -7.6875 L 1.953125 -1.265625 C 1.84375 -0.78125 1.640625 -0.40625 0.671875 -0.375 C 0.59375 -0.375 0.46875 -0.359375 0.46875 -0.125 C 0.46875 -0.046875 0.53125 0 0.625 0 C 1 0 1.421875 -0.03125 1.8125 -0.03125 C 2.21875 -0.03125 2.65625 0 3.046875 0 C 3.109375 0 3.265625 0 3.265625 -0.234375 C 3.265625 -0.359375 3.15625 -0.375 3.03125 -0.375 C 2.328125 -0.390625 2.234375 -0.65625 2.234375 -0.890625 C 2.234375 -0.984375 2.25 -1.046875 2.28125 -1.171875 L 3.859375 -7.484375 C 3.90625 -7.40625 3.90625 -7.390625 3.96875 -7.265625 L 6.9375 -0.234375 C 7.03125 -0.03125 7.0625 0 7.171875 0 C 7.296875 0 7.296875 -0.03125 7.359375 -0.25 Z M 9.03125 -6.90625 "/>
</symbol>
</g>
</defs>
<g id="surface1">
<path style="fill:none;stroke-width:9.75;stroke-linecap:round;stroke-linejoin:bevel;stroke:rgb(0%,0%,0%);stroke-opacity:1;stroke-miterlimit:6;" d="M 673.789062 665 L 673.789062 530 L 553.789062 530 L 553.789062 320 L 673.789062 320 L 673.789062 185 " transform="matrix(0.1,0,0,-0.1,0,191)"/>
<path style="fill:none;stroke-width:9.75;stroke-linecap:round;stroke-linejoin:bevel;stroke:rgb(0%,0%,0%);stroke-opacity:1;stroke-miterlimit:6;" d="M 508.789062 530 L 508.789062 320 " transform="matrix(0.1,0,0,-0.1,0,191)"/>
<path style="fill:none;stroke-width:9.75;stroke-linecap:round;stroke-linejoin:bevel;stroke:rgb(0%,0%,0%);stroke-opacity:1;stroke-miterlimit:6;" d="M 433.789062 425 L 508.789062 425 " transform="matrix(0.1,0,0,-0.1,0,191)"/>
<path style="fill:none;stroke-width:9.75;stroke-linecap:round;stroke-linejoin:bevel;stroke:rgb(0%,0%,0%);stroke-opacity:1;stroke-miterlimit:6;" d="M 673.789062 1025 L 673.789062 890 L 553.789062 890 L 553.789062 680 L 673.789062 680 L 673.789062 545 " transform="matrix(0.1,0,0,-0.1,0,191)"/>
<path style="fill:none;stroke-width:9.75;stroke-linecap:round;stroke-linejoin:bevel;stroke:rgb(0%,0%,0%);stroke-opacity:1;stroke-miterlimit:6;" d="M 508.789062 890 L 508.789062 680 " transform="matrix(0.1,0,0,-0.1,0,191)"/>
<path style="fill:none;stroke-width:9.75;stroke-linecap:round;stroke-linejoin:bevel;stroke:rgb(0%,0%,0%);stroke-opacity:1;stroke-miterlimit:6;" d="M 433.789062 785 L 508.789062 785 " transform="matrix(0.1,0,0,-0.1,0,191)"/>
<path style="fill:none;stroke-width:9.75;stroke-linecap:round;stroke-linejoin:bevel;stroke:rgb(0%,0%,0%);stroke-opacity:1;stroke-miterlimit:6;" d="M 673.789062 125 L 673.789062 245 " transform="matrix(0.1,0,0,-0.1,0,191)"/>
<path style="fill:none;stroke-width:9.75;stroke-linecap:round;stroke-linejoin:bevel;stroke:rgb(0%,0%,0%);stroke-opacity:1;stroke-miterlimit:6;" d="M 793.789062 125 L 553.789062 125 " transform="matrix(0.1,0,0,-0.1,0,191)"/>
<path style="fill:none;stroke-width:9.75;stroke-linecap:round;stroke-linejoin:bevel;stroke:rgb(0%,0%,0%);stroke-opacity:1;stroke-miterlimit:6;" d="M 741.289062 72.5 L 606.289062 72.5 " transform="matrix(0.1,0,0,-0.1,0,191)"/>
<path style="fill:none;stroke-width:9.75;stroke-linecap:round;stroke-linejoin:bevel;stroke:rgb(0%,0%,0%);stroke-opacity:1;stroke-miterlimit:6;" d="M 688.789062 20 L 658.789062 20 " transform="matrix(0.1,0,0,-0.1,0,191)"/>
<path style="fill:none;stroke-width:9.75;stroke-linecap:round;stroke-linejoin:bevel;stroke:rgb(0%,0%,0%);stroke-opacity:1;stroke-miterlimit:6;" d="M 508.789062 1370 L 508.789062 1160 " transform="matrix(0.1,0,0,-0.1,0,191)"/>
<path style="fill:none;stroke-width:9.75;stroke-linecap:round;stroke-linejoin:bevel;stroke:rgb(0%,0%,0%);stroke-opacity:1;stroke-miterlimit:6;" d="M 433.789062 1265 L 448.789062 1265 " transform="matrix(0.1,0,0,-0.1,0,191)"/>
<path style="fill:none;stroke-width:9.75;stroke-linecap:round;stroke-linejoin:bevel;stroke:rgb(0%,0%,0%);stroke-opacity:1;stroke-miterlimit:6;" d="M 673.789062 1505 L 673.789062 1370 L 553.789062 1370 L 553.789062 1160 L 673.789062 1160 L 673.789062 1025 " transform="matrix(0.1,0,0,-0.1,0,191)"/>
<path style="fill:none;stroke-width:9.75;stroke-linecap:round;stroke-linejoin:bevel;stroke:rgb(0%,0%,0%);stroke-opacity:1;stroke-miterlimit:6;" d="M 508.789062 1265 C 508.789062 1281.5625 495.351562 1295 478.789062 1295 C 462.226562 1295 448.789062 1281.5625 448.789062 1265 C 448.789062 1248.4375 462.226562 1235 478.789062 1235 C 495.351562 1235 508.789062 1248.4375 508.789062 1265 " transform="matrix(0.1,0,0,-0.1,0,191)"/>
<path style="fill:none;stroke-width:9.75;stroke-linecap:round;stroke-linejoin:bevel;stroke:rgb(0%,0%,0%);stroke-opacity:1;stroke-miterlimit:6;" d="M 373.789062 785 L 433.789062 785 " transform="matrix(0.1,0,0,-0.1,0,191)"/>
<path style="fill:none;stroke-width:9.75;stroke-linecap:round;stroke-linejoin:bevel;stroke:rgb(0%,0%,0%);stroke-opacity:1;stroke-miterlimit:6;" d="M 373.789062 425 L 433.789062 425 " transform="matrix(0.1,0,0,-0.1,0,191)"/>
<path style="fill:none;stroke-width:9.75;stroke-linecap:round;stroke-linejoin:bevel;stroke:rgb(0%,0%,0%);stroke-opacity:1;stroke-miterlimit:6;" d="M 373.789062 1265 L 433.789062 1265 " transform="matrix(0.1,0,0,-0.1,0,191)"/>
<path style="fill:none;stroke-width:9.75;stroke-linecap:round;stroke-linejoin:bevel;stroke:rgb(0%,0%,0%);stroke-opacity:1;stroke-miterlimit:6;" d="M 373.789062 1625 L 433.789062 1625 " transform="matrix(0.1,0,0,-0.1,0,191)"/>
<path style="fill:none;stroke-width:9.75;stroke-linecap:round;stroke-linejoin:bevel;stroke:rgb(0%,0%,0%);stroke-opacity:1;stroke-miterlimit:6;" d="M 508.789062 1730 L 508.789062 1520 " transform="matrix(0.1,0,0,-0.1,0,191)"/>
<path style="fill:none;stroke-width:9.75;stroke-linecap:round;stroke-linejoin:bevel;stroke:rgb(0%,0%,0%);stroke-opacity:1;stroke-miterlimit:6;" d="M 433.789062 1625 L 448.789062 1625 " transform="matrix(0.1,0,0,-0.1,0,191)"/>
<path style="fill:none;stroke-width:9.75;stroke-linecap:round;stroke-linejoin:bevel;stroke:rgb(0%,0%,0%);stroke-opacity:1;stroke-miterlimit:6;" d="M 673.789062 1865 L 673.789062 1730 L 553.789062 1730 L 553.789062 1520 L 673.789062 1520 L 673.789062 1385 " transform="matrix(0.1,0,0,-0.1,0,191)"/>
<path style="fill:none;stroke-width:9.75;stroke-linecap:round;stroke-linejoin:bevel;stroke:rgb(0%,0%,0%);stroke-opacity:1;stroke-miterlimit:6;" d="M 508.789062 1625 C 508.789062 1641.5625 495.351562 1655 478.789062 1655 C 462.226562 1655 448.789062 1641.5625 448.789062 1625 C 448.789062 1608.4375 462.226562 1595 478.789062 1595 C 495.351562 1595 508.789062 1608.4375 508.789062 1625 " transform="matrix(0.1,0,0,-0.1,0,191)"/>
<path style="fill:none;stroke-width:7.8;stroke-linecap:round;stroke-linejoin:bevel;stroke:rgb(0%,0%,0%);stroke-opacity:1;stroke-miterlimit:6;" d="M 808.789062 1865 L 583.789062 1865 " transform="matrix(0.1,0,0,-0.1,0,191)"/>
<path style=" stroke:none;fill-rule:evenodd;fill:rgb(0%,0%,0%);fill-opacity:1;" d="M 77.878906 7.5 C 81.628906 5.625 82.753906 5.625 88.378906 4.5 C 82.753906 3.375 81.628906 3.375 77.878906 1.5 C 78.628906 3.75 78.628906 5.25 77.878906 7.5 "/>
<path style=" stroke:none;fill-rule:evenodd;fill:rgb(0%,0%,0%);fill-opacity:1;" d="M 69.628906 4.5 C 69.628906 3.257812 68.621094 2.25 67.378906 2.25 C 66.136719 2.25 65.128906 3.257812 65.128906 4.5 C 65.128906 5.742188 66.136719 6.75 67.378906 6.75 C 68.621094 6.75 69.628906 5.742188 69.628906 4.5 "/>
<path style="fill:none;stroke-width:9.75;stroke-linecap:round;stroke-linejoin:bevel;stroke:rgb(0%,0%,0%);stroke-opacity:1;stroke-miterlimit:6;" d="M 373.789062 1265 L 373.789062 785 " transform="matrix(0.1,0,0,-0.1,0,191)"/>
<path style="fill:none;stroke-width:9.75;stroke-linecap:round;stroke-linejoin:bevel;stroke:rgb(0%,0%,0%);stroke-opacity:1;stroke-miterlimit:6;" d="M 253.789062 1025 L 373.789062 1025 " transform="matrix(0.1,0,0,-0.1,0,191)"/>
<path style=" stroke:none;fill-rule:evenodd;fill:rgb(0%,0%,0%);fill-opacity:1;" d="M 39.628906 88.5 C 39.628906 87.257812 38.621094 86.25 37.378906 86.25 C 36.136719 86.25 35.128906 87.257812 35.128906 88.5 C 35.128906 89.742188 36.136719 90.75 37.378906 90.75 C 38.621094 90.75 39.628906 89.742188 39.628906 88.5 "/>
<path style="fill:none;stroke-width:9.75;stroke-linecap:round;stroke-linejoin:bevel;stroke:rgb(0%,0%,0%);stroke-opacity:1;stroke-miterlimit:6;" d="M 853.789062 1025 L 673.789062 1025 " transform="matrix(0.1,0,0,-0.1,0,191)"/>
<path style=" stroke:none;fill-rule:evenodd;fill:rgb(0%,0%,0%);fill-opacity:1;" d="M 69.628906 88.5 C 69.628906 87.257812 68.621094 86.25 67.378906 86.25 C 66.136719 86.25 65.128906 87.257812 65.128906 88.5 C 65.128906 89.742188 66.136719 90.75 67.378906 90.75 C 68.621094 90.75 69.628906 89.742188 69.628906 88.5 "/>
<path style="fill:none;stroke-width:9.75;stroke-linecap:round;stroke-linejoin:bevel;stroke:rgb(0%,0%,0%);stroke-opacity:1;stroke-miterlimit:6;" d="M 1843.789062 1025 L 1573.789062 1175 L 1573.789062 875 Z M 1843.789062 1025 " transform="matrix(0.1,0,0,-0.1,0,191)"/>
<path style="fill:none;stroke-width:9.75;stroke-linecap:round;stroke-linejoin:bevel;stroke:rgb(0%,0%,0%);stroke-opacity:1;stroke-miterlimit:6;" d="M 1903.789062 1025 C 1903.789062 1041.5625 1890.351562 1055 1873.789062 1055 C 1857.226562 1055 1843.789062 1041.5625 1843.789062 1025 C 1843.789062 1008.4375 1857.226562 995 1873.789062 995 C 1890.351562 995 1903.789062 1008.4375 1903.789062 1025 " transform="matrix(0.1,0,0,-0.1,0,191)"/>
<path style="fill:none;stroke-width:9.75;stroke-linecap:round;stroke-linejoin:bevel;stroke:rgb(0%,0%,0%);stroke-opacity:1;stroke-miterlimit:6;" d="M 1513.789062 1025 L 1573.789062 1025 " transform="matrix(0.1,0,0,-0.1,0,191)"/>
<path style="fill:none;stroke-width:9.75;stroke-linecap:round;stroke-linejoin:bevel;stroke:rgb(0%,0%,0%);stroke-opacity:1;stroke-miterlimit:6;" d="M 1933.789062 1025 L 1903.789062 1025 " transform="matrix(0.1,0,0,-0.1,0,191)"/>
<path style="fill:none;stroke-width:9.75;stroke-linecap:round;stroke-linejoin:bevel;stroke:rgb(0%,0%,0%);stroke-opacity:1;stroke-miterlimit:6;" d="M 1693.789062 845 L 1693.789062 935 " transform="matrix(0.1,0,0,-0.1,0,191)"/>
<path style="fill:none;stroke-width:9.75;stroke-linecap:round;stroke-linejoin:bevel;stroke:rgb(0%,0%,0%);stroke-opacity:1;stroke-miterlimit:6;" d="M 1723.789062 1145 C 1723.789062 1161.5625 1710.351562 1175 1693.789062 1175 C 1677.226562 1175 1663.789062 1161.5625 1663.789062 1145 C 1663.789062 1128.4375 1677.226562 1115 1693.789062 1115 C 1710.351562 1115 1723.789062 1128.4375 1723.789062 1145 " transform="matrix(0.1,0,0,-0.1,0,191)"/>
<path style="fill:none;stroke-width:9.75;stroke-linecap:round;stroke-linejoin:bevel;stroke:rgb(0%,0%,0%);stroke-opacity:1;stroke-miterlimit:6;" d="M 1693.789062 1175 L 1693.789062 1205 " transform="matrix(0.1,0,0,-0.1,0,191)"/>
<g style="fill:rgb(13.729858%,12.159729%,12.548828%);fill-opacity:1;">
  <use xlink:href="#glyph0-1" x="12.152" y="151.2398"/>
</g>
<g style="fill:rgb(13.729858%,12.159729%,12.548828%);fill-opacity:1;">
  <use xlink:href="#glyph0-2" x="21.512182" y="151.2398"/>
</g>
<g style="fill:rgb(13.729858%,12.159729%,12.548828%);fill-opacity:1;">
  <use xlink:href="#glyph0-3" x="16.47192" y="91.48"/>
</g>
<g style="fill:rgb(13.729858%,12.159729%,12.548828%);fill-opacity:1;">
  <use xlink:href="#glyph0-4" x="85.160402" y="91.48"/>
</g>
<g style="fill:rgb(13.729858%,12.159729%,12.548828%);fill-opacity:1;">
  <use xlink:href="#glyph0-1" x="1.20782" y="30.9999"/>
</g>
<g style="fill:rgb(13.729858%,12.159729%,12.548828%);fill-opacity:1;">
  <use xlink:href="#glyph0-2" x="10.568002" y="30.9999"/>
</g>
<g style="fill:rgb(13.729858%,12.159729%,12.548828%);fill-opacity:1;">
  <use xlink:href="#glyph0-5" x="20.071934" y="30.9999"/>
</g>
<g style="fill:rgb(13.729858%,12.159729%,12.548828%);fill-opacity:1;">
  <use xlink:href="#glyph0-4" x="193.15982" y="91.48"/>
</g>
<g style="fill:rgb(13.729858%,12.159729%,12.548828%);fill-opacity:1;">
  <use xlink:href="#glyph0-3" x="142.471446" y="91.48"/>
</g>
<g style="fill:rgb(13.729858%,12.159729%,12.548828%);fill-opacity:1;">
  <use xlink:href="#glyph0-1" x="159.89572" y="115.2398"/>
</g>
<g style="fill:rgb(13.729858%,12.159729%,12.548828%);fill-opacity:1;">
  <use xlink:href="#glyph0-2" x="169.2559" y="115.2398"/>
</g>
<g style="fill:rgb(13.729858%,12.159729%,12.548828%);fill-opacity:1;">
  <use xlink:href="#glyph0-1" x="154.42345" y="67.7199"/>
</g>
<g style="fill:rgb(13.729858%,12.159729%,12.548828%);fill-opacity:1;">
  <use xlink:href="#glyph0-2" x="163.78363" y="67.7199"/>
</g>
<g style="fill:rgb(13.729858%,12.159729%,12.548828%);fill-opacity:1;">
  <use xlink:href="#glyph0-5" x="173.287564" y="67.7199"/>
</g>
</g>
</svg>
