<?xml version="1.0" encoding="utf-8" standalone="no"?>
<!DOCTYPE svg PUBLIC "-//W3C//DTD SVG 1.1//EN"
  "http://www.w3.org/Graphics/SVG/1.1/DTD/svg11.dtd">
<svg xmlns:xlink="http://www.w3.org/1999/xlink" width="547.945205pt" height="338.648761pt" viewBox="0 0 547.945205 338.648761" xmlns="http://www.w3.org/2000/svg" version="1.1">
 <metadata>
  <rdf:RDF xmlns:dc="http://purl.org/dc/elements/1.1/" xmlns:cc="http://creativecommons.org/ns#" xmlns:rdf="http://www.w3.org/1999/02/22-rdf-syntax-ns#">
   <cc:Work>
    <dc:type rdf:resource="http://purl.org/dc/dcmitype/StillImage"/>
    <dc:date>2026-06-14T21:03:41.017088</dc:date>
    <dc:format>image/svg+xml</dc:format>
    <dc:creator>
     <cc:Agent>
      <dc:title>Matplotlib v3.11.0, https://matplotlib.org/</dc:title>
     </cc:Agent>
    </dc:creator>
   </cc:Work>
  </rdf:RDF>
 </metadata>
 <defs>
  <style type="text/css">*{stroke-linejoin: round; stroke-linecap: butt}</style>
 </defs>
 <g id="figure_1">
  <g id="patch_1">
   <path d="M 0 338.648761 
L 547.945205 338.648761 
L 547.945205 0 
L 0 0 
z
" style="fill: #ffffff"/>
  </g>
  <g id="axes_1">
   <g id="patch_2">
    <path d="M 57.518278 286.18316 
L 529.410961 286.18316 
L 529.410961 15.12 
L 57.518278 15.12 
z
" style="fill: #ffffff"/>
   </g>
   <g id="matplotlib.axis_1">
    <g id="xtick_1">
     <g id="line2d_1">
      <path d="M 57.518278 286.18316 
L 57.518278 15.12 
" clip-path="url(#p9d7f359125)" style="fill: none; stroke: #b0b0b0; stroke-width: 0.8; stroke-linecap: square"/>
     </g>
     <g id="line2d_2">
      <defs>
       <path id="m30f9cb584a" d="M 0 0 
L 0 3.5 
" style="stroke: #000000; stroke-width: 0.8"/>
      </defs>
      <g>
       <use xlink:href="#m30f9cb584a" x="57.518278" y="286.18316" style="stroke: #000000; stroke-width: 0.8"/>
      </g>
     </g>
     <g id="text_1">
      <!-- $\mathdefault{0}$ -->
      <g transform="translate(54.104034 302.869036) scale(0.14 -0.14)">
       <defs>
        <path id="CMR17-32" d="M 2688 2038 
C 2688 2430 2681 3099 2412 3613 
C 2176 4063 1798 4224 1465 4224 
C 1158 4224 768 4082 524 3620 
C 268 3137 243 2539 243 2038 
C 243 1671 249 1112 448 623 
C 723 -39 1216 -128 1465 -128 
C 1760 -128 2208 -7 2470 604 
C 2662 1048 2688 1568 2688 2038 
z
M 1465 -26 
C 1056 -26 812 328 723 816 
C 652 1196 652 1749 652 2109 
C 652 2604 652 3015 736 3407 
C 857 3954 1216 4121 1465 4121 
C 1728 4121 2067 3947 2188 3420 
C 2272 3054 2278 2623 2278 2109 
C 2278 1691 2278 1176 2201 797 
C 2067 96 1689 -26 1465 -26 
z
" transform="scale(0.015625)"/>
       </defs>
       <use xlink:href="#CMR17-32" transform="scale(0.996264)"/>
      </g>
     </g>
    </g>
    <g id="xtick_2">
     <g id="line2d_3">
      <path d="M 151.896815 286.18316 
L 151.896815 15.12 
" clip-path="url(#p9d7f359125)" style="fill: none; stroke: #b0b0b0; stroke-width: 0.8; stroke-linecap: square"/>
     </g>
     <g id="line2d_4">
      <g>
       <use xlink:href="#m30f9cb584a" x="151.896815" y="286.18316" style="stroke: #000000; stroke-width: 0.8"/>
      </g>
     </g>
     <g id="text_2">
      <!-- $\mathdefault{1}$ -->
      <g transform="translate(148.48257 302.869036) scale(0.14 -0.14)">
       <defs>
        <path id="CMR17-33" d="M 1702 4083 
C 1702 4217 1696 4224 1606 4224 
C 1356 3927 979 3833 620 3820 
C 601 3820 569 3820 563 3808 
C 556 3795 556 3782 556 3648 
C 755 3648 1088 3686 1344 3839 
L 1344 467 
C 1344 243 1331 166 780 166 
L 588 166 
L 588 0 
C 896 6 1216 12 1523 12 
C 1830 12 2150 6 2457 0 
L 2457 166 
L 2265 166 
C 1715 166 1702 236 1702 467 
L 1702 4083 
z
" transform="scale(0.015625)"/>
       </defs>
       <use xlink:href="#CMR17-33" transform="scale(0.996264)"/>
      </g>
     </g>
    </g>
    <g id="xtick_3">
     <g id="line2d_5">
      <path d="M 246.275351 286.18316 
L 246.275351 15.12 
" clip-path="url(#p9d7f359125)" style="fill: none; stroke: #b0b0b0; stroke-width: 0.8; stroke-linecap: square"/>
     </g>
     <g id="line2d_6">
      <g>
       <use xlink:href="#m30f9cb584a" x="246.275351" y="286.18316" style="stroke: #000000; stroke-width: 0.8"/>
      </g>
     </g>
     <g id="text_3">
      <!-- $\mathdefault{2}$ -->
      <g transform="translate(242.861107 302.869036) scale(0.14 -0.14)">
       <defs>
        <path id="CMR17-34" d="M 2668 990 
L 2553 990 
C 2489 537 2438 460 2412 422 
C 2380 371 1920 371 1830 371 
L 601 371 
C 832 620 1280 1073 1824 1596 
C 2214 1966 2668 2400 2668 3033 
C 2668 3788 2067 4224 1395 4224 
C 691 4224 262 3603 262 3027 
C 262 2777 448 2745 524 2745 
C 588 2745 780 2783 780 3007 
C 780 3206 614 3264 524 3264 
C 486 3264 448 3257 422 3244 
C 544 3788 915 4057 1305 4057 
C 1862 4057 2227 3616 2227 3033 
C 2227 2477 1900 1998 1536 1583 
L 262 147 
L 262 0 
L 2515 0 
L 2668 990 
z
" transform="scale(0.015625)"/>
       </defs>
       <use xlink:href="#CMR17-34" transform="scale(0.996264)"/>
      </g>
     </g>
    </g>
    <g id="xtick_4">
     <g id="line2d_7">
      <path d="M 340.653888 286.18316 
L 340.653888 15.12 
" clip-path="url(#p9d7f359125)" style="fill: none; stroke: #b0b0b0; stroke-width: 0.8; stroke-linecap: square"/>
     </g>
     <g id="line2d_8">
      <g>
       <use xlink:href="#m30f9cb584a" x="340.653888" y="286.18316" style="stroke: #000000; stroke-width: 0.8"/>
      </g>
     </g>
     <g id="text_4">
      <!-- $\mathdefault{3}$ -->
      <g transform="translate(337.239644 302.869036) scale(0.14 -0.14)">
       <defs>
        <path id="CMR17-35" d="M 1414 2176 
C 1984 2176 2233 1673 2233 1094 
C 2233 322 1824 25 1452 25 
C 1113 25 563 193 390 691 
C 422 678 454 678 486 678 
C 640 678 755 780 755 947 
C 755 1132 614 1216 486 1216 
C 377 1216 211 1164 211 927 
C 211 335 787 -128 1465 -128 
C 2176 -128 2720 432 2720 1087 
C 2720 1718 2208 2176 1600 2246 
C 2086 2347 2553 2776 2553 3353 
C 2553 3856 2048 4224 1472 4224 
C 889 4224 377 3862 377 3347 
C 377 3123 544 3084 627 3084 
C 761 3084 876 3167 876 3334 
C 876 3500 761 3584 627 3584 
C 601 3584 569 3584 544 3571 
C 729 3999 1235 4076 1459 4076 
C 1683 4076 2105 3966 2105 3347 
C 2105 3167 2080 2851 1862 2574 
C 1670 2329 1452 2316 1241 2297 
C 1209 2297 1062 2284 1036 2284 
C 992 2278 966 2272 966 2227 
C 966 2182 972 2176 1100 2176 
L 1414 2176 
z
" transform="scale(0.015625)"/>
       </defs>
       <use xlink:href="#CMR17-35" transform="scale(0.996264)"/>
      </g>
     </g>
    </g>
    <g id="xtick_5">
     <g id="line2d_9">
      <path d="M 435.032425 286.18316 
L 435.032425 15.12 
" clip-path="url(#p9d7f359125)" style="fill: none; stroke: #b0b0b0; stroke-width: 0.8; stroke-linecap: square"/>
     </g>
     <g id="line2d_10">
      <g>
       <use xlink:href="#m30f9cb584a" x="435.032425" y="286.18316" style="stroke: #000000; stroke-width: 0.8"/>
      </g>
     </g>
     <g id="text_5">
      <!-- $\mathdefault{4}$ -->
      <g transform="translate(431.61818 302.869036) scale(0.14 -0.14)">
       <defs>
        <path id="CMR17-36" d="M 2150 4147 
C 2150 4281 2144 4288 2028 4288 
L 128 1254 
L 128 1088 
L 1779 1088 
L 1779 460 
C 1779 230 1766 166 1318 166 
L 1196 166 
L 1196 0 
C 1401 12 1747 12 1964 12 
C 2182 12 2528 12 2732 0 
L 2732 166 
L 2611 166 
C 2163 166 2150 230 2150 460 
L 2150 1088 
L 2803 1088 
L 2803 1254 
L 2150 1254 
L 2150 4147 
z
M 1798 3723 
L 1798 1254 
L 256 1254 
L 1798 3723 
z
" transform="scale(0.015625)"/>
       </defs>
       <use xlink:href="#CMR17-36" transform="scale(0.996264)"/>
      </g>
     </g>
    </g>
    <g id="xtick_6">
     <g id="line2d_11">
      <path d="M 529.410961 286.18316 
L 529.410961 15.12 
" clip-path="url(#p9d7f359125)" style="fill: none; stroke: #b0b0b0; stroke-width: 0.8; stroke-linecap: square"/>
     </g>
     <g id="line2d_12">
      <g>
       <use xlink:href="#m30f9cb584a" x="529.410961" y="286.18316" style="stroke: #000000; stroke-width: 0.8"/>
      </g>
     </g>
     <g id="text_6">
      <!-- $\mathdefault{5}$ -->
      <g transform="translate(525.996717 302.869036) scale(0.14 -0.14)">
       <defs>
        <path id="CMR17-37" d="M 729 3750 
C 793 3724 1056 3641 1324 3641 
C 1920 3641 2246 3961 2432 4140 
C 2432 4191 2432 4224 2393 4224 
C 2387 4224 2374 4224 2323 4198 
C 2099 4102 1836 4032 1516 4032 
C 1324 4032 1036 4055 723 4191 
C 652 4224 640 4224 633 4224 
C 601 4224 595 4217 595 4090 
L 595 2231 
C 595 2113 595 2080 659 2080 
C 691 2080 704 2093 736 2139 
C 940 2435 1222 2560 1542 2560 
C 1766 2560 2246 2415 2246 1293 
C 2246 1087 2246 716 2054 422 
C 1894 159 1644 25 1369 25 
C 947 25 518 319 403 812 
C 428 806 480 793 505 793 
C 588 793 748 838 748 1036 
C 748 1209 627 1280 505 1280 
C 358 1280 262 1190 262 1011 
C 262 454 704 -128 1382 -128 
C 2041 -128 2668 441 2668 1267 
C 2668 2054 2169 2662 1548 2662 
C 1222 2662 947 2540 729 2304 
L 729 3750 
z
" transform="scale(0.015625)"/>
       </defs>
       <use xlink:href="#CMR17-37" transform="scale(0.996264)"/>
      </g>
     </g>
    </g>
    <g id="text_7">
     <!-- $t~\mr{[ns]}$ -->
     <g transform="translate(278.441945 320.041837) scale(0.14 -0.14)">
      <defs>
       <path id="CMMI12-75" d="M 1286 2566 
L 1875 2566 
C 1996 2566 2060 2566 2060 2681 
C 2060 2752 2022 2752 1894 2752 
L 1331 2752 
L 1568 3664 
C 1593 3752 1593 3764 1593 3808 
C 1593 3910 1510 3968 1427 3968 
C 1376 3968 1228 3948 1177 3746 
L 928 2752 
L 326 2752 
C 198 2752 140 2752 140 2630 
C 140 2566 185 2566 307 2566 
L 876 2566 
L 454 881 
C 403 657 384 593 384 510 
C 384 210 595 -64 953 -64 
C 1600 -64 1945 868 1945 913 
C 1945 951 1920 970 1881 970 
C 1868 970 1843 970 1830 944 
C 1824 938 1817 932 1772 830 
C 1638 510 1344 64 972 64 
C 780 64 768 223 768 364 
C 768 370 768 491 787 568 
L 1286 2566 
z
" transform="scale(0.015625)"/>
       <path id="CMR17-5d" d="M 1504 -1600 
L 1504 -1376 
L 902 -1376 
L 902 4575 
L 1504 4575 
L 1504 4800 
L 678 4800 
L 678 -1600 
L 1504 -1600 
z
" transform="scale(0.015625)"/>
       <path id="CMR17-70" d="M 2656 1954 
C 2656 2282 2592 2816 1836 2816 
C 1331 2816 1068 2424 972 2166 
L 966 2166 
L 966 2816 
L 211 2745 
L 211 2578 
C 588 2578 646 2540 646 2231 
L 646 443 
C 646 198 620 166 211 166 
L 211 0 
C 364 12 646 12 812 12 
C 979 12 1267 12 1420 0 
L 1420 166 
C 1011 166 985 192 985 443 
L 985 1678 
C 985 2269 1344 2713 1792 2713 
C 2265 2713 2316 2289 2316 1980 
L 2316 443 
C 2316 198 2291 166 1881 166 
L 1881 0 
C 2035 12 2316 12 2483 12 
C 2649 12 2937 12 3091 0 
L 3091 166 
C 2681 166 2656 192 2656 443 
L 2656 1954 
z
" transform="scale(0.015625)"/>
       <path id="CMR17-75" d="M 1977 2688 
C 1977 2803 1971 2809 1932 2809 
C 1907 2809 1900 2803 1824 2707 
C 1804 2681 1747 2617 1728 2592 
C 1523 2809 1235 2816 1126 2816 
C 416 2816 160 2444 160 2073 
C 160 1497 812 1363 998 1324 
C 1401 1241 1542 1216 1676 1100 
C 1760 1024 1900 883 1900 652 
C 1900 384 1747 38 1158 38 
C 601 38 403 460 288 1024 
C 268 1113 268 1120 217 1120 
C 166 1120 160 1113 160 985 
L 160 64 
C 160 -52 166 -58 204 -58 
C 236 -58 243 -52 275 0 
C 313 57 409 211 448 275 
C 576 102 800 -64 1158 -64 
C 1792 -64 2131 281 2131 780 
C 2131 1107 1958 1280 1875 1356 
C 1683 1555 1459 1600 1190 1651 
C 838 1728 390 1817 390 2208 
C 390 2374 480 2726 1126 2726 
C 1811 2726 1849 2086 1862 1881 
C 1868 1849 1900 1843 1920 1843 
C 1977 1843 1977 1862 1977 1971 
L 1977 2688 
z
" transform="scale(0.015625)"/>
       <path id="CMR17-5f" d="M 915 4800 
L 89 4800 
L 89 4575 
L 691 4575 
L 691 -1376 
L 89 -1376 
L 89 -1600 
L 915 -1600 
L 915 4800 
z
" transform="scale(0.015625)"/>
      </defs>
      <use xlink:href="#CMMI12-75" transform="scale(0.996264)"/>
      <use xlink:href="#CMR17-5d" transform="translate(66.455443 0) scale(0.996264)"/>
      <use xlink:href="#CMR17-70" transform="translate(91.326501 0) scale(0.996264)"/>
      <use xlink:href="#CMR17-75" transform="translate(142.221871 0) scale(0.996264)"/>
      <use xlink:href="#CMR17-5f" transform="translate(178.023209 0) scale(0.996264)"/>
     </g>
    </g>
   </g>
   <g id="matplotlib.axis_2">
    <g id="ytick_1">
     <g id="line2d_13">
      <path d="M 57.518278 268.560927 
L 529.410961 268.560927 
" clip-path="url(#p9d7f359125)" style="fill: none; stroke: #b0b0b0; stroke-width: 0.8; stroke-linecap: square"/>
     </g>
     <g id="line2d_14">
      <defs>
       <path id="m5852f4a7e4" d="M 0 0 
L -3.5 0 
" style="stroke: #000000; stroke-width: 0.8"/>
      </defs>
      <g>
       <use xlink:href="#m5852f4a7e4" x="57.518278" y="268.560927" style="stroke: #000000; stroke-width: 0.8"/>
      </g>
     </g>
     <g id="text_8">
      <!-- $\mathdefault{0.0}$ -->
      <g transform="translate(33.067696 273.403865) scale(0.14 -0.14)">
       <defs>
        <path id="CMMI12-3b" d="M 1177 307 
C 1177 492 1024 620 870 620 
C 684 620 556 467 556 313 
C 556 128 710 0 864 0 
C 1049 0 1177 153 1177 307 
z
" transform="scale(0.015625)"/>
       </defs>
       <use xlink:href="#CMR17-32" transform="scale(0.996264)"/>
       <use xlink:href="#CMMI12-3b" transform="translate(45.690477 0) scale(0.996264)"/>
       <use xlink:href="#CMR17-32" transform="translate(72.787654 0) scale(0.996264)"/>
      </g>
     </g>
    </g>
    <g id="ytick_2">
     <g id="line2d_15">
      <path d="M 57.518278 229.541245 
L 529.410961 229.541245 
" clip-path="url(#p9d7f359125)" style="fill: none; stroke: #b0b0b0; stroke-width: 0.8; stroke-linecap: square"/>
     </g>
     <g id="line2d_16">
      <g>
       <use xlink:href="#m5852f4a7e4" x="57.518278" y="229.541245" style="stroke: #000000; stroke-width: 0.8"/>
      </g>
     </g>
     <g id="text_9">
      <!-- $\mathdefault{0.2}$ -->
      <g transform="translate(33.067696 234.384184) scale(0.14 -0.14)">
       <use xlink:href="#CMR17-32" transform="scale(0.996264)"/>
       <use xlink:href="#CMMI12-3b" transform="translate(45.690477 0) scale(0.996264)"/>
       <use xlink:href="#CMR17-34" transform="translate(72.787654 0) scale(0.996264)"/>
      </g>
     </g>
    </g>
    <g id="ytick_3">
     <g id="line2d_17">
      <path d="M 57.518278 190.521564 
L 529.410961 190.521564 
" clip-path="url(#p9d7f359125)" style="fill: none; stroke: #b0b0b0; stroke-width: 0.8; stroke-linecap: square"/>
     </g>
     <g id="line2d_18">
      <g>
       <use xlink:href="#m5852f4a7e4" x="57.518278" y="190.521564" style="stroke: #000000; stroke-width: 0.8"/>
      </g>
     </g>
     <g id="text_10">
      <!-- $\mathdefault{0.4}$ -->
      <g transform="translate(33.067696 195.364502) scale(0.14 -0.14)">
       <use xlink:href="#CMR17-32" transform="scale(0.996264)"/>
       <use xlink:href="#CMMI12-3b" transform="translate(45.690477 0) scale(0.996264)"/>
       <use xlink:href="#CMR17-36" transform="translate(72.787654 0) scale(0.996264)"/>
      </g>
     </g>
    </g>
    <g id="ytick_4">
     <g id="line2d_19">
      <path d="M 57.518278 151.501882 
L 529.410961 151.501882 
" clip-path="url(#p9d7f359125)" style="fill: none; stroke: #b0b0b0; stroke-width: 0.8; stroke-linecap: square"/>
     </g>
     <g id="line2d_20">
      <g>
       <use xlink:href="#m5852f4a7e4" x="57.518278" y="151.501882" style="stroke: #000000; stroke-width: 0.8"/>
      </g>
     </g>
     <g id="text_11">
      <!-- $\mathdefault{0.6}$ -->
      <g transform="translate(33.067696 156.344821) scale(0.14 -0.14)">
       <defs>
        <path id="CMR17-38" d="M 678 2198 
C 678 3712 1395 4076 1811 4076 
C 1945 4076 2272 4049 2400 3782 
C 2297 3782 2105 3782 2105 3558 
C 2105 3385 2246 3328 2336 3328 
C 2393 3328 2566 3353 2566 3571 
C 2566 3987 2246 4224 1804 4224 
C 1043 4224 243 3411 243 2011 
C 243 257 966 -128 1478 -128 
C 2099 -128 2688 431 2688 1295 
C 2688 2101 2169 2688 1516 2688 
C 1126 2688 838 2430 678 1979 
L 678 2198 
z
M 1478 25 
C 691 25 691 1212 691 1450 
C 691 1914 908 2585 1504 2585 
C 1612 2585 1926 2585 2137 2140 
C 2252 1889 2252 1624 2252 1302 
C 2252 954 2252 696 2118 438 
C 1977 173 1772 25 1478 25 
z
" transform="scale(0.015625)"/>
       </defs>
       <use xlink:href="#CMR17-32" transform="scale(0.996264)"/>
       <use xlink:href="#CMMI12-3b" transform="translate(45.690477 0) scale(0.996264)"/>
       <use xlink:href="#CMR17-38" transform="translate(72.787654 0) scale(0.996264)"/>
      </g>
     </g>
    </g>
    <g id="ytick_5">
     <g id="line2d_21">
      <path d="M 57.518278 112.482201 
L 529.410961 112.482201 
" clip-path="url(#p9d7f359125)" style="fill: none; stroke: #b0b0b0; stroke-width: 0.8; stroke-linecap: square"/>
     </g>
     <g id="line2d_22">
      <g>
       <use xlink:href="#m5852f4a7e4" x="57.518278" y="112.482201" style="stroke: #000000; stroke-width: 0.8"/>
      </g>
     </g>
     <g id="text_12">
      <!-- $\mathdefault{0.8}$ -->
      <g transform="translate(33.067696 117.325139) scale(0.14 -0.14)">
       <defs>
        <path id="CMR17-3a" d="M 1740 2289 
C 2144 2494 2553 2803 2553 3298 
C 2553 3884 1990 4224 1472 4224 
C 889 4224 377 3800 377 3215 
C 377 3054 416 2777 665 2533 
C 729 2469 998 2276 1171 2154 
C 883 2006 211 1652 211 945 
C 211 282 838 -128 1459 -128 
C 2144 -128 2720 366 2720 1022 
C 2720 1607 2329 1877 2073 2051 
L 1740 2289 
z
M 902 2855 
C 851 2887 595 3086 595 3388 
C 595 3781 998 4076 1459 4076 
C 1964 4076 2336 3716 2336 3298 
C 2336 2700 1670 2359 1638 2359 
C 1632 2359 1625 2359 1574 2398 
L 902 2855 
z
M 2080 1536 
C 2176 1466 2483 1253 2483 861 
C 2483 385 2009 25 1472 25 
C 889 25 448 443 448 951 
C 448 1459 838 1884 1280 2083 
L 2080 1536 
z
" transform="scale(0.015625)"/>
       </defs>
       <use xlink:href="#CMR17-32" transform="scale(0.996264)"/>
       <use xlink:href="#CMMI12-3b" transform="translate(45.690477 0) scale(0.996264)"/>
       <use xlink:href="#CMR17-3a" transform="translate(72.787654 0) scale(0.996264)"/>
      </g>
     </g>
    </g>
    <g id="ytick_6">
     <g id="line2d_23">
      <path d="M 57.518278 73.462519 
L 529.410961 73.462519 
" clip-path="url(#p9d7f359125)" style="fill: none; stroke: #b0b0b0; stroke-width: 0.8; stroke-linecap: square"/>
     </g>
     <g id="line2d_24">
      <g>
       <use xlink:href="#m5852f4a7e4" x="57.518278" y="73.462519" style="stroke: #000000; stroke-width: 0.8"/>
      </g>
     </g>
     <g id="text_13">
      <!-- $\mathdefault{1.0}$ -->
      <g transform="translate(33.067696 78.305458) scale(0.14 -0.14)">
       <use xlink:href="#CMR17-33" transform="scale(0.996264)"/>
       <use xlink:href="#CMMI12-3b" transform="translate(45.690477 0) scale(0.996264)"/>
       <use xlink:href="#CMR17-32" transform="translate(72.787654 0) scale(0.996264)"/>
      </g>
     </g>
    </g>
    <g id="ytick_7">
     <g id="line2d_25">
      <path d="M 57.518278 34.442838 
L 529.410961 34.442838 
" clip-path="url(#p9d7f359125)" style="fill: none; stroke: #b0b0b0; stroke-width: 0.8; stroke-linecap: square"/>
     </g>
     <g id="line2d_26">
      <g>
       <use xlink:href="#m5852f4a7e4" x="57.518278" y="34.442838" style="stroke: #000000; stroke-width: 0.8"/>
      </g>
     </g>
     <g id="text_14">
      <!-- $\mathdefault{1.2}$ -->
      <g transform="translate(33.067696 39.285776) scale(0.14 -0.14)">
       <use xlink:href="#CMR17-33" transform="scale(0.996264)"/>
       <use xlink:href="#CMMI12-3b" transform="translate(45.690477 0) scale(0.996264)"/>
       <use xlink:href="#CMR17-34" transform="translate(72.787654 0) scale(0.996264)"/>
      </g>
     </g>
    </g>
    <g id="text_15">
     <!-- $V_\mr{out}~\mr{[V]}$ -->
     <g transform="translate(25.580772 173.317346) rotate(-90) scale(0.14 -0.14)">
      <defs>
       <path id="CMMI12-57" d="M 3961 3644 
C 4179 3987 4377 4140 4704 4166 
C 4768 4172 4819 4172 4819 4287 
C 4819 4313 4806 4352 4749 4352 
C 4633 4352 4358 4339 4243 4339 
C 4057 4339 3865 4352 3686 4352 
C 3635 4352 3571 4352 3571 4230 
C 3571 4172 3629 4166 3654 4166 
C 3891 4146 3917 4032 3917 3956 
C 3917 3860 3827 3714 3821 3708 
L 1811 540 
L 1363 3968 
C 1363 4153 1696 4166 1766 4166 
C 1862 4166 1920 4166 1920 4287 
C 1920 4352 1849 4352 1830 4352 
C 1721 4352 1593 4339 1484 4339 
L 1126 4339 
C 659 4339 467 4352 460 4352 
C 422 4352 345 4352 345 4236 
C 345 4166 390 4166 492 4166 
C 819 4166 838 4108 857 3949 
L 1369 25 
C 1388 -109 1388 -128 1478 -128 
C 1555 -128 1587 -109 1651 -7 
L 3961 3644 
z
" transform="scale(0.015625)"/>
       <path id="CMR17-71" d="M 2758 1356 
C 2758 2176 2163 2816 1465 2816 
C 768 2816 172 2176 172 1356 
C 172 550 768 -64 1465 -64 
C 2163 -64 2758 550 2758 1356 
z
M 1465 51 
C 1164 51 908 230 761 480 
C 601 768 582 1126 582 1408 
C 582 1676 595 2009 761 2297 
C 889 2508 1139 2713 1465 2713 
C 1753 2713 1996 2553 2150 2329 
C 2348 2028 2348 1606 2348 1408 
C 2348 1158 2336 774 2163 467 
C 1984 172 1708 51 1465 51 
z
" transform="scale(0.015625)"/>
       <path id="CMR17-77" d="M 1881 2745 
L 1881 2579 
C 2259 2579 2316 2540 2316 2229 
L 2316 1053 
C 2316 510 2028 38 1555 38 
C 1030 38 985 355 985 691 
L 985 2816 
L 211 2745 
L 211 2579 
C 467 2579 640 2579 646 2320 
L 646 1079 
C 646 646 646 368 812 187 
C 896 103 1056 -64 1516 -64 
C 2060 -64 2272 400 2323 536 
L 2329 536 
L 2329 -64 
L 3091 -13 
L 3091 154 
C 2713 154 2656 193 2656 503 
L 2656 2816 
L 1881 2745 
z
" transform="scale(0.015625)"/>
       <path id="CMR17-76" d="M 966 2585 
L 1862 2585 
L 1862 2752 
L 966 2752 
L 966 3968 
L 851 3968 
C 838 3292 614 2700 70 2687 
L 70 2585 
L 627 2585 
L 627 778 
C 627 655 627 -64 1369 -64 
C 1747 -64 1964 308 1964 784 
L 1964 1151 
L 1849 1151 
L 1849 790 
C 1849 347 1676 51 1408 51 
C 1222 51 966 179 966 765 
L 966 2585 
z
" transform="scale(0.015625)"/>
       <path id="CMR17-58" d="M 3776 3762 
C 3833 3903 3936 4179 4365 4185 
L 4365 4352 
C 4217 4339 4051 4339 3891 4339 
C 3737 4339 3475 4339 3328 4352 
L 3328 4185 
C 3648 4166 3661 3942 3661 3903 
C 3661 3833 3641 3788 3622 3737 
L 2361 448 
L 1043 3903 
C 1024 3948 1011 3980 1011 4012 
C 1011 4185 1267 4185 1401 4185 
L 1401 4352 
C 1196 4339 896 4339 684 4339 
C 518 4339 217 4339 64 4352 
L 64 4185 
C 435 4185 505 4160 582 3955 
L 2105 -26 
C 2137 -116 2144 -128 2214 -128 
C 2284 -128 2291 -116 2323 -26 
L 3776 3762 
z
" transform="scale(0.015625)"/>
      </defs>
      <use xlink:href="#CMMI12-57" transform="scale(0.996264)"/>
      <use xlink:href="#CMR17-71" transform="translate(56.869579 -14.943915) scale(0.697382)"/>
      <use xlink:href="#CMR17-77" transform="translate(88.852761 -14.943915) scale(0.697382)"/>
      <use xlink:href="#CMR17-76" transform="translate(124.479369 -14.943915) scale(0.697382)"/>
      <use xlink:href="#CMR17-5d" transform="translate(180.903035 0) scale(0.996264)"/>
      <use xlink:href="#CMR17-58" transform="translate(205.774093 0) scale(0.996264)"/>
      <use xlink:href="#CMR17-5f" transform="translate(274.846523 0) scale(0.996264)"/>
     </g>
    </g>
   </g>
   <g id="line2d_27">
    <path d="M 57.518278 268.560921 
L 151.991193 268.664605 
L 152.557465 269.276673 
L 153.312493 269.862568 
L 156.143849 271.533512 
L 157.087634 271.740896 
L 158.03142 271.091524 
L 158.975205 268.953002 
L 159.91899 264.956142 
L 160.626829 260.559005 
L 161.617804 251.996177 
L 165.581703 212.881748 
L 169.356844 177.505602 
L 172.1882 152.546876 
L 175.019556 129.376127 
L 177.850912 108.520853 
L 179.738483 96.174334 
L 181.626054 85.223344 
L 183.513625 75.727118 
L 185.401195 67.668044 
L 187.288766 60.958417 
L 189.176337 55.461334 
L 191.063907 51.015544 
L 192.951478 47.455492 
L 194.839049 44.626029 
L 196.72662 42.3927 
L 198.61419 40.637768 
L 200.501761 39.263433 
L 202.389332 38.189935 
L 204.276903 37.353109 
L 207.108259 36.432444 
L 209.939615 35.801829 
L 213.714756 35.259465 
L 218.433683 34.874419 
L 225.040181 34.619478 
L 235.42182 34.486173 
L 262.791595 34.443929 
L 350.18612 34.349089 
L 351.50742 33.038213 
L 353.39499 31.419392 
L 354.338776 31.154657 
L 355.282561 32.486498 
L 356.226347 37.228847 
L 357.170132 47.417994 
L 358.113917 64.567064 
L 358.821756 82.535496 
L 360.190245 128.637209 
L 361.889059 185.083209 
L 362.832844 211.943021 
L 363.776629 233.488108 
L 364.720415 248.587732 
L 365.6642 257.845263 
L 366.607986 262.993818 
L 367.551771 265.716567 
L 368.495556 267.116466 
L 369.439342 267.831939 
L 370.383127 268.192087 
L 372.270698 268.466862 
L 376.045839 268.554454 
L 404.3594 268.560878 
L 529.410961 268.560922 
L 529.410961 268.560922 
" clip-path="url(#p9d7f359125)" style="fill: none; stroke: #0000ff; stroke-width: 1.5; stroke-linecap: square"/>
   </g>
   <g id="line2d_28">
    <path d="M 57.518278 268.560916 
L 151.896815 268.560916 
L 152.557465 269.49324 
L 153.312493 270.264955 
L 155.200064 271.752817 
L 156.143849 272.126326 
L 157.087634 271.186233 
L 158.03142 267.513292 
L 158.975205 259.661989 
L 159.91899 246.730729 
L 160.626829 233.345292 
L 161.995318 198.739567 
L 163.694132 155.290425 
L 165.581703 113.507173 
L 166.525488 96.113333 
L 167.469273 81.45862 
L 168.413059 69.594762 
L 169.356844 60.322216 
L 170.300629 53.279833 
L 171.244415 48.040415 
L 172.1882 44.202226 
L 173.131986 41.417922 
L 174.075771 39.414507 
L 175.019556 37.978583 
L 175.963342 36.954591 
L 176.907127 36.224375 
L 177.850912 35.706032 
L 179.738483 35.076923 
L 181.626054 34.760911 
L 184.45741 34.555494 
L 190.120122 34.45692 
L 220.321254 34.442819 
L 350.091742 34.442844 
L 350.752391 33.310229 
L 351.50742 32.241272 
L 353.39499 30.11968 
L 354.338776 29.536216 
L 355.282561 30.308131 
L 356.226347 34.20401 
L 357.170132 43.438394 
L 358.113917 59.488235 
L 358.821756 76.510156 
L 360.190245 120.994203 
L 361.889059 176.625443 
L 362.832844 203.873297 
L 363.776629 226.679435 
L 364.720415 243.627806 
L 365.6642 254.666235 
L 366.607986 261.116823 
L 367.551771 264.655694 
L 368.495556 266.530354 
L 369.439342 267.512082 
L 370.383127 268.018767 
L 371.326912 268.282579 
L 373.214483 268.487554 
L 377.93341 268.557879 
L 430.78539 268.56091 
L 529.410961 268.560917 
L 529.410961 268.560917 
" clip-path="url(#p9d7f359125)" style="fill: none; stroke: #008000; stroke-width: 1.5; stroke-linecap: square"/>
   </g>
   <g id="line2d_29">
    <path d="M 57.518278 268.560902 
L 151.896815 268.560902 
L 152.557465 270.088837 
L 153.312493 271.38282 
L 155.200064 273.862107 
L 156.143849 273.856142 
L 157.087634 269.986126 
L 158.03142 258.667528 
L 158.975205 236.757569 
L 159.91899 202.746691 
L 161.429047 127.173042 
L 161.995318 98.435265 
L 162.750346 70.494325 
L 163.694132 50.294026 
L 164.637917 40.99571 
L 165.581703 37.082283 
L 166.525488 35.495809 
L 167.469273 34.860591 
L 168.413059 34.608839 
L 170.300629 34.469083 
L 177.850912 34.443039 
L 350.091742 34.442846 
L 350.752391 32.418803 
L 351.50742 30.999837 
L 353.39499 28.706912 
L 354.338776 27.721637 
L 355.282561 27.441053 
L 356.226347 29.387994 
L 357.170132 36.095872 
L 358.113917 49.186565 
L 358.821756 63.616603 
L 359.812731 91.343467 
L 361.889059 155.76216 
L 363.776629 207.079673 
L 364.720415 227.577166 
L 365.6642 243.115763 
L 366.607986 253.618524 
L 367.551771 260.092655 
L 368.495556 263.851214 
L 369.439342 265.969423 
L 370.383127 267.140645 
L 371.326912 267.786133 
L 372.270698 268.13762 
L 374.158268 268.435027 
L 376.989625 268.541021 
L 391.146405 268.560785 
L 529.410961 268.560906 
L 529.410961 268.560906 
" clip-path="url(#p9d7f359125)" style="fill: none; stroke: #ff0000; stroke-width: 1.5; stroke-linecap: square"/>
   </g>
   <g id="patch_3">
    <path d="M 57.518278 286.18316 
L 57.518278 15.12 
" style="fill: none; stroke: #000000; stroke-width: 0.8; stroke-linejoin: miter; stroke-linecap: square"/>
   </g>
   <g id="patch_4">
    <path d="M 529.410961 286.18316 
L 529.410961 15.12 
" style="fill: none; stroke: #000000; stroke-width: 0.8; stroke-linejoin: miter; stroke-linecap: square"/>
   </g>
   <g id="patch_5">
    <path d="M 57.518278 286.18316 
L 529.410961 286.18316 
" style="fill: none; stroke: #000000; stroke-width: 0.8; stroke-linejoin: miter; stroke-linecap: square"/>
   </g>
   <g id="patch_6">
    <path d="M 57.518278 15.12 
L 529.410961 15.12 
" style="fill: none; stroke: #000000; stroke-width: 0.8; stroke-linejoin: miter; stroke-linecap: square"/>
   </g>
   <g id="legend_1">
    <g id="patch_7">
     <path d="M 394.228623 90.674039 
L 519.610961 90.674039 
Q 522.410961 90.674039 522.410961 87.874039 
L 522.410961 24.92 
Q 522.410961 22.12 519.610961 22.12 
L 394.228623 22.12 
Q 391.428623 22.12 391.428623 24.92 
L 391.428623 87.874039 
Q 391.428623 90.674039 394.228623 90.674039 
z
" style="fill: #ffffff; opacity: 0.8; stroke: #cccccc; stroke-linejoin: miter"/>
    </g>
    <g id="line2d_30">
     <path d="M 397.028623 33.280772 
L 411.028623 33.280772 
L 425.028623 33.280772 
" style="fill: none; stroke: #0000ff; stroke-width: 1.5; stroke-linecap: square"/>
    </g>
    <g id="text_16">
     <!-- $W_\mr{p}/W_\mr{n}=0.5$ -->
     <g transform="translate(436.228623 38.180772) scale(0.14 -0.14)">
      <defs>
       <path id="CMMI12-58" d="M 5779 3644 
C 5926 3892 6067 4127 6451 4166 
C 6509 4172 6566 4179 6566 4281 
C 6566 4352 6509 4352 6489 4352 
C 6477 4352 6432 4339 6009 4339 
C 5817 4339 5619 4352 5433 4352 
C 5395 4352 5318 4352 5318 4230 
C 5318 4172 5369 4166 5408 4166 
C 5536 4159 5741 4121 5741 3924 
C 5741 3841 5715 3797 5651 3689 
L 3904 648 
L 3673 3962 
C 3673 4038 3744 4159 4102 4166 
C 4185 4166 4249 4166 4249 4287 
C 4249 4352 4185 4352 4153 4352 
C 3929 4352 3693 4339 3462 4339 
L 3129 4339 
C 3033 4339 2918 4352 2822 4352 
C 2784 4352 2707 4352 2707 4230 
C 2707 4166 2752 4166 2860 4166 
C 3155 4166 3155 4159 3180 3771 
L 3200 3542 
L 1542 648 
L 1305 3930 
C 1305 4000 1305 4159 1740 4166 
C 1811 4166 1881 4166 1881 4281 
C 1881 4352 1824 4352 1785 4352 
C 1561 4352 1324 4339 1094 4339 
L 761 4339 
C 665 4339 550 4352 454 4352 
C 416 4352 339 4352 339 4230 
C 339 4166 390 4166 480 4166 
C 780 4166 787 4127 800 3924 
L 1081 19 
C 1088 -90 1094 -128 1171 -128 
C 1235 -128 1248 -103 1305 -7 
L 3212 3307 
L 3449 19 
C 3456 -90 3462 -128 3539 -128 
C 3603 -128 3622 -96 3673 -7 
L 5779 3644 
z
" transform="scale(0.015625)"/>
       <path id="CMR17-72" d="M 1408 -1114 
C 998 -1114 972 -1088 972 -834 
L 972 380 
C 1158 109 1427 -64 1766 -64 
C 2406 -64 3052 503 3052 1382 
C 3052 2196 2496 2816 1836 2816 
C 1452 2816 1139 2603 960 2345 
L 960 2816 
L 198 2745 
L 198 2577 
C 576 2577 633 2539 633 2228 
L 633 -834 
C 633 -1081 608 -1114 198 -1114 
L 198 -1280 
C 352 -1268 633 -1268 800 -1268 
C 966 -1268 1254 -1268 1408 -1280 
L 1408 -1114 
z
M 972 2015 
C 972 2106 972 2241 1222 2481 
C 1254 2506 1472 2700 1792 2700 
C 2259 2700 2643 2112 2643 1376 
C 2643 639 2233 38 1728 38 
C 1497 38 1248 148 1056 451 
C 972 594 972 632 972 736 
L 972 2015 
z
" transform="scale(0.015625)"/>
       <path id="CMMI12-3e" d="M 2745 4563 
C 2745 4569 2784 4665 2784 4678 
C 2784 4755 2720 4800 2668 4800 
C 2636 4800 2579 4800 2528 4659 
L 384 -1364 
C 384 -1370 345 -1466 345 -1479 
C 345 -1556 409 -1600 460 -1600 
C 499 -1600 556 -1594 601 -1460 
L 2745 4563 
z
" transform="scale(0.015625)"/>
       <path id="CMR17-3f" d="M 4115 2048 
C 4211 2048 4307 2048 4307 2156 
C 4307 2272 4198 2272 4089 2272 
L 512 2272 
C 403 2272 294 2272 294 2156 
C 294 2048 390 2048 486 2048 
L 4115 2048 
z
M 4089 927 
C 4198 927 4307 927 4307 1043 
C 4307 1152 4211 1152 4115 1152 
L 486 1152 
C 390 1152 294 1152 294 1043 
C 294 927 403 927 512 927 
L 4089 927 
z
" transform="scale(0.015625)"/>
      </defs>
      <use xlink:href="#CMMI12-58" transform="scale(0.996264)"/>
      <use xlink:href="#CMR17-72" transform="translate(92.095909 -14.943915) scale(0.697382)"/>
      <use xlink:href="#CMMI12-3e" transform="translate(128.22065 0) scale(0.996264)"/>
      <use xlink:href="#CMMI12-58" transform="translate(176.995568 0) scale(0.996264)"/>
      <use xlink:href="#CMR17-70" transform="translate(269.091478 -14.943915) scale(0.697382)"/>
      <use xlink:href="#CMR17-3f" transform="translate(332.890227 0) scale(0.996264)"/>
      <use xlink:href="#CMR17-32" transform="translate(432.279024 0) scale(0.996264)"/>
      <use xlink:href="#CMMI12-3b" transform="translate(477.969501 0) scale(0.996264)"/>
      <use xlink:href="#CMR17-37" transform="translate(505.066678 0) scale(0.996264)"/>
     </g>
    </g>
    <g id="line2d_31">
     <path d="M 397.028623 54.732118 
L 411.028623 54.732118 
L 425.028623 54.732118 
" style="fill: none; stroke: #008000; stroke-width: 1.5; stroke-linecap: square"/>
    </g>
    <g id="text_17">
     <!-- $W_\mr{p}/W_\mr{n}=1.5$ -->
     <g transform="translate(436.228623 59.632118) scale(0.14 -0.14)">
      <use xlink:href="#CMMI12-58" transform="scale(0.996264)"/>
      <use xlink:href="#CMR17-72" transform="translate(92.095909 -14.943915) scale(0.697382)"/>
      <use xlink:href="#CMMI12-3e" transform="translate(128.22065 0) scale(0.996264)"/>
      <use xlink:href="#CMMI12-58" transform="translate(176.995568 0) scale(0.996264)"/>
      <use xlink:href="#CMR17-70" transform="translate(269.091478 -14.943915) scale(0.697382)"/>
      <use xlink:href="#CMR17-3f" transform="translate(332.890227 0) scale(0.996264)"/>
      <use xlink:href="#CMR17-33" transform="translate(432.279024 0) scale(0.996264)"/>
      <use xlink:href="#CMMI12-3b" transform="translate(477.969501 0) scale(0.996264)"/>
      <use xlink:href="#CMR17-37" transform="translate(505.066678 0) scale(0.996264)"/>
     </g>
    </g>
    <g id="line2d_32">
     <path d="M 397.028623 76.183465 
L 411.028623 76.183465 
L 425.028623 76.183465 
" style="fill: none; stroke: #ff0000; stroke-width: 1.5; stroke-linecap: square"/>
    </g>
    <g id="text_18">
     <!-- $W_\mr{p}/W_\mr{n}=4.5$ -->
     <g transform="translate(436.228623 81.083465) scale(0.14 -0.14)">
      <use xlink:href="#CMMI12-58" transform="scale(0.996264)"/>
      <use xlink:href="#CMR17-72" transform="translate(92.095909 -14.943915) scale(0.697382)"/>
      <use xlink:href="#CMMI12-3e" transform="translate(128.22065 0) scale(0.996264)"/>
      <use xlink:href="#CMMI12-58" transform="translate(176.995568 0) scale(0.996264)"/>
      <use xlink:href="#CMR17-70" transform="translate(269.091478 -14.943915) scale(0.697382)"/>
      <use xlink:href="#CMR17-3f" transform="translate(332.890227 0) scale(0.996264)"/>
      <use xlink:href="#CMR17-36" transform="translate(432.279024 0) scale(0.996264)"/>
      <use xlink:href="#CMMI12-3b" transform="translate(477.969501 0) scale(0.996264)"/>
      <use xlink:href="#CMR17-37" transform="translate(505.066678 0) scale(0.996264)"/>
     </g>
    </g>
   </g>
  </g>
 </g>
 <defs>
  <clipPath id="p9d7f359125">
   <rect x="57.518278" y="15.12" width="471.892683" height="271.06316"/>
  </clipPath>
 </defs>
</svg>
