<?xml version="1.0" encoding="UTF-8"?>
<svg xmlns="http://www.w3.org/2000/svg" xmlns:xlink="http://www.w3.org/1999/xlink" width="128pt" height="215pt" viewBox="0 0 128 215" version="1.1">
<rect width="100%" height="100%" fill="white" />
<defs>
<g>
<symbol overflow="visible" id="glyph0-0">
<path style="stroke:none;" d=""/>
</symbol>
<symbol overflow="visible" id="glyph0-1">
<path style="stroke:none;" d="M 2.140625 -1.375 C 1.65625 -0.578125 1.1875 -0.40625 0.671875 -0.375 C 0.53125 -0.359375 0.421875 -0.359375 0.421875 -0.125 C 0.421875 -0.0625 0.484375 0 0.578125 0 C 0.890625 0 1.265625 -0.03125 1.609375 -0.03125 C 2 -0.03125 2.421875 0 2.796875 0 C 2.875 0 3.03125 0 3.03125 -0.234375 C 3.03125 -0.359375 2.921875 -0.375 2.828125 -0.375 C 2.5625 -0.390625 2.265625 -0.484375 2.265625 -0.78125 C 2.265625 -0.9375 2.34375 -1.0625 2.4375 -1.234375 L 3.34375 -2.765625 L 6.34375 -2.765625 C 6.375 -2.515625 6.53125 -0.890625 6.53125 -0.765625 C 6.53125 -0.40625 5.921875 -0.375 5.671875 -0.375 C 5.515625 -0.375 5.390625 -0.375 5.390625 -0.125 C 5.390625 0 5.53125 0 5.5625 0 C 6.046875 0 6.5625 -0.03125 7.046875 -0.03125 C 7.34375 -0.03125 8.109375 0 8.40625 0 C 8.46875 0 8.625 0 8.625 -0.234375 C 8.625 -0.375 8.5 -0.375 8.34375 -0.375 C 7.609375 -0.375 7.609375 -0.453125 7.5625 -0.796875 L 6.84375 -8.265625 C 6.8125 -8.515625 6.8125 -8.5625 6.609375 -8.5625 C 6.421875 -8.5625 6.375 -8.46875 6.296875 -8.359375 Z M 3.578125 -3.125 L 5.921875 -7.078125 L 6.3125 -3.125 Z M 3.578125 -3.125 "/>
</symbol>
<symbol overflow="visible" id="glyph0-2">
<path style="stroke:none;" d="M 1.90625 -0.9375 C 1.796875 -0.46875 1.765625 -0.375 0.828125 -0.375 C 0.625 -0.375 0.5 -0.375 0.5 -0.125 C 0.5 0 0.609375 0 0.828125 0 L 5.09375 0 C 6.984375 0 8.390625 -1.40625 8.390625 -2.578125 C 8.390625 -3.4375 7.703125 -4.140625 6.53125 -4.265625 C 7.78125 -4.5 9.03125 -5.375 9.03125 -6.515625 C 9.03125 -7.40625 8.25 -8.15625 6.8125 -8.15625 L 2.796875 -8.15625 C 2.5625 -8.15625 2.453125 -8.15625 2.453125 -7.921875 C 2.453125 -7.796875 2.5625 -7.796875 2.78125 -7.796875 C 2.8125 -7.796875 3.03125 -7.796875 3.234375 -7.765625 C 3.453125 -7.75 3.5625 -7.734375 3.5625 -7.578125 C 3.5625 -7.53125 3.546875 -7.5 3.515625 -7.34375 Z M 3.71875 -4.375 L 4.453125 -7.34375 C 4.5625 -7.75 4.59375 -7.796875 5.109375 -7.796875 L 6.640625 -7.796875 C 7.703125 -7.796875 7.953125 -7.09375 7.953125 -6.5625 C 7.953125 -5.515625 6.921875 -4.375 5.46875 -4.375 Z M 3.171875 -0.375 C 3.015625 -0.375 2.984375 -0.375 2.921875 -0.375 C 2.796875 -0.390625 2.765625 -0.40625 2.765625 -0.5 C 2.765625 -0.53125 2.765625 -0.5625 2.828125 -0.78125 L 3.640625 -4.109375 L 5.90625 -4.109375 C 7.046875 -4.109375 7.28125 -3.234375 7.28125 -2.71875 C 7.28125 -1.53125 6.21875 -0.375 4.8125 -0.375 Z M 3.171875 -0.375 "/>
</symbol>
<symbol overflow="visible" id="glyph0-3">
<path style="stroke:none;" d="M 7.140625 -6.796875 L 7.296875 -6.96875 C 7.65625 -7.328125 8.0625 -7.734375 8.875 -7.796875 C 9 -7.8125 9.109375 -7.8125 9.109375 -8.015625 C 9.109375 -8.109375 9.046875 -8.15625 8.953125 -8.15625 C 8.640625 -8.15625 8.296875 -8.125 7.96875 -8.125 C 7.578125 -8.125 7.15625 -8.15625 6.78125 -8.15625 C 6.703125 -8.15625 6.546875 -8.15625 6.546875 -7.9375 C 6.546875 -7.8125 6.671875 -7.796875 6.734375 -7.796875 C 6.8125 -7.796875 7.15625 -7.765625 7.15625 -7.515625 C 7.15625 -7.3125 6.890625 -7 6.84375 -6.9375 L 4.0625 -3.75 L 2.75 -7.296875 C 2.671875 -7.46875 2.671875 -7.5 2.671875 -7.5 C 2.671875 -7.796875 3.265625 -7.796875 3.375 -7.796875 C 3.546875 -7.796875 3.671875 -7.796875 3.671875 -8.03125 C 3.671875 -8.15625 3.53125 -8.15625 3.484375 -8.15625 C 3.15625 -8.15625 2.3125 -8.125 1.984375 -8.125 C 1.6875 -8.125 0.9375 -8.15625 0.640625 -8.15625 C 0.578125 -8.15625 0.421875 -8.15625 0.421875 -7.921875 C 0.421875 -7.796875 0.53125 -7.796875 0.6875 -7.796875 C 1.40625 -7.796875 1.453125 -7.6875 1.5625 -7.390625 L 3.03125 -3.453125 C 3.046875 -3.421875 3.078125 -3.28125 3.078125 -3.25 C 3.078125 -3.21875 2.609375 -1.296875 2.546875 -1.078125 C 2.390625 -0.421875 2.375 -0.375 1.421875 -0.375 C 1.1875 -0.375 1.09375 -0.375 1.09375 -0.125 C 1.09375 0 1.25 0 1.265625 0 C 1.609375 0 2.4375 -0.03125 2.765625 -0.03125 C 3.109375 -0.03125 3.96875 0 4.296875 0 C 4.390625 0 4.53125 0 4.53125 -0.234375 C 4.53125 -0.375 4.421875 -0.375 4.203125 -0.375 C 4.171875 -0.375 3.9375 -0.375 3.734375 -0.390625 C 3.484375 -0.421875 3.421875 -0.4375 3.421875 -0.578125 C 3.421875 -0.671875 3.53125 -1.09375 3.578125 -1.34375 L 4 -3.03125 C 4.0625 -3.25 4.078125 -3.28125 4.171875 -3.390625 Z M 7.140625 -6.796875 "/>
</symbol>
</g>
</defs>
<g id="surface1">
<path style="fill:none;stroke-width:9.75;stroke-linecap:round;stroke-linejoin:bevel;stroke:rgb(0%,0%,0%);stroke-opacity:1;stroke-miterlimit:6;" d="M 638.789062 665 L 638.789062 530 L 518.789062 530 L 518.789062 320 L 638.789062 320 L 638.789062 185 " transform="matrix(0.1,0,0,-0.1,0,215)"/>
<path style="fill:none;stroke-width:9.75;stroke-linecap:round;stroke-linejoin:bevel;stroke:rgb(0%,0%,0%);stroke-opacity:1;stroke-miterlimit:6;" d="M 473.789062 530 L 473.789062 320 " transform="matrix(0.1,0,0,-0.1,0,215)"/>
<path style="fill:none;stroke-width:9.75;stroke-linecap:round;stroke-linejoin:bevel;stroke:rgb(0%,0%,0%);stroke-opacity:1;stroke-miterlimit:6;" d="M 398.789062 425 L 473.789062 425 " transform="matrix(0.1,0,0,-0.1,0,215)"/>
<path style="fill:none;stroke-width:9.75;stroke-linecap:round;stroke-linejoin:bevel;stroke:rgb(0%,0%,0%);stroke-opacity:1;stroke-miterlimit:6;" d="M 638.789062 1145 L 638.789062 1010 L 518.789062 1010 L 518.789062 800 L 638.789062 800 L 638.789062 665 " transform="matrix(0.1,0,0,-0.1,0,215)"/>
<path style="fill:none;stroke-width:9.75;stroke-linecap:round;stroke-linejoin:bevel;stroke:rgb(0%,0%,0%);stroke-opacity:1;stroke-miterlimit:6;" d="M 473.789062 1010 L 473.789062 800 " transform="matrix(0.1,0,0,-0.1,0,215)"/>
<path style="fill:none;stroke-width:9.75;stroke-linecap:round;stroke-linejoin:bevel;stroke:rgb(0%,0%,0%);stroke-opacity:1;stroke-miterlimit:6;" d="M 398.789062 905 L 473.789062 905 " transform="matrix(0.1,0,0,-0.1,0,215)"/>
<path style="fill:none;stroke-width:9.75;stroke-linecap:round;stroke-linejoin:bevel;stroke:rgb(0%,0%,0%);stroke-opacity:1;stroke-miterlimit:6;" d="M 638.789062 125 L 638.789062 245 " transform="matrix(0.1,0,0,-0.1,0,215)"/>
<path style="fill:none;stroke-width:9.75;stroke-linecap:round;stroke-linejoin:bevel;stroke:rgb(0%,0%,0%);stroke-opacity:1;stroke-miterlimit:6;" d="M 758.789062 125 L 518.789062 125 " transform="matrix(0.1,0,0,-0.1,0,215)"/>
<path style="fill:none;stroke-width:9.75;stroke-linecap:round;stroke-linejoin:bevel;stroke:rgb(0%,0%,0%);stroke-opacity:1;stroke-miterlimit:6;" d="M 706.289062 72.5 L 571.289062 72.5 " transform="matrix(0.1,0,0,-0.1,0,215)"/>
<path style="fill:none;stroke-width:9.75;stroke-linecap:round;stroke-linejoin:bevel;stroke:rgb(0%,0%,0%);stroke-opacity:1;stroke-miterlimit:6;" d="M 653.789062 20 L 623.789062 20 " transform="matrix(0.1,0,0,-0.1,0,215)"/>
<path style="fill:none;stroke-width:9.75;stroke-linecap:round;stroke-linejoin:bevel;stroke:rgb(0%,0%,0%);stroke-opacity:1;stroke-miterlimit:6;" d="M 293.789062 1790 L 293.789062 1580 " transform="matrix(0.1,0,0,-0.1,0,215)"/>
<path style="fill:none;stroke-width:9.75;stroke-linecap:round;stroke-linejoin:bevel;stroke:rgb(0%,0%,0%);stroke-opacity:1;stroke-miterlimit:6;" d="M 218.789062 1685 L 233.789062 1685 " transform="matrix(0.1,0,0,-0.1,0,215)"/>
<path style="fill:none;stroke-width:9.75;stroke-linecap:round;stroke-linejoin:bevel;stroke:rgb(0%,0%,0%);stroke-opacity:1;stroke-miterlimit:6;" d="M 458.789062 1925 L 458.789062 1790 L 338.789062 1790 L 338.789062 1580 L 458.789062 1580 L 458.789062 1445 " transform="matrix(0.1,0,0,-0.1,0,215)"/>
<path style="fill:none;stroke-width:9.75;stroke-linecap:round;stroke-linejoin:bevel;stroke:rgb(0%,0%,0%);stroke-opacity:1;stroke-miterlimit:6;" d="M 293.789062 1685 C 293.789062 1701.5625 280.351562 1715 263.789062 1715 C 247.226562 1715 233.789062 1701.5625 233.789062 1685 C 233.789062 1668.4375 247.226562 1655 263.789062 1655 C 280.351562 1655 293.789062 1668.4375 293.789062 1685 " transform="matrix(0.1,0,0,-0.1,0,215)"/>
<path style="fill:none;stroke-width:9.75;stroke-linecap:round;stroke-linejoin:bevel;stroke:rgb(0%,0%,0%);stroke-opacity:1;stroke-miterlimit:6;" d="M 983.789062 1790 L 983.789062 1580 " transform="matrix(0.1,0,0,-0.1,0,215)"/>
<path style="fill:none;stroke-width:9.75;stroke-linecap:round;stroke-linejoin:bevel;stroke:rgb(0%,0%,0%);stroke-opacity:1;stroke-miterlimit:6;" d="M 1058.789062 1685 L 1043.789062 1685 " transform="matrix(0.1,0,0,-0.1,0,215)"/>
<path style="fill:none;stroke-width:9.75;stroke-linecap:round;stroke-linejoin:bevel;stroke:rgb(0%,0%,0%);stroke-opacity:1;stroke-miterlimit:6;" d="M 818.789062 1925 L 818.789062 1790 L 938.789062 1790 L 938.789062 1580 L 818.789062 1580 L 818.789062 1445 " transform="matrix(0.1,0,0,-0.1,0,215)"/>
<path style="fill:none;stroke-width:9.75;stroke-linecap:round;stroke-linejoin:bevel;stroke:rgb(0%,0%,0%);stroke-opacity:1;stroke-miterlimit:6;" d="M 983.789062 1685 C 983.789062 1701.5625 997.226562 1715 1013.789062 1715 C 1030.351562 1715 1043.789062 1701.5625 1043.789062 1685 C 1043.789062 1668.4375 1030.351562 1655 1013.789062 1655 C 997.226562 1655 983.789062 1668.4375 983.789062 1685 " transform="matrix(0.1,0,0,-0.1,0,215)"/>
<path style="fill:none;stroke-width:9.75;stroke-linecap:round;stroke-linejoin:bevel;stroke:rgb(0%,0%,0%);stroke-opacity:1;stroke-miterlimit:6;" d="M 818.789062 1445 L 818.789062 1385 L 458.789062 1385 L 458.789062 1445 " transform="matrix(0.1,0,0,-0.1,0,215)"/>
<path style="fill:none;stroke-width:9.75;stroke-linecap:round;stroke-linejoin:bevel;stroke:rgb(0%,0%,0%);stroke-opacity:1;stroke-miterlimit:6;" d="M 638.789062 1205 L 638.789062 1145 " transform="matrix(0.1,0,0,-0.1,0,215)"/>
<path style=" stroke:none;fill-rule:evenodd;fill:rgb(0%,0%,0%);fill-opacity:1;" d="M 66.128906 76.5 C 66.128906 75.257812 65.121094 74.25 63.878906 74.25 C 62.636719 74.25 61.628906 75.257812 61.628906 76.5 C 61.628906 77.742188 62.636719 78.75 63.878906 78.75 C 65.121094 78.75 66.128906 77.742188 66.128906 76.5 "/>
<path style="fill:none;stroke-width:9.75;stroke-linecap:round;stroke-linejoin:bevel;stroke:rgb(0%,0%,0%);stroke-opacity:1;stroke-miterlimit:6;" d="M 818.789062 1925 L 458.789062 1925 " transform="matrix(0.1,0,0,-0.1,0,215)"/>
<path style="fill:none;stroke-width:9.75;stroke-linecap:round;stroke-linejoin:bevel;stroke:rgb(0%,0%,0%);stroke-opacity:1;stroke-miterlimit:6;" d="M 638.789062 2105 L 638.789062 1925 " transform="matrix(0.1,0,0,-0.1,0,215)"/>
<path style=" stroke:none;fill-rule:evenodd;fill:rgb(0%,0%,0%);fill-opacity:1;" d="M 66.128906 22.5 C 66.128906 21.257812 65.121094 20.25 63.878906 20.25 C 62.636719 20.25 61.628906 21.257812 61.628906 22.5 C 61.628906 23.742188 62.636719 24.75 63.878906 24.75 C 65.121094 24.75 66.128906 23.742188 66.128906 22.5 "/>
<path style="fill:none;stroke-width:7.8;stroke-linecap:round;stroke-linejoin:bevel;stroke:rgb(0%,0%,0%);stroke-opacity:1;stroke-miterlimit:6;" d="M 773.789062 2105 L 548.789062 2105 " transform="matrix(0.1,0,0,-0.1,0,215)"/>
<path style=" stroke:none;fill-rule:evenodd;fill:rgb(0%,0%,0%);fill-opacity:1;" d="M 74.378906 7.5 C 78.128906 5.625 79.253906 5.625 84.878906 4.5 C 79.253906 3.375 78.128906 3.375 74.378906 1.5 C 75.128906 3.75 75.128906 5.25 74.378906 7.5 "/>
<path style=" stroke:none;fill-rule:evenodd;fill:rgb(0%,0%,0%);fill-opacity:1;" d="M 66.128906 4.5 C 66.128906 3.257812 65.121094 2.25 63.878906 2.25 C 62.636719 2.25 61.628906 3.257812 61.628906 4.5 C 61.628906 5.742188 62.636719 6.75 63.878906 6.75 C 65.121094 6.75 66.128906 5.742188 66.128906 4.5 "/>
<path style="fill:none;stroke-width:9.75;stroke-linecap:round;stroke-linejoin:bevel;stroke:rgb(0%,0%,0%);stroke-opacity:1;stroke-miterlimit:6;" d="M 638.789062 1385 L 638.789062 1025 " transform="matrix(0.1,0,0,-0.1,0,215)"/>
<path style="fill:none;stroke-width:9.75;stroke-linecap:round;stroke-linejoin:bevel;stroke:rgb(0%,0%,0%);stroke-opacity:1;stroke-miterlimit:6;" d="M 878.789062 1205 L 638.789062 1205 " transform="matrix(0.1,0,0,-0.1,0,215)"/>
<path style=" stroke:none;fill-rule:evenodd;fill:rgb(0%,0%,0%);fill-opacity:1;" d="M 66.128906 94.5 C 66.128906 93.257812 65.121094 92.25 63.878906 92.25 C 62.636719 92.25 61.628906 93.257812 61.628906 94.5 C 61.628906 95.742188 62.636719 96.75 63.878906 96.75 C 65.121094 96.75 66.128906 95.742188 66.128906 94.5 "/>
<path style="fill:none;stroke-width:9.75;stroke-linecap:round;stroke-linejoin:bevel;stroke:rgb(0%,0%,0%);stroke-opacity:1;stroke-miterlimit:6;" d="M 1058.789062 1685 L 1118.789062 1685 " transform="matrix(0.1,0,0,-0.1,0,215)"/>
<path style="fill:none;stroke-width:9.75;stroke-linecap:round;stroke-linejoin:bevel;stroke:rgb(0%,0%,0%);stroke-opacity:1;stroke-miterlimit:6;" d="M 218.789062 1685 L 158.789062 1685 " transform="matrix(0.1,0,0,-0.1,0,215)"/>
<g style="fill:rgb(13.729858%,12.159729%,12.548828%);fill-opacity:1;">
  <use xlink:href="#glyph0-1" x="24.6719" y="175.2398"/>
</g>
<g style="fill:rgb(13.729858%,12.159729%,12.548828%);fill-opacity:1;">
  <use xlink:href="#glyph0-2" x="23.951978" y="127"/>
</g>
<g style="fill:rgb(13.729858%,12.159729%,12.548828%);fill-opacity:1;">
  <use xlink:href="#glyph0-1" x="0.912178" y="49.2398"/>
</g>
<g style="fill:rgb(13.729858%,12.159729%,12.548828%);fill-opacity:1;">
  <use xlink:href="#glyph0-2" x="117.84049" y="49.2398"/>
</g>
<g style="fill:rgb(13.729858%,12.159729%,12.548828%);fill-opacity:1;">
  <use xlink:href="#glyph0-3" x="94.080178" y="97.48"/>
</g>
</g>
</svg>
